{
.formatVersion = 3;
DisplayStrings = (
"።"
);
familyName = "ዋልድባ - ይገዙ ብሥራት ጎቲክ";
customParameters = (
{
name = glyphOrder;
value = (
.notdef,
NULL,
CR,
space,
exclam,
quotedbl,
numbersign,
dollar,
percent,
ampersand,
quotesingle,
parenleft,
parenright,
asterisk,
plus,
comma,
hyphen,
period,
slash,
zero,
one,
two,
three,
four,
five,
six,
seven,
eight,
nine,
colon,
semicolon,
less,
equal,
greater,
question,
at,
A,
B,
C,
D,
E,
F,
G,
H,
I,
J,
K,
L,
M,
N,
O,
P,
Q,
R,
S,
T,
U,
V,
W,
X,
Y,
Z,
bracketleft,
backslash,
bracketright,
asciicircum,
underscore,
grave,
a,
b,
c,
d,
e,
f,
g,
h,
i,
j,
k,
l,
m,
n,
o,
p,
q,
r,
s,
t,
u,
v,
w,
x,
y,
z,
braceleft,
bar,
braceright,
asciitilde,
exclamdown,
cent,
sterling,
currency,
yen,
brokenbar,
section,
dieresis,
copyright,
ordfeminine,
guillemotleft,
logicalnot,
registered,
overscore,
degree,
plusminus,
twosuperior,
threesuperior,
acute,
mu,
paragraph,
middot,
cedilla,
onesuperior,
ordmasculine,
guillemotright,
onequarter,
onehalf,
threequarters,
questiondown,
Agrave,
Aacute,
Acircumflex,
Atilde,
Adieresis,
Aring,
AE,
Ccedilla,
Egrave,
Eacute,
Ecircumflex,
Edieresis,
Igrave,
Iacute,
Icircumflex,
Idieresis,
Eth,
Ntilde,
Ograve,
Oacute,
Ocircumflex,
Otilde,
Odieresis,
multiply,
Oslash,
Ugrave,
Uacute,
Ucircumflex,
Udieresis,
Yacute,
Thorn,
germandbls,
agrave,
aacute,
acircumflex,
atilde,
adieresis,
aring,
ae,
ccedilla,
egrave,
eacute,
ecircumflex,
edieresis,
igrave,
iacute,
icircumflex,
idieresis,
eth,
ntilde,
ograve,
oacute,
ocircumflex,
otilde,
odieresis,
divide,
oslash,
ugrave,
uacute,
ucircumflex,
udieresis,
yacute,
thorn,
ydieresis,
OE,
oe,
Scaron,
scaron,
Ydieresis,
Zcaron,
zcaron,
florin,
circumflex,
tilde,
uni1200,
uni1201,
uni1202,
uni1203,
uni1204,
uni1205,
uni1206,
uni1208,
uni1209,
uni120A,
uni120B,
uni120C,
uni120D,
uni120E,
uni120F,
uni1210,
uni1211,
uni1212,
uni1213,
uni1214,
uni1215,
uni1216,
uni1217,
uni1218,
uni1219,
uni121A,
uni121B,
uni121C,
uni121D,
uni121E,
uni121F,
uni1220,
uni1221,
uni1222,
uni1223,
uni1224,

glyphs = (
{
glyphname = exclam;
layers = (
{
layerId = "55B2AD78-00C4-470B-8999-F57615B8BFC4";
shapes = (
{
closed = 1;
nodes = (
(637,444,l),
(596,1314,l),
(787,1314,l),
(744,444,l)
);
},
{
closed = 1;
nodes = (
(760,244,o),
(850,161,o),
(850,101,q),
(850,42,o),
(758,-39,o),
(690,-39,q),
(624,-39,o),
(532,44,o),
(532,103,q),
(532,163,o),
(624,244,o),
(690,244,q)
);
}
);
width = 1381;
}
);
unicode = 33;
},
{
glyphname = quotedbl;
layers = (
{
layerId = "55B2AD78-00C4-470B-8999-F57615B8BFC4";
shapes = (
{
closed = 1;
nodes = (
(558,650,l),
(387,650,l),
(362,1296,l),
(580,1296,l)
);
},
{
closed = 1;
nodes = (
(995,650,l),
(824,650,l),
(801,1296,l),
(1019,1296,l)
);
}
);
width = 1381;
}
);
unicode = 34;
},
{
glyphname = numbersign;
layers = (
{
layerId = "55B2AD78-00C4-470B-8999-F57615B8BFC4";
shapes = (
{
closed = 1;
nodes = (
(543,1045,l),
(877,1045,l),
(905,1517,l),
(1013,1517,l),
(986,1045,l),
(1202,1045,l),
(1202,896,l),
(978,896,l),
(955,511,l),
(1202,511,l),
(1202,362,l),
(949,362,l),
(921,-132,l),
(813,-132,l),
(841,362,l),
(505,362,l),
(479,-132,l),
(371,-132,l),
(396,362,l),
(180,362,l),
(180,511,l),
(405,511,l),
(428,896,l),
(180,896,l),
(180,1045,l),
(435,1045,l),
(463,1517,l),
(571,1517,l)
);
},
{
closed = 1;
nodes = (
(514,511,l),
(847,511,l),
(870,896,l),
(536,896,l)
);
}
);
width = 1381;
}
);
unicode = 35;
},
{
glyphname = dollar;
layers = (
{
layerId = "55B2AD78-00C4-470B-8999-F57615B8BFC4";
shapes = (
{
closed = 1;
nodes = (
(1096,1259,l),
(1094,1236,o),
(1091,1184,o),
(1091,1149,q),
(1091,1039,o),
(1109,870,o),
(1116,813,q),
(1010,801,l),
(995,914,o),
(930,1050,o),
(854,1123,o),
(773,1151,o),
(741,1158,q),
(741,688,l),
(813,668,o),
(953,622,o),
(1063,550,o),
(1131,439,o),
(1131,356,q),
(1131,283,o),
(1070,171,o),
(964,88,o),
(822,39,o),
(741,33,q),
(741,-314,l),
(631,-314,l),
(631,33,l),
(613,33,o),
(582,35,o),
(541,46,o),
(483,62,o),
(439,76,q),
(415,85,o),
(393,88,o),
(389,88,q),
(366,88,o),
(359,60,o),
(356,20,q),
(248,20,l),
(255,147,o),
(242,352,o),
(226,468,q),
(334,468,l),
(341,428,o),
(369,325,o),
(430,228,o),
(541,154,o),
(631,143,q),
(631,601,l),
(573,617,o),
(444,659,o),
(336,732,o),
(265,847,o),
(265,937,q),
(265,1082,o),
(465,1257,o),
(631,1270,q),
(631,1510,l),
(741,1510,l),
(741,1270,l),
(819,1259,o),
(900,1222,q),
(930,1208,o),
(946,1202,o),
(955,1202,q),
(973,1202,o),
(982,1225,o),
(988,1259,q)
);
},
{
closed = 1;
nodes = (
(631,1160,l),
(604,1155,o),
(520,1137,o),
(442,1089,o),
(384,1008,o),
(384,942,q),
(384,886,o),
(428,815,o),
(497,767,o),
(584,734,o),
(631,720,q)
);
},
{
closed = 1;
nodes = (
(741,143,l),
(778,145,o),
(870,165,o),
(953,214,o),
(1010,294,o),
(1010,354,q),
(1010,407,o),
(962,479,o),
(886,527,o),
(789,560,o),
(741,573,q)
);
}
);
width = 1381;
}
);
unicode = 36;
},
{
glyphname = percent;
layers = (
{
layerId = "55B2AD78-00C4-470B-8999-F57615B8BFC4";
shapes = (
{
closed = 1;
nodes = (
(1004,582,o),
(1125,527,o),
(1208,437,o),
(1250,327,o),
(1250,274,q),
(1250,219,o),
(1206,110,o),
(1123,22,o),
(1001,-33,o),
(923,-33,q),
(843,-33,o),
(723,22,o),
(640,112,o),
(598,221,o),
(598,274,q),
(598,325,o),
(640,435,o),
(720,525,o),
(843,582,o),
(923,582,q)
);
},
{
closed = 1;
nodes = (
(874,474,o),
(801,439,o),
(751,384,o),
(723,314,o),
(723,277,q),
(723,198,o),
(826,76,o),
(923,76,q),
(971,76,o),
(1048,110,o),
(1100,169,o),
(1125,239,o),
(1125,277,q),
(1125,310,o),
(1100,382,o),
(1050,439,o),
(973,474,o),
(923,474,q)
);
},
{
closed = 1;
nodes = (
(507,1413,o),
(628,1358,o),
(711,1268,o),
(755,1160,o),
(755,1105,q),
(755,1050,o),
(711,940,o),
(628,852,o),
(507,799,o),
(428,799,q),
(352,799,o),
(230,854,o),
(147,940,o),
(103,1050,o),
(103,1105,q),
(103,1158,o),
(145,1268,o),
(228,1358,o),
(347,1413,o),
(428,1413,q)
);
},
{
closed = 1;
nodes = (
(380,1305,o),
(303,1270,o),
(253,1213,o),
(228,1142,o),
(228,1105,q),
(228,1068,o),
(255,997,o),
(306,942,o),
(382,907,o),
(430,907,q),
(527,907,o),
(631,1026,o),
(631,1105,q),
(631,1181,o),
(527,1305,o),
(430,1305,q)
);
},
{
closed = 1;
nodes = (
(246,444,l),
(200,553,l),
(1135,967,l),
(1181,859,l)
);
}
);
width = 1381;
}
);
unicode = 37;
},
{
glyphname = ampersand;
layers = (
{
layerId = "55B2AD78-00C4-470B-8999-F57615B8BFC4";
shapes = (
{
closed = 1;
nodes = (
(1217,536,l),
(1080,536,l),
(1039,415,o),
(978,288,o),
(960,255,q),
(1061,108,l),
(1234,108,l),
(1234,0,l),
(971,0,l),
(877,138,l),
(856,117,o),
(801,62,o),
(723,13,o),
(622,-18,o),
(560,-18,q),
(479,-18,o),
(354,39,o),
(270,136,o),
(226,255,o),
(226,318,q),
(226,435,o),
(369,642,o),
(499,690,q),
(499,698,o),
(490,707,q),
(451,764,o),
(402,837,o),
(375,898,o),
(366,949,o),
(366,980,q),
(366,1094,o),
(525,1243,o),
(663,1243,q),
(714,1243,o),
(801,1222,o),
(845,1204,q),
(894,1186,o),
(925,1179,o),
(940,1179,q),
(967,1179,o),
(1010,1193,o),
(1024,1197,q),
(918,1032,l),
(874,1063,o),
(751,1133,o),
(663,1133,q),
(615,1133,o),
(553,1105,o),
(516,1061,o),
(501,1010,o),
(501,990,q),
(501,949,o),
(547,868,o),
(591,804,q),
(891,359,l),
(912,402,o),
(937,459,o),
(958,514,o),
(980,584,o),
(999,644,q),
(1217,644,l)
);
},
{
closed = 1;
nodes = (
(562,608,l),
(529,593,o),
(465,547,o),
(413,483,o),
(378,398,o),
(378,345,q),
(378,303,o),
(400,217,o),
(453,145,o),
(532,101,o),
(587,101,q),
(631,101,o),
(705,129,o),
(760,171,o),
(801,214,o),
(815,230,q)
);
}
);
width = 1381;
}
);
unicode = 38;
},
{
glyphname = quotesingle;
layers = (
{
layerId = "55B2AD78-00C4-470B-8999-F57615B8BFC4";
shapes = (
{
closed = 1;
nodes = (
(776,646,l),
(604,646,l),
(560,1296,l),
(822,1296,l)
);
}
);
width = 1381;
}
);
unicode = 39;
},
{
glyphname = parenleft;
layers = (
{
layerId = "55B2AD78-00C4-470B-8999-F57615B8BFC4";
shapes = (
{
closed = 1;
nodes = (
(1066,1494,l),
(1028,1423,o),
(937,1236,o),
(854,1015,o),
(799,767,o),
(799,635,q),
(799,505,o),
(854,255,o),
(937,35,o),
(1028,-152,o),
(1066,-221,q),
(949,-221,l),
(883,-125,o),
(778,97,o),
(703,323,o),
(661,541,o),
(661,635,q),
(661,727,o),
(700,946,o),
(776,1171,o),
(881,1395,o),
(949,1494,q)
);
}
);
width = 1381;
}
);
unicode = 40;
},
{
glyphname = parenright;
layers = (
{
layerId = "55B2AD78-00C4-470B-8999-F57615B8BFC4";
shapes = (
{
closed = 1;
nodes = (
(316,-221,l),
(350,-158,o),
(442,26,o),
(527,248,o),
(584,501,o),
(584,635,q),
(584,769,o),
(527,1019,o),
(442,1241,o),
(350,1427,o),
(316,1494,q),
(435,1494,l),
(507,1384,o),
(615,1155,o),
(686,932,o),
(723,725,o),
(723,635,q),
(723,541,o),
(683,327,o),
(610,103,o),
(501,-119,o),
(435,-221,q)
);
}
);
width = 1381;
}
);
unicode = 41;
},
{
glyphname = asterisk;
layers = (
{
layerId = "55B2AD78-00C4-470B-8999-F57615B8BFC4";
shapes = (
{
closed = 1;
nodes = (
(755,958,l),
(1077,1075,l),
(1125,927,l),
(795,835,l),
(1008,569,l),
(881,474,l),
(690,762,l),
(499,474,l),
(373,569,l),
(587,835,l),
(255,927,l),
(303,1075,l),
(626,958,l),
(613,1296,l),
(769,1296,l)
);
}
);
width = 1381;
}
);
unicode = 42;
},
{
glyphname = plus;
layers = (
{
layerId = "55B2AD78-00C4-470B-8999-F57615B8BFC4";
shapes = (
{
closed = 1;
nodes = (
(749,755,l),
(1230,755,l),
(1230,640,l),
(749,640,l),
(749,169,l),
(633,169,l),
(633,640,l),
(152,640,l),
(152,755,l),
(633,755,l),
(633,1227,l),
(749,1227,l)
);
}
);
width = 1381;
}
);
unicode = 43;
},
{
glyphname = comma;
layers = (
{
layerId = "55B2AD78-00C4-470B-8999-F57615B8BFC4";
shapes = (
{
closed = 1;
nodes = (
(571,-251,l),
(407,-251,l),
(582,306,l),
(822,306,l)
);
}
);
width = 1381;
}
);
unicode = 44;
},
{
glyphname = hyphen;
layers = (
{
layerId = "55B2AD78-00C4-470B-8999-F57615B8BFC4";
shapes = (
{
closed = 1;
nodes = (
(446,729,l),
(934,729,l),
(934,604,l),
(446,604,l)
);
}
);
width = 1381;
}
);
unicode = (45,173);
},
{
glyphname = period;
layers = (
{
layerId = "55B2AD78-00C4-470B-8999-F57615B8BFC4";
shapes = (
{
closed = 1;
nodes = (
(725,274,o),
(787,251,o),
(837,209,o),
(868,152,o),
(868,117,q),
(868,81,o),
(835,22,o),
(785,-18,o),
(720,-39,o),
(690,-39,q),
(661,-39,o),
(598,-18,o),
(545,20,o),
(514,79,o),
(514,117,q),
(514,154,o),
(545,211,o),
(596,253,o),
(659,274,o),
(690,274,q)
);
}
);
width = 1381;
}
);
unicode = 46;
},
{
glyphname = slash;
layers = (
{
layerId = "55B2AD78-00C4-470B-8999-F57615B8BFC4";
shapes = (
{
closed = 1;
nodes = (
(308,-306,l),
(209,-260,l),
(1072,1616,l),
(1171,1575,l)
);
}
);
width = 1381;
}
);
unicode = 47;
},
{
glyphname = zero;
layers = (
{
layerId = "55B2AD78-00C4-470B-8999-F57615B8BFC4";
shapes = (
{
closed = 1;
nodes = (
(831,1430,o),
(1004,1285,o),
(1096,1066,o),
(1128,810,o),
(1128,698,q),
(1128,584,o),
(1096,329,o),
(1004,110,o),
(831,-33,o),
(690,-33,q),
(550,-33,o),
(378,112,o),
(285,329,o),
(253,587,o),
(253,698,q),
(253,810,o),
(285,1066,o),
(378,1285,o),
(550,1430,o),
(690,1430,q)
);
},
{
closed = 1;
nodes = (
(587,1326,o),
(463,1197,o),
(396,1008,o),
(375,789,o),
(375,700,q),
(375,608,o),
(396,389,o),
(463,198,o),
(587,71,o),
(688,71,q),
(792,71,o),
(916,200,o),
(986,389,o),
(1006,610,o),
(1006,700,q),
(1006,792,o),
(986,1010,o),
(918,1199,o),
(795,1326,o),
(690,1326,q)
);
}
);
width = 1381;
}
);
unicode = 48;
},
{
glyphname = one;
layers = (
{
layerId = "55B2AD78-00C4-470B-8999-F57615B8BFC4";
shapes = (
{
closed = 1;
nodes = (
(769,1430,l),
(769,108,l),
(1162,108,l),
(1162,0,l),
(253,0,l),
(253,108,l),
(654,108,l),
(654,1296,l),
(285,1125,l),
(239,1227,l),
(695,1430,l)
);
}
);
width = 1381;
}
);
unicode = 49;
},
{
glyphname = two;
layers = (
{
layerId = "55B2AD78-00C4-470B-8999-F57615B8BFC4";
shapes = (
{
closed = 1;
nodes = (
(1087,0,l),
(189,0,l),
(189,123,l),
(226,154,o),
(382,292,o),
(569,461,o),
(760,637,o),
(828,709,q),
(912,792,o),
(964,927,o),
(964,1008,q),
(964,1091,o),
(898,1206,o),
(801,1280,o),
(690,1314,o),
(646,1314,q),
(615,1314,o),
(514,1294,o),
(417,1239,o),
(350,1146,o),
(354,1075,q),
(235,1075,l),
(235,1225,l),
(299,1300,o),
(435,1386,o),
(553,1423,o),
(637,1430,o),
(652,1430,q),
(732,1430,o),
(889,1370,o),
(1013,1259,o),
(1089,1100,o),
(1089,1004,q),
(1089,930,o),
(1052,815,o),
(1010,749,q),
(982,705,o),
(854,564,o),
(674,393,o),
(459,205,o),
(343,112,q),
(343,108,l),
(978,108,l),
(978,336,l),
(1087,336,l)
);
}
);
width = 1381;
}
);
unicode = 50;
},
{
glyphname = three;
layers = (
{
layerId = "55B2AD78-00C4-470B-8999-F57615B8BFC4";
shapes = (
{
closed = 1;
nodes = (
(237,182,l),
(325,141,o),
(523,76,o),
(619,76,q),
(681,76,o),
(804,115,o),
(900,196,o),
(958,314,o),
(958,389,q),
(958,470,o),
(903,575,o),
(835,637,o),
(773,665,o),
(767,668,q),
(707,688,o),
(598,692,o),
(543,688,q),
(543,797,l),
(593,797,o),
(711,810,o),
(764,845,q),
(822,883,o),
(883,1004,o),
(883,1070,q),
(883,1188,o),
(727,1322,o),
(610,1322,q),
(520,1322,o),
(373,1245,o),
(320,1213,q),
(279,1188,l),
(221,1278,l),
(318,1340,o),
(501,1430,o),
(613,1430,q),
(686,1430,o),
(826,1381,o),
(937,1289,o),
(1004,1158,o),
(1004,1072,q),
(1004,997,o),
(960,886,o),
(900,810,o),
(841,769,o),
(826,760,q),
(863,746,o),
(949,686,o),
(1024,596,o),
(1075,472,o),
(1075,393,q),
(1075,297,o),
(1004,138,o),
(877,28,o),
(709,-33,o),
(613,-33,q),
(560,-33,o),
(470,-18,o),
(375,11,o),
(265,53,o),
(193,81,q)
);
}
);
width = 1381;
}
);
unicode = 51;
},
{
glyphname = four;
layers = (
{
layerId = "55B2AD78-00C4-470B-8999-F57615B8BFC4";
shapes = (
{
closed = 1;
nodes = (
(1105,446,l),
(1105,336,l),
(898,336,l),
(898,108,l),
(1105,108,l),
(1105,0,l),
(477,0,l),
(477,108,l),
(787,108,l),
(787,336,l),
(171,336,l),
(171,470,l),
(741,1430,l),
(898,1430,l),
(898,446,l)
);
},
{
closed = 1;
nodes = (
(787,1296,l),
(782,1296,l),
(283,446,l),
(787,446,l)
);
}
);
width = 1381;
}
);
unicode = 52;
},
{
glyphname = five;
layers = (
{
layerId = "55B2AD78-00C4-470B-8999-F57615B8BFC4";
shapes = (
{
closed = 1;
nodes = (
(1059,1285,l),
(393,1285,l),
(393,819,l),
(446,843,o),
(580,883,o),
(672,883,q),
(776,883,o),
(944,813,o),
(1061,690,o),
(1125,525,o),
(1125,433,q),
(1125,364,o),
(1080,200,o),
(967,62,o),
(780,-33,o),
(642,-33,q),
(520,-33,o),
(325,26,o),
(209,71,q),
(251,175,l),
(279,163,o),
(359,132,o),
(459,103,o),
(573,83,o),
(633,83,q),
(727,83,o),
(865,136,o),
(958,230,o),
(1001,354,o),
(1001,428,q),
(1001,497,o),
(955,624,o),
(865,720,o),
(736,776,o),
(654,776,q),
(566,776,o),
(419,718,o),
(347,665,q),
(290,698,l),
(290,1395,l),
(1059,1395,l)
);
}
);
width = 1381;
}
);
unicode = 53;
},
{
glyphname = six;
layers = (
{
layerId = "55B2AD78-00C4-470B-8999-F57615B8BFC4";
shapes = (
{
closed = 1;
nodes = (
(1118,1314,l),
(990,1322,o),
(741,1303,o),
(534,1184,o),
(389,921,o),
(364,683,q),
(369,679,l),
(382,695,o),
(435,755,o),
(518,810,o),
(628,852,o),
(703,852,q),
(792,852,o),
(942,778,o),
(1048,654,o),
(1105,492,o),
(1105,405,q),
(1105,318,o),
(1045,158,o),
(937,39,o),
(787,-33,o),
(698,-33,q),
(628,-33,o),
(465,28,o),
(327,173,o),
(235,415,o),
(235,598,q),
(235,654,o),
(257,870,o),
(343,1112,o),
(518,1331,o),
(670,1386,q),
(695,1395,o),
(767,1413,o),
(870,1427,o),
(1017,1434,o),
(1118,1430,q)
);
},
{
closed = 1;
nodes = (
(371,369,o),
(444,211,o),
(543,119,o),
(654,83,o),
(698,83,q),
(753,83,o),
(854,127,o),
(934,209,o),
(980,329,o),
(980,405,q),
(980,470,o),
(940,591,o),
(868,681,o),
(764,736,o),
(703,736,q),
(683,736,o),
(601,725,o),
(501,677,o),
(400,578,o),
(364,488,q)
);
}
);
width = 1381;
}
);
unicode = 54;
},
{
glyphname = seven;
layers = (
{
layerId = "55B2AD78-00C4-470B-8999-F57615B8BFC4";
shapes = (
{
closed = 1;
nodes = (
(1123,1287,l),
(677,0,l),
(543,0,l),
(1008,1287,l),
(332,1287,l),
(332,1075,l),
(219,1075,l),
(219,1395,l),
(1123,1395,l)
);
}
);
width = 1381;
}
);
unicode = 55;
},
{
glyphname = eight;
layers = (
{
layerId = "55B2AD78-00C4-470B-8999-F57615B8BFC4";
shapes = (
{
closed = 1;
nodes = (
(456,723,o),
(384,778,o),
(320,863,o),
(272,978,o),
(272,1052,q),
(272,1131,o),
(336,1266,o),
(448,1370,o),
(601,1430,o),
(690,1430,q),
(780,1430,o),
(932,1370,o),
(1045,1266,o),
(1109,1131,o),
(1109,1052,q),
(1109,960,o),
(1010,771,o),
(903,711,q),
(964,683,o),
(1052,601,o),
(1109,507,o),
(1135,407,o),
(1135,364,q),
(1135,299,o),
(1082,158,o),
(971,44,o),
(804,-33,o),
(690,-33,q),
(575,-33,o),
(410,44,o),
(299,158,o),
(246,299,o),
(246,364,q),
(246,472,o),
(375,665,o),
(479,711,q)
);
},
{
closed = 1;
nodes = (
(610,1322,o),
(497,1268,o),
(428,1186,o),
(396,1091,o),
(396,1050,q),
(396,997,o),
(437,896,o),
(514,815,o),
(624,764,o),
(690,764,q),
(746,764,o),
(852,804,o),
(934,879,o),
(986,982,o),
(986,1050,q),
(986,1118,o),
(932,1220,o),
(850,1287,o),
(744,1322,o),
(690,1322,q)
);
},
{
closed = 1;
nodes = (
(610,656,o),
(490,604,o),
(410,518,o),
(371,415,o),
(371,364,q),
(371,306,o),
(419,202,o),
(507,123,o),
(622,76,o),
(690,76,q),
(760,76,o),
(874,123,o),
(962,202,o),
(1010,306,o),
(1010,364,q),
(1010,415,o),
(969,520,o),
(889,604,o),
(769,656,o),
(690,656,q)
);
}
);
width = 1381;
}
);
unicode = 56;
},
{
glyphname = nine;
layers = (
{
layerId = "55B2AD78-00C4-470B-8999-F57615B8BFC4";
shapes = (
{
closed = 1;
nodes = (
(187,83,l),
(318,76,o),
(564,94,o),
(769,214,o),
(914,477,o),
(942,714,q),
(937,718,l),
(923,700,o),
(870,642,o),
(787,587,o),
(674,545,o),
(604,545,q),
(514,545,o),
(364,619,o),
(257,744,o),
(200,905,o),
(200,992,q),
(200,1080,o),
(260,1239,o),
(369,1358,o),
(518,1430,o),
(608,1430,q),
(677,1430,o),
(841,1370,o),
(978,1225,o),
(1070,980,o),
(1070,799,q),
(1070,744,o),
(1048,527,o),
(962,285,o),
(787,66,o),
(635,11,q),
(610,2,o),
(538,-18,o),
(435,-33,o),
(288,-37,o),
(187,-33,q)
);
},
{
closed = 1;
nodes = (
(934,1028,o),
(861,1186,o),
(762,1278,o),
(652,1314,o),
(608,1314,q),
(553,1314,o),
(451,1270,o),
(371,1188,o),
(325,1068,o),
(325,992,q),
(325,925,o),
(366,806,o),
(437,716,o),
(541,661,o),
(604,661,q),
(619,661,o),
(703,670,o),
(804,718,o),
(905,819,o),
(942,909,q)
);
}
);
width = 1381;
}
);
unicode = 57;
},
{
glyphname = colon;
layers = (
{
layerId = "55B2AD78-00C4-470B-8999-F57615B8BFC4";
shapes = (
{
closed = 1;
nodes = (
(720,898,o),
(785,877,o),
(835,835,o),
(868,778,o),
(868,741,q),
(868,705,o),
(835,646,o),
(785,606,o),
(720,584,o),
(690,584,q),
(661,584,o),
(598,606,o),
(545,644,o),
(514,703,o),
(514,741,q),
(514,778,o),
(545,835,o),
(596,877,o),
(659,898,o),
(690,898,q)
);
},
{
closed = 1;
nodes = (
(720,274,o),
(785,253,o),
(835,211,o),
(868,154,o),
(868,117,q),
(868,81,o),
(835,22,o),
(785,-18,o),
(720,-39,o),
(690,-39,q),
(661,-39,o),
(598,-18,o),
(545,20,o),
(514,79,o),
(514,117,q),
(514,154,o),
(545,211,o),
(596,253,o),
(659,274,o),
(690,274,q)
);
}
);
width = 1381;
}
);
unicode = 58;
},
{
glyphname = semicolon;
layers = (
{
layerId = "55B2AD78-00C4-470B-8999-F57615B8BFC4";
shapes = (
{
closed = 1;
nodes = (
(580,-248,l),
(417,-248,l),
(593,308,l),
(831,308,l)
);
},
{
closed = 1;
nodes = (
(720,898,o),
(785,877,o),
(835,835,o),
(868,778,o),
(868,741,q),
(868,705,o),
(835,646,o),
(785,606,o),
(720,584,o),
(690,584,q),
(661,584,o),
(598,606,o),
(545,644,o),
(514,703,o),
(514,741,q),
(514,778,o),
(545,835,o),
(596,877,o),
(659,898,o),
(690,898,q)
);
}
);
width = 1381;
}
);
unicode = 59;
},
{
glyphname = less;
layers = (
{
layerId = "55B2AD78-00C4-470B-8999-F57615B8BFC4";
shapes = (
{
closed = 1;
nodes = (
(1211,1225,l),
(1257,1121,l),
(380,709,l),
(1257,306,l),
(1211,205,l),
(125,709,l)
);
}
);
width = 1381;
}
);
unicode = 60;
},
{
glyphname = equal;
layers = (
{
layerId = "55B2AD78-00C4-470B-8999-F57615B8BFC4";
shapes = (
{
closed = 1;
nodes = (
(1234,850,l),
(147,850,l),
(147,964,l),
(1234,964,l)
);
},
{
closed = 1;
nodes = (
(1234,433,l),
(147,433,l),
(147,547,l),
(1234,547,l)
);
}
);
width = 1381;
}
);
unicode = 61;
},
{
glyphname = greater;
layers = (
{
layerId = "55B2AD78-00C4-470B-8999-F57615B8BFC4";
shapes = (
{
closed = 1;
nodes = (
(171,193,l),
(125,297,l),
(1001,709,l),
(125,1112,l),
(171,1213,l),
(1257,709,l)
);
}
);
width = 1381;
}
);
unicode = 62;
},
{
glyphname = question;
layers = (
{
layerId = "55B2AD78-00C4-470B-8999-F57615B8BFC4";
shapes = (
{
closed = 1;
nodes = (
(277,1236,l),
(336,1257,o),
(430,1287,o),
(516,1307,o),
(601,1316,o),
(650,1316,q),
(760,1316,o),
(925,1252,o),
(1036,1149,o),
(1091,1010,o),
(1091,940,q),
(1091,837,o),
(1004,703,o),
(877,615,o),
(732,564,o),
(674,547,q),
(674,410,l),
(562,410,l),
(562,633,l),
(566,635,o),
(596,642,o),
(608,644,q),
(665,659,o),
(795,698,o),
(900,764,o),
(971,868,o),
(971,946,q),
(971,980,o),
(944,1070,o),
(872,1151,o),
(749,1204,o),
(652,1204,q),
(566,1204,o),
(448,1171,o),
(391,1149,q),
(391,1001,l),
(277,1001,l)
);
},
{
closed = 1;
nodes = (
(679,244,o),
(771,163,o),
(771,103,q),
(771,42,o),
(677,-39,o),
(613,-39,q),
(547,-39,o),
(453,42,o),
(453,103,q),
(453,163,o),
(545,244,o),
(613,244,q)
);
}
);
width = 1381;
}
);
unicode = 63;
},
{
glyphname = at;
layers = (
{
layerId = "55B2AD78-00C4-470B-8999-F57615B8BFC4";
shapes = (
{
closed = 1;
nodes = (
(1227,132,l),
(1225,132,o),
(1215,125,o),
(1213,125,q),
(1096,57,o),
(815,-33,o),
(663,-33,q),
(511,-33,o),
(290,74,o),
(145,248,o),
(74,477,o),
(74,598,q),
(74,736,o),
(158,976,o),
(320,1153,o),
(560,1257,o),
(711,1257,q),
(837,1257,o),
(1054,1181,o),
(1213,1034,o),
(1305,819,o),
(1305,683,q),
(1305,587,o),
(1257,424,o),
(1167,308,o),
(1045,244,o),
(971,244,q),
(946,244,o),
(916,248,o),
(886,265,o),
(847,292,o),
(815,316,q),
(797,329,o),
(789,350,o),
(789,362,q),
(776,345,o),
(736,303,o),
(681,265,o),
(613,239,o),
(571,239,q),
(550,239,o),
(488,260,o),
(430,310,o),
(391,402,o),
(391,472,q),
(391,547,o),
(444,711,o),
(536,845,o),
(659,930,o),
(729,930,q),
(787,930,o),
(845,863,o),
(861,837,q),
(881,918,l),
(1001,918,l),
(903,560,l),
(903,550,o),
(879,472,o),
(879,444,q),
(879,419,o),
(932,352,o),
(986,352,q),
(1028,352,o),
(1105,407,o),
(1162,501,o),
(1195,626,o),
(1195,698,q),
(1195,810,o),
(1118,980,o),
(986,1094,o),
(808,1149,o),
(707,1149,q),
(569,1149,o),
(375,1052,o),
(251,898,o),
(193,700,o),
(193,596,q),
(193,505,o),
(244,320,o),
(356,171,o),
(538,76,o),
(670,76,q),
(815,76,o),
(1048,158,o),
(1128,202,q),
(1162,221,l),
(1164,221,o),
(1177,228,o),
(1179,228,q)
);
},
{
closed = 1;
nodes = (
(626,352,o),
(705,424,o),
(764,527,o),
(799,650,o),
(799,700,q),
(799,753,o),
(749,815,o),
(716,815,q),
(677,815,o),
(601,744,o),
(543,637,o),
(509,514,o),
(509,463,q),
(509,446,o),
(516,410,o),
(534,375,o),
(562,352,o),
(582,352,q)
);
}
);
width = 1381;
}
);
unicode = 64;
},
{
glyphname = A;
layers = (
{
layerId = "55B2AD78-00C4-470B-8999-F57615B8BFC4";
shapes = (
{
closed = 1;
nodes = (
(1241,108,l),
(1358,108,l),
(1358,0,l),
(886,0,l),
(886,108,l),
(1121,108,l),
(990,428,l),
(389,428,l),
(260,108,l),
(495,108,l),
(495,0,l),
(22,0,l),
(22,108,l),
(145,108,l),
(589,1188,l),
(260,1188,l),
(260,1296,l),
(755,1296,l)
);
},
{
closed = 1;
nodes = (
(430,529,l),
(951,529,l),
(690,1160,l)
);
}
);
width = 1381;
}
);
unicode = 65;
},
{
glyphname = B;
layers = (
{
layerId = "55B2AD78-00C4-470B-8999-F57615B8BFC4";
shapes = (
{
closed = 1;
nodes = (
(732,1296,l),
(868,1296,o),
(1015,1243,o),
(1112,1155,o),
(1171,1036,o),
(1171,962,q),
(1171,900,o),
(1133,804,o),
(1075,734,o),
(1013,688,o),
(990,677,q),
(1114,640,o),
(1252,479,o),
(1252,354,q),
(1252,257,o),
(1162,103,o),
(1089,64,q),
(1052,44,o),
(982,18,o),
(898,4,o),
(789,0,o),
(711,0,q),
(103,0,l),
(103,108,l),
(294,108,l),
(294,1188,l),
(103,1188,l),
(103,1296,l)
);
},
{
closed = 1;
nodes = (
(410,727,l),
(716,727,l),
(828,727,o),
(962,782,o),
(1032,859,o),
(1052,940,o),
(1052,967,q),
(1052,1050,o),
(964,1140,o),
(852,1181,o),
(746,1188,o),
(727,1188,q),
(410,1188,l)
);
},
{
closed = 1;
nodes = (
(410,108,l),
(707,108,l),
(769,108,o),
(916,115,o),
(1045,161,o),
(1133,260,o),
(1133,354,q),
(1133,426,o),
(1066,527,o),
(951,589,o),
(789,619,o),
(698,619,q),
(410,619,l)
);
}
);
width = 1381;
}
);
unicode = 66;
},
{
glyphname = C;
layers = (
{
layerId = "55B2AD78-00C4-470B-8999-F57615B8BFC4";
shapes = (
{
closed = 1;
nodes = (
(1368,228,l),
(1270,136,o),
(1087,30,o),
(927,-26,o),
(804,-39,o),
(769,-39,q),
(617,-39,o),
(384,74,o),
(228,268,o),
(147,520,o),
(147,663,q),
(147,813,o),
(242,1061,o),
(407,1239,o),
(633,1335,o),
(764,1335,q),
(833,1335,o),
(937,1309,o),
(1010,1276,o),
(1052,1243,o),
(1059,1236,q),
(1082,1217,o),
(1094,1211,o),
(1098,1211,q),
(1105,1211,o),
(1116,1234,o),
(1123,1268,o),
(1131,1305,o),
(1133,1322,q),
(1217,1322,l),
(1213,1177,o),
(1230,973,o),
(1241,881,q),
(1133,863,l),
(1125,903,o),
(1096,1024,o),
(1057,1085,q),
(1024,1133,o),
(886,1220,o),
(760,1220,q),
(644,1220,o),
(465,1133,o),
(338,980,o),
(272,778,o),
(272,665,q),
(272,578,o),
(316,373,o),
(428,196,o),
(619,76,o),
(769,76,q),
(925,76,o),
(1179,211,o),
(1291,310,q)
);
}
);
width = 1381;
}
);
unicode = 67;
},
{
glyphname = D;
layers = (
{
layerId = "55B2AD78-00C4-470B-8999-F57615B8BFC4";
shapes = (
{
closed = 1;
nodes = (
(654,1296,l),
(729,1296,o),
(861,1285,o),
(973,1250,o),
(1077,1181,o),
(1125,1123,q),
(1177,1061,o),
(1234,927,o),
(1261,804,o),
(1268,703,o),
(1268,672,q),
(1268,569,o),
(1236,400,o),
(1184,270,o),
(1114,169,o),
(1077,134,q),
(1024,83,o),
(900,30,o),
(780,4,o),
(677,0,o),
(644,0,q),
(79,0,l),
(79,108,l),
(260,108,l),
(260,1188,l),
(79,1188,l),
(79,1296,l)
);
},
{
closed = 1;
nodes = (
(375,108,l),
(644,108,l),
(674,108,o),
(758,110,o),
(852,132,o),
(949,175,o),
(990,217,q),
(1052,279,o),
(1144,507,o),
(1144,665,q),
(1142,773,o),
(1103,925,o),
(1048,1032,o),
(986,1096,o),
(960,1116,q),
(900,1162,o),
(755,1188,o),
(656,1188,q),
(375,1188,l)
);
}
);
width = 1381;
}
);
unicode = 68;
},
{
glyphname = E;
layers = (
{
layerId = "55B2AD78-00C4-470B-8999-F57615B8BFC4";
shapes = (
{
closed = 1;
nodes = (
(1234,872,l),
(1129,872,l),
(1105,1188,l),
(442,1188,l),
(442,738,l),
(815,738,l),
(815,907,l),
(921,907,l),
(921,465,l),
(815,465,l),
(815,631,l),
(442,631,l),
(442,108,l),
(1129,108,l),
(1140,424,l),
(1245,424,l),
(1245,0,l),
(132,0,l),
(132,108,l),
(327,108,l),
(327,1188,l),
(132,1188,l),
(132,1296,l),
(1225,1296,l)
);
}
);
width = 1381;
}
);
unicode = 69;
},
{
glyphname = F;
layers = (
{
layerId = "55B2AD78-00C4-470B-8999-F57615B8BFC4";
shapes = (
{
closed = 1;
nodes = (
(1257,881,l),
(1153,881,l),
(1125,1188,l),
(468,1188,l),
(468,738,l),
(841,738,l),
(841,907,l),
(946,907,l),
(946,465,l),
(841,465,l),
(841,631,l),
(468,631,l),
(468,108,l),
(767,108,l),
(767,0,l),
(165,0,l),
(165,108,l),
(352,108,l),
(352,1188,l),
(165,1188,l),
(165,1296,l),
(1245,1296,l)
);
}
);
width = 1381;
}
);
unicode = 70;
},
{
glyphname = G;
layers = (
{
layerId = "55B2AD78-00C4-470B-8999-F57615B8BFC4";
shapes = (
{
closed = 1;
nodes = (
(1202,1322,l),
(1199,1314,o),
(1197,1282,o),
(1197,1278,q),
(1197,1268,o),
(1195,1225,o),
(1190,1169,o),
(1188,1114,o),
(1188,1091,q),
(1188,1034,o),
(1197,923,o),
(1202,881,q),
(1103,863,l),
(1096,903,o),
(1066,1024,o),
(986,1137,o),
(841,1220,o),
(718,1220,q),
(617,1220,o),
(442,1135,o),
(310,982,o),
(235,771,o),
(235,644,q),
(235,527,o),
(297,320,o),
(426,165,o),
(619,76,o),
(751,76,q),
(808,76,o),
(967,103,o),
(1103,149,q),
(1103,461,l),
(762,461,l),
(762,569,l),
(1331,569,l),
(1331,461,l),
(1220,461,l),
(1220,74,l),
(960,-39,o),
(749,-39,q),
(571,-39,o),
(327,88,o),
(178,288,o),
(110,527,o),
(110,642,q),
(110,776,o),
(191,1024,o),
(347,1217,o),
(575,1335,o),
(723,1335,q),
(806,1335,o),
(944,1289,o),
(1010,1236,q),
(1028,1217,o),
(1048,1208,o),
(1057,1208,q),
(1075,1208,o),
(1082,1245,o),
(1091,1322,q)
);
}
);
width = 1381;
}
);
unicode = 71;
},
{
glyphname = H;
layers = (
{
layerId = "55B2AD78-00C4-470B-8999-F57615B8BFC4";
shapes = (
{
closed = 1;
nodes = (
(550,1188,l),
(378,1188,l),
(378,723,l),
(1004,723,l),
(1004,1188,l),
(831,1188,l),
(831,1296,l),
(1294,1296,l),
(1294,1188,l),
(1118,1188,l),
(1118,108,l),
(1294,108,l),
(1294,0,l),
(831,0,l),
(831,108,l),
(1004,108,l),
(1004,615,l),
(378,615,l),
(378,108,l),
(550,108,l),
(550,0,l),
(90,0,l),
(90,108,l),
(262,108,l),
(262,1188,l),
(90,1188,l),
(90,1296,l),
(550,1296,l)
);
}
);
width = 1381;
}
);
unicode = 72;
},
{
glyphname = I;
layers = (
{
layerId = "55B2AD78-00C4-470B-8999-F57615B8BFC4";
shapes = (
{
closed = 1;
nodes = (
(1151,1188,l),
(749,1188,l),
(749,108,l),
(1151,108,l),
(1151,0,l),
(230,0,l),
(230,108,l),
(633,108,l),
(633,1188,l),
(230,1188,l),
(230,1296,l),
(1151,1296,l)
);
}
);
width = 1381;
}
);
unicode = 73;
},
{
glyphname = J;
layers = (
{
layerId = "55B2AD78-00C4-470B-8999-F57615B8BFC4";
shapes = (
{
closed = 1;
nodes = (
(1333,1188,l),
(1041,1188,l),
(1041,470,l),
(1041,373,o),
(1019,180,o),
(973,108,q),
(946,69,o),
(868,11,o),
(785,-22,o),
(700,-39,o),
(663,-39,q),
(525,-39,o),
(297,46,o),
(200,90,q),
(156,108,l),
(136,606,l),
(248,606,l),
(257,382,l),
(260,294,o),
(297,189,o),
(366,147,q),
(433,106,o),
(578,76,o),
(637,76,q),
(744,76,o),
(861,147,o),
(916,260,o),
(925,400,o),
(925,470,q),
(925,1188,l),
(472,1188,l),
(472,1296,l),
(1333,1296,l)
);
}
);
width = 1381;
}
);
unicode = 74;
},
{
glyphname = K;
layers = (
{
layerId = "55B2AD78-00C4-470B-8999-F57615B8BFC4";
shapes = (
{
closed = 1;
nodes = (
(642,1188,l),
(446,1188,l),
(446,624,l),
(1026,1188,l),
(837,1188,l),
(837,1296,l),
(1287,1296,l),
(1287,1188,l),
(1184,1188,l),
(683,703,l),
(727,679,o),
(831,606,o),
(946,472,o),
(1072,265,o),
(1142,108,q),
(1353,108,l),
(1353,0,l),
(1059,0,l),
(1022,97,o),
(934,270,o),
(909,310,q),
(843,426,o),
(707,573,o),
(606,624,q),
(446,472,l),
(446,108,l),
(642,108,l),
(642,0,l),
(138,0,l),
(138,108,l),
(332,108,l),
(332,1188,l),
(138,1188,l),
(138,1296,l),
(642,1296,l)
);
}
);
width = 1381;
}
);
unicode = 75;
},
{
glyphname = L;
layers = (
{
layerId = "55B2AD78-00C4-470B-8999-F57615B8BFC4";
shapes = (
{
closed = 1;
nodes = (
(764,1188,l),
(481,1188,l),
(481,108,l),
(1133,108,l),
(1164,573,l),
(1273,573,l),
(1248,0,l),
(136,0,l),
(136,108,l),
(366,108,l),
(366,1188,l),
(136,1188,l),
(136,1296,l),
(764,1296,l)
);
}
);
width = 1381;
}
);
unicode = 76;
},
{
glyphname = M;
layers = (
{
layerId = "55B2AD78-00C4-470B-8999-F57615B8BFC4";
shapes = (
{
closed = 1;
nodes = (
(665,516,l),
(707,516,l),
(992,1296,l),
(1362,1296,l),
(1362,1188,l),
(1199,1188,l),
(1239,108,l),
(1379,108,l),
(1379,0,l),
(891,0,l),
(891,108,l),
(1137,108,l),
(1103,1188,l),
(1061,1188,l),
(738,332,l),
(619,332,l),
(320,1188,l),
(279,1188,l),
(244,108,l),
(490,108,l),
(490,0,l),
(2,0,l),
(2,108,l),
(143,108,l),
(182,1188,l),
(18,1188,l),
(18,1296,l),
(402,1296,l)
);
}
);
width = 1381;
}
);
unicode = 77;
},
{
glyphname = N;
layers = (
{
layerId = "55B2AD78-00C4-470B-8999-F57615B8BFC4";
shapes = (
{
closed = 1;
nodes = (
(1063,97,l),
(1105,97,l),
(1105,1188,l),
(847,1188,l),
(847,1296,l),
(1360,1296,l),
(1360,1188,l),
(1211,1188,l),
(1211,-30,l),
(1006,-30,l),
(389,1188,l),
(350,1188,l),
(350,108,l),
(610,108,l),
(610,0,l),
(64,0,l),
(64,108,l),
(244,108,l),
(244,1188,l),
(64,1188,l),
(64,1296,l),
(459,1296,l)
);
}
);
width = 1381;
}
);
unicode = 78;
},
{
glyphname = O;
layers = (
{
layerId = "55B2AD78-00C4-470B-8999-F57615B8BFC4";
shapes = (
{
closed = 1;
nodes = (
(99,789,o),
(182,1041,o),
(336,1227,o),
(555,1335,o),
(690,1335,q),
(828,1335,o),
(1048,1225,o),
(1202,1036,o),
(1282,787,o),
(1282,646,q),
(1282,509,o),
(1199,257,o),
(1048,71,o),
(828,-39,o),
(690,-39,q),
(555,-39,o),
(336,69,o),
(182,255,o),
(99,505,o),
(99,646,q)
);
},
{
closed = 1;
nodes = (
(224,545,o),
(283,341,o),
(400,178,o),
(575,76,o),
(690,76,q),
(804,76,o),
(978,175,o),
(1098,336,o),
(1158,541,o),
(1158,650,q),
(1158,758,o),
(1096,964,o),
(976,1123,o),
(804,1220,o),
(690,1220,q),
(571,1220,o),
(396,1116,o),
(281,953,o),
(224,749,o),
(224,650,q)
);
}
);
width = 1381;
}
);
unicode = 79;
},
{
glyphname = P;
layers = (
{
layerId = "55B2AD78-00C4-470B-8999-F57615B8BFC4";
shapes = (
{
closed = 1;
nodes = (
(690,1296,l),
(815,1296,o),
(969,1270,o),
(1032,1236,q),
(1118,1188,o),
(1230,999,o),
(1230,894,q),
(1230,845,o),
(1204,751,o),
(1160,668,o),
(1098,598,o),
(1061,578,q),
(1019,553,o),
(940,525,o),
(837,511,o),
(698,509,o),
(593,509,q),
(465,509,l),
(465,108,l),
(804,108,l),
(804,0,l),
(163,0,l),
(163,108,l),
(350,108,l),
(350,1188,l),
(163,1188,l),
(163,1296,l)
);
},
{
closed = 1;
nodes = (
(465,617,l),
(596,617,l),
(736,617,o),
(949,631,o),
(1008,679,q),
(1041,705,o),
(1105,815,o),
(1105,898,q),
(1105,992,o),
(1013,1118,o),
(967,1142,q),
(946,1153,o),
(900,1169,o),
(837,1181,o),
(753,1188,o),
(690,1188,q),
(465,1188,l)
);
}
);
width = 1381;
}
);
unicode = 80;
},
{
glyphname = Q;
layers = (
{
layerId = "55B2AD78-00C4-470B-8999-F57615B8BFC4";
shapes = (
{
closed = 1;
nodes = (
(1259,-202,l),
(1220,-230,o),
(1107,-294,o),
(1026,-294,q),
(973,-294,o),
(891,-265,o),
(771,-214,o),
(695,-193,o),
(652,-193,q),
(575,-193,o),
(461,-242,o),
(380,-288,q),
(327,-202,l),
(369,-175,o),
(437,-112,o),
(488,-60,o),
(518,-20,o),
(523,-16,q),
(426,13,o),
(270,141,o),
(158,314,o),
(99,527,o),
(99,646,q),
(99,810,o),
(196,1066,o),
(359,1243,o),
(573,1335,o),
(688,1335,q),
(813,1335,o),
(1028,1236,o),
(1190,1054,o),
(1282,797,o),
(1282,637,q),
(1282,520,o),
(1220,279,o),
(1072,81,o),
(831,-42,o),
(652,-39,q),
(642,-51,o),
(633,-60,o),
(615,-79,q),
(613,-83,o),
(608,-88,o),
(610,-83,q),
(606,-83,l),
(606,-88,l),
(617,-88,o),
(637,-85,o),
(656,-85,q),
(698,-85,o),
(799,-106,o),
(859,-132,q),
(900,-147,o),
(949,-165,o),
(980,-178,o),
(1004,-180,o),
(1017,-180,q),
(1075,-180,o),
(1155,-141,o),
(1188,-119,q)
);
},
{
closed = 1;
nodes = (
(224,545,o),
(283,341,o),
(400,178,o),
(575,76,o),
(690,76,q),
(804,76,o),
(978,175,o),
(1098,336,o),
(1158,541,o),
(1158,650,q),
(1158,758,o),
(1096,964,o),
(976,1123,o),
(804,1220,o),
(690,1220,q),
(571,1220,o),
(396,1116,o),
(281,953,o),
(224,749,o),
(224,650,q)
);
}
);
width = 1381;
}
);
unicode = 81;
},
{
glyphname = R;
layers = (
{
layerId = "55B2AD78-00C4-470B-8999-F57615B8BFC4";
shapes = (
{
closed = 1;
nodes = (
(695,1296,l),
(806,1296,o),
(949,1276,o),
(1068,1193,o),
(1149,1034,o),
(1149,949,q),
(1149,898,o),
(1114,782,o),
(1032,681,o),
(896,606,o),
(797,596,q),
(826,564,o),
(912,444,o),
(1001,306,o),
(1091,165,o),
(1125,108,q),
(1329,108,l),
(1329,0,l),
(1041,0,l),
(1013,57,o),
(946,182,o),
(883,290,o),
(831,375,o),
(819,393,q),
(785,446,o),
(734,523,o),
(681,571,o),
(619,593,o),
(573,593,q),
(407,593,l),
(407,108,l),
(613,108,l),
(613,0,l),
(103,0,l),
(103,108,l),
(292,108,l),
(292,1188,l),
(103,1188,l),
(103,1296,l)
);
},
{
closed = 1;
nodes = (
(407,703,l),
(622,703,l),
(668,703,o),
(806,709,o),
(932,755,o),
(1024,859,o),
(1024,955,q),
(1024,1013,o),
(973,1116,o),
(927,1149,q),
(914,1158,o),
(883,1171,o),
(833,1181,o),
(753,1188,o),
(690,1188,q),
(407,1188,l)
);
}
);
width = 1381;
}
);
unicode = 82;
},
{
glyphname = S;
layers = (
{
layerId = "55B2AD78-00C4-470B-8999-F57615B8BFC4";
shapes = (
{
closed = 1;
nodes = (
(1167,1322,l),
(1155,1268,o),
(1146,1199,o),
(1146,1155,q),
(1146,1116,o),
(1155,980,o),
(1167,881,q),
(1063,863,l),
(1059,900,o),
(1032,1019,o),
(992,1080,q),
(978,1100,o),
(934,1149,o),
(865,1190,o),
(769,1220,o),
(700,1220,q),
(610,1220,o),
(479,1167,o),
(393,1087,o),
(352,992,o),
(352,949,q),
(352,868,o),
(430,776,o),
(541,725,o),
(661,707,o),
(703,703,q),
(831,688,o),
(978,659,o),
(1098,580,o),
(1181,451,o),
(1181,352,q),
(1181,251,o),
(1096,103,o),
(962,7,o),
(795,-39,o),
(709,-39,q),
(640,-39,o),
(536,-16,o),
(461,18,o),
(410,53,o),
(393,66,q),
(391,69,o),
(380,76,o),
(375,76,q),
(369,76,o),
(356,62,o),
(352,57,q),
(347,42,o),
(341,11,o),
(332,-46,q),
(228,-46,l),
(239,9,o),
(248,110,o),
(248,136,q),
(248,158,l),
(248,178,o),
(244,239,o),
(237,310,o),
(230,378,o),
(228,402,q),
(332,402,l),
(341,359,o),
(371,248,o),
(410,198,q),
(442,156,o),
(569,76,o),
(692,76,q),
(799,76,o),
(940,127,o),
(1022,205,o),
(1057,299,o),
(1057,343,q),
(1057,419,o),
(990,509,o),
(894,558,o),
(780,575,o),
(736,580,q),
(670,587,o),
(492,615,o),
(336,688,o),
(228,824,o),
(228,940,q),
(228,1017,o),
(297,1160,o),
(419,1270,o),
(587,1335,o),
(686,1335,q),
(749,1335,o),
(845,1312,o),
(914,1282,o),
(960,1250,o),
(971,1241,q),
(999,1220,o),
(1017,1208,o),
(1024,1208,q),
(1041,1208,o),
(1048,1236,o),
(1059,1291,q),
(1061,1303,o),
(1063,1316,o),
(1063,1322,q)
);
}
);
width = 1381;
}
);
unicode = 83;
},
{
glyphname = T;
layers = (
{
layerId = "55B2AD78-00C4-470B-8999-F57615B8BFC4";
shapes = (
{
closed = 1;
nodes = (
(1282,753,l),
(1171,738,l),
(1140,1188,l),
(749,1188,l),
(749,108,l),
(1026,108,l),
(1026,0,l),
(354,0,l),
(354,108,l),
(633,108,l),
(633,1188,l),
(242,1188,l),
(209,738,l),
(99,753,l),
(138,1296,l),
(1243,1296,l)
);
}
);
width = 1381;
}
);
unicode = 84;
},
{
glyphname = U;
layers = (
{
layerId = "55B2AD78-00C4-470B-8999-F57615B8BFC4";
shapes = (
{
closed = 1;
nodes = (
(571,1188,l),
(336,1188,l),
(336,538,l),
(336,468,o),
(347,306,o),
(380,239,q),
(413,171,o),
(555,76,o),
(688,76,q),
(824,76,o),
(969,156,o),
(1001,221,q),
(1036,283,o),
(1048,437,o),
(1048,516,q),
(1048,1188,l),
(813,1188,l),
(813,1296,l),
(1329,1296,l),
(1329,1188,l),
(1162,1188,l),
(1162,516,l),
(1162,428,o),
(1151,306,o),
(1129,217,o),
(1098,154,o),
(1080,129,q),
(1061,101,o),
(992,44,o),
(894,-7,o),
(767,-39,o),
(690,-39,q),
(650,-39,o),
(545,-26,o),
(439,16,o),
(338,85,o),
(299,141,q),
(270,182,o),
(237,288,o),
(224,396,o),
(221,499,o),
(221,538,q),
(221,1188,l),
(55,1188,l),
(55,1296,l),
(571,1296,l)
);
}
);
width = 1381;
}
);
unicode = 85;
},
{
glyphname = V;
layers = (
{
layerId = "55B2AD78-00C4-470B-8999-F57615B8BFC4";
shapes = (
{
closed = 1;
nodes = (
(507,1188,l),
(290,1188,l),
(698,129,l),
(1112,1188,l),
(877,1188,l),
(877,1296,l),
(1368,1296,l),
(1368,1188,l),
(1222,1188,l),
(767,0,l),
(624,0,l),
(173,1188,l),
(13,1188,l),
(13,1296,l),
(507,1296,l)
);
}
);
width = 1381;
}
);
unicode = 86;
},
{
glyphname = W;
layers = (
{
layerId = "55B2AD78-00C4-470B-8999-F57615B8BFC4";
shapes = (
{
closed = 1;
nodes = (
(459,1188,l),
(226,1188,l),
(354,221,l),
(359,221,l),
(656,1059,l),
(734,1059,l),
(1024,221,l),
(1028,221,l),
(1162,1188,l),
(927,1188,l),
(927,1296,l),
(1377,1296,l),
(1377,1188,l),
(1270,1188,l),
(1098,0,l),
(982,0,l),
(690,837,l),
(686,837,l),
(389,0,l),
(274,0,l),
(112,1188,l),
(4,1188,l),
(4,1296,l),
(459,1296,l)
);
}
);
width = 1381;
}
);
unicode = 87;
},
{
glyphname = X;
layers = (
{
layerId = "55B2AD78-00C4-470B-8999-F57615B8BFC4";
shapes = (
{
closed = 1;
nodes = (
(566,1188,l),
(378,1188,l),
(692,767,l),
(1015,1188,l),
(841,1188,l),
(841,1296,l),
(1261,1296,l),
(1261,1188,l),
(1144,1188,l),
(758,681,l),
(1186,108,l),
(1305,108,l),
(1305,0,l),
(841,0,l),
(841,108,l),
(1048,108,l),
(692,596,l),
(323,108,l),
(566,108,l),
(566,0,l),
(76,0,l),
(76,108,l),
(193,108,l),
(628,681,l),
(242,1188,l),
(119,1188,l),
(119,1296,l),
(566,1296,l)
);
}
);
width = 1381;
}
);
unicode = 88;
},
{
glyphname = Y;
layers = (
{
layerId = "55B2AD78-00C4-470B-8999-F57615B8BFC4";
shapes = (
{
closed = 1;
nodes = (
(525,1188,l),
(350,1188,l),
(698,617,l),
(1041,1188,l),
(861,1188,l),
(861,1296,l),
(1307,1296,l),
(1307,1188,l),
(1162,1188,l),
(751,501,l),
(751,108,l),
(1022,108,l),
(1022,0,l),
(362,0,l),
(362,108,l),
(635,108,l),
(635,501,l),
(219,1188,l),
(74,1188,l),
(74,1296,l),
(525,1296,l)
);
}
);
width = 1381;
}
);
unicode = 89;
},
{
glyphname = Z;
layers = (
{
layerId = "55B2AD78-00C4-470B-8999-F57615B8BFC4";
shapes = (
{
closed = 1;
nodes = (
(1135,1202,l),
(332,108,l),
(1080,108,l),
(1080,481,l),
(1188,481,l),
(1188,0,l),
(193,0,l),
(193,108,l),
(988,1188,l),
(318,1188,l),
(318,852,l),
(209,852,l),
(209,1296,l),
(1135,1296,l)
);
}
);
width = 1381;
}
);
unicode = 90;
},
{
glyphname = bracketleft;
layers = (
{
layerId = "55B2AD78-00C4-470B-8999-F57615B8BFC4";
shapes = (
{
closed = 1;
nodes = (
(1116,1390,l),
(826,1390,l),
(826,-101,l),
(1116,-101,l),
(1116,-217,l),
(711,-217,l),
(711,1505,l),
(1116,1505,l)
);
}
);
width = 1381;
}
);
unicode = 91;
},
{
glyphname = backslash;
layers = (
{
layerId = "55B2AD78-00C4-470B-8999-F57615B8BFC4";
shapes = (
{
closed = 1;
nodes = (
(1077,-320,l),
(214,1579,l),
(314,1623,l),
(1177,-274,l)
);
}
);
width = 1381;
}
);
unicode = 92;
},
{
glyphname = bracketright;
layers = (
{
layerId = "55B2AD78-00C4-470B-8999-F57615B8BFC4";
shapes = (
{
closed = 1;
nodes = (
(265,-101,l),
(555,-101,l),
(555,1390,l),
(265,1390,l),
(265,1505,l),
(670,1505,l),
(670,-217,l),
(265,-217,l)
);
}
);
width = 1381;
}
);
unicode = 93;
},
{
glyphname = asciicircum;
layers = (
{
layerId = "55B2AD78-00C4-470B-8999-F57615B8BFC4";
shapes = (
{
closed = 1;
nodes = (
(169,354,l),
(606,1296,l),
(776,1296,l),
(1213,354,l),
(1066,354,l),
(690,1158,l),
(316,354,l)
);
}
);
width = 1381;
}
);
unicode = 94;
},
{
glyphname = underscore;
layers = (
{
layerId = "55B2AD78-00C4-470B-8999-F57615B8BFC4";
shapes = (
{
closed = 1;
nodes = (
(1492,-288,l),
(-110,-288,l),
(-110,-173,l),
(1492,-173,l)
);
}
);
width = 1381;
}
);
unicode = 95;
},
{
glyphname = grave;
layers = (
{
layerId = "55B2AD78-00C4-470B-8999-F57615B8BFC4";
shapes = (
{
closed = 1;
nodes = (
(861,1158,l),
(741,1158,l),
(437,1423,l),
(683,1423,l)
);
}
);
width = 1381;
}
);
unicode = 96;
},
{
glyphname = a;
layers = (
{
layerId = "55B2AD78-00C4-470B-8999-F57615B8BFC4";
shapes = (
{
closed = 1;
nodes = (
(1266,108,l),
(1266,0,l),
(946,0,l),
(946,165,l),
(912,134,o),
(817,62,o),
(707,4,o),
(578,-33,o),
(507,-33,q),
(419,-33,o),
(283,26,o),
(187,117,o),
(136,233,o),
(136,292,q),
(136,338,o),
(182,459,o),
(292,566,o),
(481,640,o),
(624,640,q),
(631,640,o),
(695,637,o),
(785,631,o),
(894,619,o),
(946,610,q),
(946,681,l),
(946,709,o),
(937,792,o),
(886,870,o),
(771,925,o),
(668,925,q),
(606,925,o),
(413,889,o),
(274,828,q),
(230,932,l),
(303,964,o),
(532,1036,o),
(670,1036,q),
(817,1036,o),
(976,951,o),
(1050,833,o),
(1061,716,o),
(1061,681,q),
(1061,108,l)
);
},
{
closed = 1;
nodes = (
(946,505,l),
(907,511,o),
(744,529,o),
(646,529,q),
(505,529,o),
(347,463,o),
(274,378,o),
(260,299,o),
(260,290,q),
(260,246,o),
(299,171,o),
(369,112,o),
(456,79,o),
(505,79,q),
(532,79,o),
(622,92,o),
(736,141,o),
(872,237,o),
(946,320,q)
);
}
);
width = 1381;
}
);
unicode = 97;
},
{
glyphname = b;
layers = (
{
layerId = "55B2AD78-00C4-470B-8999-F57615B8BFC4";
shapes = (
{
closed = 1;
nodes = (
(338,797,l),
(343,797,l),
(415,894,o),
(610,999,o),
(736,999,q),
(843,999,o),
(1032,918,o),
(1171,780,o),
(1252,591,o),
(1252,486,q),
(1252,389,o),
(1179,207,o),
(1045,64,o),
(859,-22,o),
(746,-22,q),
(652,-22,o),
(518,22,o),
(422,85,o),
(359,154,o),
(338,178,q),
(338,0,l),
(39,0,l),
(39,108,l),
(224,108,l),
(224,1331,l),
(11,1320,l),
(11,1427,l),
(338,1448,l)
);
},
{
closed = 1;
nodes = (
(341,410,o),
(402,265,o),
(509,156,o),
(656,92,o),
(744,92,q),
(828,92,o),
(971,156,o),
(1072,268,o),
(1128,410,o),
(1128,488,q),
(1128,566,o),
(1070,711,o),
(967,819,o),
(824,883,o),
(741,883,q),
(656,883,o),
(511,819,o),
(402,711,o),
(341,569,o),
(341,490,q)
);
}
);
width = 1381;
}
);
unicode = 98;
},
{
glyphname = c;
layers = (
{
layerId = "55B2AD78-00C4-470B-8999-F57615B8BFC4";
shapes = (
{
closed = 1;
nodes = (
(1204,1008,l),
(1199,973,o),
(1184,856,o),
(1184,797,q),
(1184,734,o),
(1190,644,q),
(1085,628,l),
(1075,668,l),
(1068,690,o),
(1041,773,o),
(969,852,o),
(835,909,o),
(725,909,q),
(615,909,o),
(448,837,o),
(341,720,o),
(288,573,o),
(288,499,q),
(288,428,o),
(336,281,o),
(439,158,o),
(601,83,o),
(716,83,q),
(841,83,o),
(1077,191,o),
(1204,279,q),
(1263,191,l),
(1227,163,o),
(1114,88,o),
(971,16,o),
(801,-33,o),
(705,-33,q),
(582,-33,o),
(384,51,o),
(242,196,o),
(163,387,o),
(163,497,q),
(163,589,o),
(230,778,o),
(366,930,o),
(573,1024,o),
(714,1024,q),
(780,1024,o),
(949,986,o),
(1052,903,q),
(1059,896,o),
(1061,896,q),
(1070,896,o),
(1082,934,o),
(1085,946,q),
(1089,976,o),
(1098,1019,q)
);
}
);
width = 1381;
}
);
unicode = 99;
},
{
glyphname = d;
layers = (
{
layerId = "55B2AD78-00C4-470B-8999-F57615B8BFC4";
shapes = (
{
closed = 1;
nodes = (
(1142,108,l),
(1338,108,l),
(1338,0,l),
(1026,0,l),
(1026,171,l),
(1022,171,l),
(969,97,o),
(847,18,o),
(734,-18,o),
(650,-22,o),
(633,-22,q),
(525,-22,o),
(338,60,o),
(200,198,o),
(123,384,o),
(123,488,q),
(123,606,o),
(209,795,o),
(354,927,o),
(534,999,o),
(628,999,q),
(738,999,o),
(958,898,o),
(1022,801,q),
(1026,801,l),
(1026,1320,l),
(656,1296,l),
(650,1399,l),
(1142,1443,l)
);
},
{
closed = 1;
nodes = (
(1022,553,o),
(971,692,o),
(874,810,o),
(729,883,o),
(633,883,q),
(558,883,o),
(417,828,o),
(310,725,o),
(246,580,o),
(246,490,q),
(246,402,o),
(308,255,o),
(415,149,o),
(555,92,o),
(633,92,q),
(711,92,o),
(852,152,o),
(960,255,o),
(1022,398,o),
(1022,483,q)
);
}
);
width = 1381;
}
);
unicode = 100;
},
{
glyphname = e;
layers = (
{
layerId = "55B2AD78-00C4-470B-8999-F57615B8BFC4";
shapes = (
{
closed = 1;
nodes = (
(1287,132,l),
(1241,106,o),
(1116,48,o),
(971,0,o),
(810,-33,o),
(729,-33,q),
(589,-33,o),
(380,55,o),
(239,200,o),
(171,391,o),
(171,492,q),
(171,598,o),
(246,792,o),
(387,940,o),
(589,1024,o),
(716,1024,q),
(847,1024,o),
(1043,942,o),
(1173,808,o),
(1239,644,o),
(1239,566,q),
(1239,538,o),
(1234,474,o),
(1234,463,q),
(294,463,l),
(297,417,o),
(334,285,o),
(430,165,o),
(598,79,o),
(732,79,q),
(804,79,o),
(953,112,o),
(1087,161,o),
(1197,214,o),
(1234,233,q)
);
},
{
closed = 1;
nodes = (
(1114,571,l),
(1114,626,o),
(1066,749,o),
(969,850,o),
(819,914,o),
(716,914,q),
(601,914,o),
(446,835,o),
(350,727,o),
(301,610,o),
(294,571,q)
);
}
);
width = 1381;
}
);
unicode = 101;
},
{
glyphname = f;
layers = (
{
layerId = "55B2AD78-00C4-470B-8999-F57615B8BFC4";
shapes = (
{
closed = 1;
nodes = (
(463,1091,l),
(463,1162,o),
(483,1289,o),
(555,1384,o),
(700,1439,o),
(824,1439,q),
(921,1439,o),
(1091,1416,o),
(1164,1402,q),
(1116,1287,l),
(1041,1305,o),
(868,1324,o),
(795,1324,q),
(714,1324,o),
(626,1285,o),
(584,1217,o),
(578,1131,o),
(578,1085,q),
(578,962,l),
(1068,962,l),
(1068,854,l),
(578,854,l),
(578,108,l),
(1068,108,l),
(1068,0,l),
(224,0,l),
(224,108,l),
(463,108,l),
(463,854,l),
(224,854,l),
(224,962,l),
(463,962,l)
);
}
);
width = 1381;
}
);
unicode = 102;
},
{
glyphname = g;
layers = (
{
layerId = "55B2AD78-00C4-470B-8999-F57615B8BFC4";
shapes = (
{
closed = 1;
nodes = (
(1273,881,l),
(1087,881,l),
(1087,69,l),
(1087,-37,o),
(1039,-198,o),
(916,-306,o),
(714,-362,o),
(560,-362,q),
(415,-362,l),
(415,-253,l),
(560,-253,o),
(769,-242,o),
(905,-180,o),
(971,-48,o),
(971,69,q),
(971,202,l),
(967,202,l),
(955,184,o),
(896,125,o),
(804,64,o),
(677,22,o),
(601,22,q),
(495,22,o),
(316,101,o),
(184,237,o),
(108,415,o),
(108,511,q),
(108,617,o),
(191,797,o),
(327,925,o),
(505,999,o),
(601,999,q),
(610,999,o),
(690,995,o),
(799,960,o),
(918,889,o),
(967,822,q),
(971,822,l),
(971,990,l),
(1273,990,l)
);
},
{
closed = 1;
nodes = (
(971,591,o),
(912,732,o),
(810,831,o),
(677,883,o),
(606,883,q),
(532,883,o),
(398,828,o),
(294,732,o),
(233,596,o),
(233,514,q),
(233,433,o),
(292,297,o),
(393,196,o),
(529,138,o),
(606,138,q),
(686,138,o),
(822,200,o),
(918,301,o),
(971,435,o),
(971,507,q)
);
}
);
width = 1381;
}
);
unicode = 103;
},
{
glyphname = h;
layers = (
{
layerId = "55B2AD78-00C4-470B-8999-F57615B8BFC4";
shapes = (
{
closed = 1;
nodes = (
(396,861,l),
(433,889,o),
(520,946,o),
(617,995,o),
(727,1024,o),
(789,1024,q),
(868,1024,o),
(995,969,o),
(1085,868,o),
(1131,727,o),
(1131,644,q),
(1131,108,l),
(1324,108,l),
(1324,0,l),
(819,0,l),
(819,108,l),
(1015,108,l),
(1015,635,l),
(1015,760,o),
(898,909,o),
(795,909,q),
(738,909,o),
(633,877,o),
(529,824,o),
(437,760,o),
(396,725,q),
(396,108,l),
(578,108,l),
(578,0,l),
(88,0,l),
(88,108,l),
(281,108,l),
(281,1331,l),
(66,1312,l),
(57,1421,l),
(396,1448,l)
);
}
);
width = 1381;
}
);
unicode = 104;
},
{
glyphname = i;
layers = (
{
layerId = "55B2AD78-00C4-470B-8999-F57615B8BFC4";
shapes = (
{
closed = 1;
nodes = (
(753,108,l),
(1151,108,l),
(1151,0,l),
(233,0,l),
(233,108,l),
(637,108,l),
(637,881,l),
(299,881,l),
(299,990,l),
(753,990,l)
);
},
{
closed = 1;
nodes = (
(753,1510,l),
(753,1236,l),
(587,1236,l),
(587,1510,l)
);
}
);
width = 1381;
}
);
unicode = 105;
},
{
glyphname = j;
layers = (
{
layerId = "55B2AD78-00C4-470B-8999-F57615B8BFC4";
shapes = (
{
closed = 1;
nodes = (
(898,92,l),
(898,46,o),
(883,-103,o),
(804,-244,o),
(628,-347,o),
(468,-347,q),
(375,-347,o),
(224,-323,o),
(156,-308,q),
(182,-198,l),
(228,-209,o),
(387,-233,o),
(474,-233,q),
(589,-233,o),
(716,-163,o),
(773,-60,o),
(782,60,o),
(782,108,q),
(782,881,l),
(196,881,l),
(196,990,l),
(898,990,l)
);
},
{
closed = 1;
nodes = (
(852,1510,l),
(852,1236,l),
(686,1236,l),
(686,1510,l)
);
}
);
width = 1381;
}
);
unicode = 106;
},
{
glyphname = k;
layers = (
{
layerId = "55B2AD78-00C4-470B-8999-F57615B8BFC4";
shapes = (
{
closed = 1;
nodes = (
(426,550,l),
(856,877,l),
(856,881,l),
(727,881,l),
(727,990,l),
(1208,990,l),
(1208,881,l),
(1028,881,l),
(642,584,l),
(711,523,o),
(850,387,o),
(971,260,o),
(1070,147,o),
(1103,108,q),
(1296,108,l),
(1296,0,l),
(817,0,l),
(817,108,l),
(964,108,l),
(930,149,o),
(856,230,o),
(760,325,o),
(637,442,o),
(555,520,q),
(426,422,l),
(426,0,l),
(119,0,l),
(119,108,l),
(310,108,l),
(310,1329,l),
(92,1309,l),
(83,1418,l),
(426,1448,l)
);
}
);
width = 1381;
}
);
unicode = 107;
},
{
glyphname = l;
layers = (
{
layerId = "55B2AD78-00C4-470B-8999-F57615B8BFC4";
shapes = (
{
closed = 1;
nodes = (
(749,108,l),
(1149,108,l),
(1149,0,l),
(233,0,l),
(233,108,l),
(633,108,l),
(633,1296,l),
(257,1268,l),
(246,1375,l),
(749,1406,l)
);
}
);
width = 1381;
}
);
unicode = 108;
},
{
glyphname = m;
layers = (
{
layerId = "55B2AD78-00C4-470B-8999-F57615B8BFC4";
shapes = (
{
closed = 1;
nodes = (
(262,909,l),
(292,934,l),
(294,937,o),
(327,962,o),
(378,992,o),
(448,1015,o),
(490,1015,q),
(564,1015,o),
(688,940,o),
(720,870,q),
(771,930,o),
(903,1015,o),
(982,1015,q),
(1043,1015,o),
(1158,962,o),
(1188,916,q),
(1204,891,o),
(1227,843,o),
(1241,780,o),
(1248,690,o),
(1248,626,q),
(1248,108,l),
(1379,108,l),
(1379,0,l),
(1133,0,l),
(1133,626,l),
(1133,674,o),
(1128,771,o),
(1100,852,o),
(1041,900,o),
(986,900,q),
(937,900,o),
(824,837,o),
(760,749,q),
(760,108,l),
(903,108,l),
(903,0,l),
(644,0,l),
(644,635,l),
(644,672,o),
(640,767,o),
(613,845,o),
(550,900,o),
(492,900,q),
(451,900,o),
(382,872,o),
(327,833,o),
(285,789,o),
(272,771,q),
(272,108,l),
(428,108,l),
(428,0,l),
(0,0,l),
(0,108,l),
(156,108,l),
(156,881,l),
(0,881,l),
(0,990,l),
(262,990,l)
);
}
);
width = 1381;
}
);
unicode = 109;
},
{
glyphname = n;
layers = (
{
layerId = "55B2AD78-00C4-470B-8999-F57615B8BFC4";
shapes = (
{
closed = 1;
nodes = (
(382,861,l),
(419,889,o),
(507,946,o),
(606,995,o),
(716,1024,o),
(778,1024,q),
(856,1024,o),
(982,969,o),
(1072,868,o),
(1121,727,o),
(1121,644,q),
(1121,108,l),
(1305,108,l),
(1305,0,l),
(808,0,l),
(808,108,l),
(1006,108,l),
(1006,635,l),
(1006,762,o),
(883,909,o),
(780,909,q),
(753,909,o),
(679,898,o),
(582,859,o),
(461,787,o),
(382,725,q),
(382,108,l),
(575,108,l),
(575,0,l),
(79,0,l),
(79,108,l),
(268,108,l),
(268,881,l),
(79,881,l),
(79,990,l),
(382,990,l)
);
}
);
width = 1381;
}
);
unicode = 110;
},
{
glyphname = o;
layers = (
{
layerId = "55B2AD78-00C4-470B-8999-F57615B8BFC4";
shapes = (
{
closed = 1;
nodes = (
(119,606,o),
(193,799,o),
(336,946,o),
(550,1036,o),
(690,1036,q),
(835,1036,o),
(1050,944,o),
(1190,792,o),
(1261,601,o),
(1261,501,q),
(1261,402,o),
(1190,211,o),
(1050,60,o),
(835,-33,o),
(690,-33,q),
(550,-33,o),
(336,57,o),
(193,207,o),
(119,398,o),
(119,501,q)
);
},
{
closed = 1;
nodes = (
(244,422,o),
(301,270,o),
(415,152,o),
(582,83,o),
(690,83,q),
(801,83,o),
(969,154,o),
(1080,272,o),
(1137,422,o),
(1137,501,q),
(1137,580,o),
(1080,732,o),
(969,850,o),
(801,921,o),
(690,921,q),
(582,921,o),
(417,852,o),
(301,734,o),
(244,584,o),
(244,501,q)
);
}
);
width = 1381;
}
);
unicode = 111;
},
{
glyphname = p;
layers = (
{
layerId = "55B2AD78-00C4-470B-8999-F57615B8BFC4";
shapes = (
{
closed = 1;
nodes = (
(347,826,l),
(352,826,l),
(366,847,o),
(424,912,o),
(520,973,o),
(656,1019,o),
(749,1019,q),
(865,1019,o),
(1054,932,o),
(1190,787,o),
(1261,604,o),
(1261,505,q),
(1261,389,o),
(1171,198,o),
(1028,60,o),
(845,-16,o),
(753,-16,q),
(738,-16,o),
(656,-9,o),
(541,28,o),
(413,108,o),
(352,182,q),
(347,182,l),
(347,-253,l),
(690,-253,l),
(690,-362,l),
(44,-362,l),
(44,-253,l),
(233,-253,l),
(233,881,l),
(44,881,l),
(44,990,l),
(347,990,l)
);
},
{
closed = 1;
nodes = (
(338,410,o),
(417,255,o),
(536,152,o),
(681,99,o),
(749,99,q),
(826,99,o),
(967,161,o),
(1072,270,o),
(1137,419,o),
(1137,507,q),
(1137,578,o),
(1089,720,o),
(992,833,o),
(847,905,o),
(751,905,q),
(661,905,o),
(509,841,o),
(400,734,o),
(338,589,o),
(338,511,q)
);
}
);
width = 1381;
}
);
unicode = 112;
},
{
glyphname = q;
layers = (
{
layerId = "55B2AD78-00C4-470B-8999-F57615B8BFC4";
shapes = (
{
closed = 1;
nodes = (
(1149,881,l),
(1149,-253,l),
(1338,-253,l),
(1338,-362,l),
(690,-362,l),
(690,-253,l),
(1034,-253,l),
(1034,182,l),
(1028,182,l),
(969,108,o),
(841,28,o),
(725,-9,o),
(642,-16,o),
(628,-16,q),
(534,-16,o),
(352,60,o),
(209,198,o),
(119,389,o),
(119,505,q),
(119,604,o),
(191,787,o),
(327,932,o),
(516,1019,o),
(633,1019,q),
(725,1019,o),
(861,973,o),
(958,912,o),
(1015,847,o),
(1028,826,q),
(1034,826,l),
(1034,990,l),
(1338,990,l),
(1338,881,l)
);
},
{
closed = 1;
nodes = (
(1043,589,o),
(980,734,o),
(872,841,o),
(720,905,o),
(631,905,q),
(534,905,o),
(389,833,o),
(292,720,o),
(244,578,o),
(244,507,q),
(244,419,o),
(306,270,o),
(415,161,o),
(555,99,o),
(633,99,q),
(700,99,o),
(845,152,o),
(964,255,o),
(1043,410,o),
(1043,511,q)
);
}
);
width = 1381;
}
);
unicode = 113;
},
{
glyphname = r;
layers = (
{
layerId = "55B2AD78-00C4-470B-8999-F57615B8BFC4";
shapes = (
{
closed = 1;
nodes = (
(573,760,l),
(613,799,o),
(709,891,o),
(826,969,o),
(967,1022,o),
(1050,1022,q),
(1103,1022,o),
(1184,999,o),
(1245,962,o),
(1289,918,o),
(1307,896,q),
(1186,806,l),
(1184,808,o),
(1177,817,o),
(1177,822,q),
(1167,835,o),
(1146,865,o),
(1114,891,o),
(1066,907,o),
(1032,907,q),
(955,907,o),
(815,841,o),
(698,746,o),
(604,644,o),
(573,613,q),
(573,108,l),
(1010,108,l),
(1010,0,l),
(173,0,l),
(173,108,l),
(459,108,l),
(459,881,l),
(191,881,l),
(191,990,l),
(573,990,l)
);
}
);
width = 1381;
}
);
unicode = 114;
},
{
glyphname = s;
layers = (
{
layerId = "55B2AD78-00C4-470B-8999-F57615B8BFC4";
shapes = (
{
closed = 1;
nodes = (
(1109,1019,l),
(1103,982,o),
(1089,889,o),
(1089,822,q),
(1089,773,o),
(1096,707,o),
(1100,677,q),
(999,665,l),
(992,700,o),
(967,782,o),
(896,854,o),
(758,905,o),
(637,905,q),
(499,905,o),
(352,806,o),
(352,734,q),
(352,672,o),
(424,601,o),
(553,562,o),
(725,547,o),
(826,543,q),
(847,543,o),
(955,529,o),
(1070,479,o),
(1160,375,o),
(1160,285,q),
(1160,202,o),
(1080,81,o),
(951,2,o),
(797,-35,o),
(720,-35,q),
(659,-35,o),
(553,-13,o),
(465,18,o),
(402,51,o),
(382,62,q),
(382,62,o),
(378,64,q),
(375,66,o),
(371,66,q),
(354,66,o),
(336,9,o),
(325,-30,q),
(224,-30,l),
(228,0,o),
(237,57,o),
(237,115,q),
(237,189,o),
(228,303,o),
(224,343,q),
(325,354,l),
(329,325,o),
(356,233,o),
(433,145,o),
(575,81,o),
(695,81,q),
(729,81,o),
(845,94,o),
(955,136,o),
(1036,214,o),
(1036,281,q),
(1036,332,o),
(988,391,o),
(900,422,o),
(778,430,o),
(707,433,q),
(661,435,o),
(499,451,o),
(343,509,o),
(228,626,o),
(228,729,q),
(228,792,o),
(288,898,o),
(393,976,o),
(545,1019,o),
(635,1019,q),
(738,1019,o),
(868,971,o),
(900,953,q),
(905,949,o),
(937,932,o),
(951,932,q),
(969,932,o),
(988,976,o),
(992,988,q),
(997,1010,o),
(1001,1024,o),
(1006,1036,q)
);
}
);
width = 1381;
}
);
unicode = 115;
},
{
glyphname = t;
layers = (
{
layerId = "55B2AD78-00C4-470B-8999-F57615B8BFC4";
shapes = (
{
closed = 1;
nodes = (
(514,958,l),
(1070,958,l),
(1070,850,l),
(514,850,l),
(514,415,l),
(514,350,o),
(520,230,o),
(564,138,o),
(663,83,o),
(753,83,q),
(780,83,o),
(852,90,o),
(953,112,o),
(1096,161,o),
(1197,202,q),
(1239,99,l),
(1128,48,o),
(877,-33,o),
(764,-33,q),
(654,-33,o),
(516,35,o),
(479,71,q),
(419,132,o),
(398,299,o),
(398,415,q),
(398,850,l),
(242,850,l),
(242,958,l),
(398,958,l),
(398,1296,l),
(514,1296,l)
);
}
);
width = 1381;
}
);
unicode = 116;
},
{
glyphname = u;
layers = (
{
layerId = "55B2AD78-00C4-470B-8999-F57615B8BFC4";
shapes = (
{
closed = 1;
nodes = (
(378,380,l),
(378,356,o),
(384,257,o),
(428,158,o),
(520,83,o),
(608,83,q),
(705,83,o),
(881,180,o),
(978,283,q),
(978,881,l),
(780,881,l),
(780,990,l),
(1094,990,l),
(1094,108,l),
(1280,108,l),
(1280,0,l),
(978,0,l),
(978,127,l),
(953,106,o),
(883,51,o),
(795,2,o),
(683,-33,o),
(617,-33,q),
(509,-33,o),
(371,46,o),
(292,165,o),
(262,310,o),
(262,380,q),
(262,881,l),
(74,881,l),
(74,990,l),
(378,990,l)
);
}
);
width = 1381;
}
);
unicode = 117;
},
{
glyphname = v;
layers = (
{
layerId = "55B2AD78-00C4-470B-8999-F57615B8BFC4";
shapes = (
{
closed = 1;
nodes = (
(538,881,l),
(352,881,l),
(698,134,l),
(1048,881,l),
(865,881,l),
(865,990,l),
(1333,990,l),
(1333,881,l),
(1162,881,l),
(746,0,l),
(637,0,l),
(219,881,l),
(48,881,l),
(48,990,l),
(538,990,l)
);
}
);
width = 1381;
}
);
unicode = 118;
},
{
glyphname = w;
layers = (
{
layerId = "55B2AD78-00C4-470B-8999-F57615B8BFC4";
shapes = (
{
closed = 1;
nodes = (
(417,881,l),
(226,881,l),
(428,184,l),
(433,184,l),
(659,810,l),
(738,810,l),
(967,175,l),
(971,175,l),
(1179,881,l),
(986,881,l),
(986,990,l),
(1377,990,l),
(1377,881,l),
(1287,881,l),
(1028,0,l),
(909,0,l),
(690,593,l),
(477,0,l),
(364,0,l),
(103,881,l),
(4,881,l),
(4,990,l),
(417,990,l)
);
}
);
width = 1381;
}
);
unicode = 119;
},
{
glyphname = x;
layers = (
{
layerId = "55B2AD78-00C4-470B-8999-F57615B8BFC4";
shapes = (
{
closed = 1;
nodes = (
(538,881,l),
(398,881,l),
(686,593,l),
(973,881,l),
(841,881,l),
(841,990,l),
(1263,990,l),
(1263,881,l),
(1123,881,l),
(762,518,l),
(1177,108,l),
(1322,108,l),
(1322,0,l),
(854,0,l),
(854,108,l),
(1017,108,l),
(686,444,l),
(352,108,l),
(514,108,l),
(514,0,l),
(60,0,l),
(60,108,l),
(202,108,l),
(608,518,l),
(242,881,l),
(94,881,l),
(94,990,l),
(538,990,l)
);
}
);
width = 1381;
}
);
unicode = 120;
},
{
glyphname = y;
layers = (
{
layerId = "55B2AD78-00C4-470B-8999-F57615B8BFC4";
shapes = (
{
closed = 1;
nodes = (
(486,881,l),
(327,881,l),
(690,182,l),
(1091,881,l),
(934,881,l),
(934,990,l),
(1356,990,l),
(1356,881,l),
(1222,881,l),
(578,-244,l),
(782,-244,l),
(782,-352,l),
(92,-352,l),
(92,-244,l),
(446,-244,l),
(624,62,l),
(196,881,l),
(55,881,l),
(55,990,l),
(486,990,l)
);
}
);
width = 1381;
}
);
unicode = 121;
},
{
glyphname = z;
layers = (
{
layerId = "55B2AD78-00C4-470B-8999-F57615B8BFC4";
shapes = (
{
closed = 1;
nodes = (
(1142,891,l),
(396,108,l),
(1034,108,l),
(1034,320,l),
(1142,320,l),
(1142,0,l),
(239,0,l),
(239,108,l),
(978,881,l),
(371,881,l),
(371,677,l),
(262,677,l),
(262,990,l),
(1142,990,l)
);
}
);
width = 1381;
}
);
unicode = 122;
},
{
glyphname = braceleft;
layers = (
{
layerId = "55B2AD78-00C4-470B-8999-F57615B8BFC4";
shapes = (
{
closed = 1;
nodes = (
(1061,1390,l),
(1019,1390,o),
(927,1384,o),
(852,1349,o),
(801,1280,o),
(801,1217,q),
(801,1181,o),
(810,1105,o),
(828,1032,q),
(847,951,l),
(850,940,o),
(859,877,o),
(859,850,q),
(859,808,o),
(835,744,o),
(799,695,o),
(753,656,o),
(732,640,q),
(753,624,o),
(797,587,o),
(835,538,o),
(859,474,o),
(859,433,q),
(859,405,o),
(850,343,o),
(847,332,q),
(828,251,l),
(810,178,o),
(801,101,o),
(801,62,q),
(801,0,o),
(854,-69,o),
(934,-101,o),
(1024,-108,o),
(1061,-108,q),
(1061,-219,l),
(969,-219,l),
(932,-219,o),
(872,-200,q),
(780,-171,o),
(681,-26,o),
(681,66,q),
(681,83,o),
(686,143,o),
(695,182,q),
(695,196,o),
(711,262,o),
(716,277,q),
(723,314,o),
(736,398,o),
(736,437,q),
(736,483,o),
(688,538,o),
(624,569,o),
(558,580,o),
(541,582,q),
(541,700,l),
(628,709,o),
(736,778,o),
(736,850,q),
(736,870,o),
(732,916,o),
(725,962,o),
(718,997,o),
(716,1006,q),
(707,1054,o),
(692,1114,o),
(686,1155,o),
(681,1188,o),
(681,1208,q),
(681,1324,o),
(782,1443,o),
(914,1496,o),
(1039,1501,o),
(1061,1501,q)
);
}
);
width = 1381;
}
);
unicode = 123;
},
{
glyphname = bar;
layers = (
{
layerId = "55B2AD78-00C4-470B-8999-F57615B8BFC4";
shapes = (
{
closed = 1;
nodes = (
(631,-426,l),
(631,1549,l),
(753,1549,l),
(753,-426,l)
);
}
);
width = 1381;
}
);
unicode = 124;
},
{
glyphname = braceright;
layers = (
{
layerId = "55B2AD78-00C4-470B-8999-F57615B8BFC4";
shapes = (
{
closed = 1;
nodes = (
(320,-108,l),
(362,-108,o),
(453,-101,o),
(529,-66,o),
(580,2,o),
(580,64,q),
(580,101,o),
(571,178,o),
(553,251,q),
(534,332,l),
(532,343,o),
(523,405,o),
(523,433,q),
(523,474,o),
(545,538,o),
(582,587,o),
(628,626,o),
(650,642,q),
(608,672,o),
(523,767,o),
(523,850,q),
(523,877,o),
(532,940,o),
(534,951,q),
(553,1032,l),
(571,1105,o),
(580,1181,o),
(580,1220,q),
(580,1282,o),
(525,1351,o),
(446,1384,o),
(356,1390,o),
(320,1390,q),
(320,1501,l),
(410,1501,l),
(448,1501,o),
(509,1483,q),
(601,1452,o),
(700,1307,o),
(700,1215,q),
(700,1199,o),
(695,1140,o),
(686,1100,q),
(686,1087,o),
(670,1019,o),
(665,1006,q),
(659,969,o),
(644,883,o),
(644,845,q),
(644,799,o),
(692,744,o),
(758,714,o),
(822,703,o),
(841,700,q),
(841,582,l),
(753,573,o),
(644,505,o),
(644,433,q),
(644,413,o),
(650,366,o),
(656,320,o),
(663,285,o),
(665,277,q),
(674,228,o),
(688,169,o),
(695,127,o),
(700,94,o),
(700,74,q),
(700,-42,o),
(598,-163,o),
(468,-214,o),
(343,-219,o),
(320,-219,q)
);
}
);
width = 1381;
}
);
unicode = 125;
},
{
glyphname = asciitilde;
layers = (
{
layerId = "55B2AD78-00C4-470B-8999-F57615B8BFC4";
shapes = (
{
closed = 1;
nodes = (
(1186,804,l),
(1171,778,o),
(1123,705,o),
(1052,635,o),
(960,584,o),
(903,584,q),
(894,584,o),
(868,587,o),
(822,598,o),
(746,624,o),
(686,650,q),
(631,672,o),
(566,700,o),
(525,714,o),
(495,718,o),
(479,718,q),
(410,718,o),
(323,610,o),
(274,527,q),
(198,617,l),
(221,656,o),
(274,738,o),
(341,806,o),
(424,850,o),
(479,850,q),
(529,850,o),
(631,815,o),
(720,776,q),
(767,758,o),
(826,734,o),
(863,720,o),
(889,716,o),
(900,716,q),
(914,716,o),
(955,725,o),
(1008,758,o),
(1066,817,o),
(1096,870,q),
(1096,874,o),
(1105,889,o),
(1107,891,q)
);
}
);
width = 1381;
}
);
unicode = 126;
},
{
glyphname = exclamdown;
layers = (
{
layerId = "55B2AD78-00C4-470B-8999-F57615B8BFC4";
shapes = (
{
closed = 1;
nodes = (
(744,553,l),
(785,-318,l),
(593,-318,l),
(637,553,l)
);
},
{
closed = 1;
nodes = (
(622,753,o),
(532,835,o),
(532,896,q),
(532,955,o),
(624,1036,o),
(690,1036,q),
(758,1036,o),
(850,953,o),
(850,894,q),
(850,833,o),
(758,753,o),
(690,753,q)
);
}
);
width = 1381;
}
);
unicode = 161;
},
{
glyphname = cent;
layers = (
{
layerId = "55B2AD78-00C4-470B-8999-F57615B8BFC4";
shapes = (
{
closed = 1;
nodes = (
(764,314,l),
(815,323,o),
(891,341,o),
(967,369,o),
(1054,415,o),
(1116,453,q),
(1171,359,l),
(1169,359,o),
(1160,352,o),
(1158,352,q),
(1103,316,o),
(1017,268,o),
(932,235,o),
(833,211,o),
(764,200,q),
(764,-132,l),
(652,-132,l),
(652,200,l),
(587,214,o),
(492,244,o),
(422,285,o),
(364,343,o),
(336,382,q),
(301,435,o),
(255,564,o),
(255,646,q),
(255,727,o),
(308,877,o),
(407,997,o),
(555,1080,o),
(652,1096,q),
(652,1408,l),
(764,1408,l),
(764,1096,l),
(819,1091,o),
(905,1063,o),
(962,1034,o),
(997,1004,o),
(1001,999,q),
(1006,997,o),
(1010,990,o),
(1015,990,q),
(1022,990,o),
(1028,1006,o),
(1036,1024,o),
(1036,1034,q),
(1039,1041,o),
(1039,1043,q),
(1041,1054,o),
(1043,1068,o),
(1043,1070,q),
(1151,1059,l),
(1144,1017,o),
(1131,918,o),
(1131,872,q),
(1131,850,o),
(1133,787,o),
(1137,734,q),
(1028,720,l),
(1028,741,o),
(1024,797,o),
(1006,854,o),
(971,912,o),
(942,932,q),
(896,964,o),
(795,990,o),
(764,990,q)
);
},
{
closed = 1;
nodes = (
(652,982,l),
(547,960,o),
(435,856,o),
(384,746,o),
(375,656,o),
(375,650,q),
(375,598,o),
(413,479,o),
(453,426,q),
(499,366,o),
(601,327,o),
(652,316,q)
);
}
);
width = 1381;
}
);
unicode = 162;
},
{
glyphname = sterling;
layers = (
{
layerId = "55B2AD78-00C4-470B-8999-F57615B8BFC4";
shapes = (
{
closed = 1;
nodes = (
(430,780,l),
(396,872,o),
(371,978,o),
(371,1032,q),
(371,1112,o),
(437,1250,o),
(553,1351,o),
(700,1408,o),
(782,1408,q),
(870,1408,o),
(997,1372,o),
(1045,1353,q),
(1050,1351,o),
(1066,1347,o),
(1070,1347,q),
(1075,1347,o),
(1082,1353,o),
(1089,1370,q),
(1193,1370,l),
(1173,1305,o),
(1153,1195,o),
(1149,1112,q),
(1045,1100,l),
(1048,1128,o),
(1050,1167,o),
(1050,1177,q),
(1050,1190,o),
(1039,1230,o),
(1019,1241,q),
(995,1254,o),
(861,1296,o),
(787,1296,q),
(714,1296,o),
(598,1250,o),
(523,1173,o),
(483,1080,o),
(483,1034,q),
(483,1008,o),
(490,964,o),
(505,907,o),
(527,833,o),
(545,780,q),
(1105,780,l),
(1105,672,l),
(578,672,l),
(589,626,o),
(598,553,o),
(598,505,q),
(598,354,o),
(518,165,o),
(477,112,q),
(481,108,l),
(514,125,o),
(591,152,o),
(644,152,q),
(686,152,o),
(760,136,o),
(822,110,q),
(872,92,o),
(927,76,o),
(953,76,q),
(1008,76,o),
(1094,125,o),
(1149,171,q),
(1215,88,l),
(1199,71,o),
(1151,30,o),
(1089,-7,o),
(1008,-33,o),
(960,-33,q),
(927,-33,o),
(854,-18,o),
(799,2,q),
(734,26,o),
(670,44,o),
(633,44,q),
(587,44,o),
(470,9,o),
(373,-46,q),
(297,53,l),
(364,123,o),
(442,257,o),
(481,375,o),
(490,468,o),
(490,495,q),
(490,584,o),
(463,672,q),
(221,672,l),
(221,780,l)
);
}
);
width = 1381;
}
);
unicode = 163;
},
{
glyphname = currency;
layers = (
{
layerId = "55B2AD78-00C4-470B-8999-F57615B8BFC4";
shapes = (
{
closed = 1;
nodes = (
(1128,141,l),
(942,325,l),
(870,268,o),
(727,239,o),
(690,239,q),
(677,239,o),
(624,244,o),
(558,260,o),
(479,294,o),
(439,325,q),
(253,141,l),
(173,219,l),
(362,402,l),
(301,490,o),
(281,615,o),
(281,633,q),
(281,744,o),
(336,863,o),
(362,898,q),
(173,1085,l),
(253,1160,l),
(439,976,l),
(511,1032,o),
(644,1061,o),
(690,1061,q),
(741,1061,o),
(822,1043,o),
(883,1015,o),
(927,986,o),
(942,976,q),
(1128,1160,l),
(1208,1085,l),
(1019,898,l),
(1077,817,o),
(1103,692,o),
(1103,668,q),
(1103,558,o),
(1043,435,o),
(1019,402,q),
(1208,219,l)
);
},
{
closed = 1;
nodes = (
(995,709,o),
(953,817,o),
(872,903,o),
(760,953,o),
(690,953,q),
(619,953,o),
(509,900,o),
(430,815,o),
(389,707,o),
(389,652,q),
(389,591,o),
(430,483,o),
(507,398,o),
(619,347,o),
(688,347,q),
(758,347,o),
(872,398,o),
(951,483,o),
(995,591,o),
(995,652,q)
);
}
);
width = 1381;
}
);
unicode = 164;
},
{
glyphname = yen;
layers = (
{
layerId = "55B2AD78-00C4-470B-8999-F57615B8BFC4";
shapes = (
{
closed = 1;
nodes = (
(1026,108,l),
(1026,0,l),
(369,0,l),
(369,108,l),
(642,108,l),
(642,320,l),
(303,320,l),
(303,428,l),
(642,428,l),
(642,562,l),
(303,562,l),
(303,670,l),
(642,670,l),
(642,700,l),
(214,1257,l),
(74,1257,l),
(74,1365,l),
(527,1365,l),
(527,1257,l),
(352,1257,l),
(698,808,l),
(1036,1257,l),
(861,1257,l),
(861,1365,l),
(1307,1365,l),
(1307,1257,l),
(1169,1257,l),
(753,700,l),
(753,670,l),
(1085,670,l),
(1085,562,l),
(753,562,l),
(753,428,l),
(1085,428,l),
(1085,320,l),
(753,320,l),
(753,108,l)
);
}
);
width = 1381;
}
);
unicode = 165;
},
{
glyphname = brokenbar;
layers = (
{
layerId = "55B2AD78-00C4-470B-8999-F57615B8BFC4";
shapes = (
{
closed = 1;
nodes = (
(631,690,l),
(631,1549,l),
(753,1549,l),
(753,690,l)
);
},
{
closed = 1;
nodes = (
(631,-426,l),
(631,433,l),
(753,433,l),
(753,-426,l)
);
}
);
width = 1381;
}
);
unicode = 166;
},
{
glyphname = section;
layers = (
{
layerId = "55B2AD78-00C4-470B-8999-F57615B8BFC4";
shapes = (
{
closed = 1;
nodes = (
(971,990,l),
(971,1188,l),
(707,1188,l),
(688,1188,o),
(631,1184,o),
(575,1158,o),
(536,1105,o),
(536,1054,q),
(536,1008,o),
(587,942,o),
(619,916,q),
(937,672,l),
(978,640,o),
(1050,580,o),
(1100,518,o),
(1128,446,o),
(1128,402,q),
(1128,375,o),
(1109,306,o),
(1066,242,o),
(992,191,o),
(937,180,q),
(949,161,o),
(980,97,o),
(980,42,q),
(980,-76,o),
(810,-209,o),
(665,-209,q),
(301,-209,l),
(301,123,l),
(410,123,l),
(410,-101,l),
(679,-101,l),
(709,-101,o),
(776,-85,o),
(826,-53,o),
(861,0,o),
(861,39,q),
(861,71,o),
(828,134,o),
(767,180,q),
(459,417,l),
(384,474,o),
(285,582,o),
(285,663,q),
(285,703,o),
(316,780,o),
(366,845,o),
(433,891,o),
(472,898,q),
(433,942,o),
(417,1039,o),
(417,1052,q),
(417,1125,o),
(486,1225,o),
(523,1250,q),
(575,1282,o),
(700,1296,o),
(738,1296,q),
(1080,1296,l),
(1080,990,l)
);
},
{
closed = 1;
nodes = (
(571,810,l),
(509,804,o),
(442,760,o),
(410,711,o),
(405,670,o),
(405,665,q),
(405,635,o),
(446,571,o),
(520,516,q),
(833,274,l),
(889,277,o),
(955,306,o),
(995,345,o),
(1008,389,o),
(1008,402,q),
(1008,424,o),
(997,461,o),
(964,499,o),
(909,547,o),
(865,582,q)
);
}
);
width = 1381;
}
);
unicode = 167;
},
{
glyphname = dieresis;
layers = (
{
layerId = "55B2AD78-00C4-470B-8999-F57615B8BFC4";
shapes = (
{
closed = 1;
nodes = (
(624,1430,l),
(624,1181,l),
(459,1181,l),
(459,1430,l)
);
},
{
closed = 1;
nodes = (
(923,1430,l),
(923,1181,l),
(758,1181,l),
(758,1430,l)
);
}
);
width = 1381;
}
);
unicode = 168;
},
{
glyphname = copyright;
layers = (
{
layerId = "55B2AD78-00C4-470B-8999-F57615B8BFC4";
shapes = (
{
closed = 1;
nodes = (
(925,787,l),
(921,837,o),
(914,907,o),
(903,925,q),
(883,955,o),
(787,995,o),
(727,995,q),
(656,995,o),
(547,944,o),
(474,856,o),
(437,741,o),
(437,677,q),
(437,610,o),
(477,488,o),
(550,396,o),
(654,343,o),
(720,343,q),
(776,343,o),
(854,378,o),
(907,428,o),
(942,483,o),
(953,507,q),
(1008,483,l),
(967,373,o),
(789,272,o),
(688,272,q),
(604,272,o),
(468,336,o),
(371,444,o),
(320,587,o),
(320,668,q),
(320,744,o),
(371,886,o),
(470,995,o),
(619,1061,o),
(718,1061,q),
(776,1061,o),
(930,1032,o),
(990,1010,q),
(990,787,l)
);
},
{
closed = 1;
nodes = (
(828,1335,o),
(1072,1232,o),
(1252,1050,o),
(1358,806,o),
(1358,668,q),
(1358,529,o),
(1252,285,o),
(1072,103,o),
(828,-2,o),
(690,-2,q),
(553,-2,o),
(310,103,o),
(129,285,o),
(22,529,o),
(22,668,q),
(22,808,o),
(129,1052,o),
(310,1232,o),
(555,1335,o),
(690,1335,q)
);
},
{
closed = 1;
nodes = (
(571,1248,o),
(362,1158,o),
(202,999,o),
(110,787,o),
(110,665,q),
(110,545,o),
(202,334,o),
(362,178,o),
(571,85,o),
(690,85,q),
(810,85,o),
(1019,178,o),
(1179,334,o),
(1270,545,o),
(1270,665,q),
(1270,785,o),
(1179,999,o),
(1022,1155,o),
(810,1248,o),
(690,1248,q)
);
}
);
width = 1381;
}
);
unicode = 169;
},
{
glyphname = ordfeminine;
layers = (
{
layerId = "55B2AD78-00C4-470B-8999-F57615B8BFC4";
shapes = (
{
closed = 1;
nodes = (
(439,1278,l),
(520,1309,o),
(622,1335,o),
(674,1335,q),
(883,1335,o),
(883,1151,q),
(883,879,l),
(982,879,l),
(982,797,l),
(797,797,l),
(797,861,l),
(736,815,o),
(646,780,o),
(593,780,q),
(514,780,o),
(398,879,o),
(398,953,q),
(398,1036,o),
(536,1140,o),
(654,1140,q),
(688,1140,o),
(746,1135,o),
(797,1128,q),
(797,1144,l),
(797,1202,o),
(738,1252,o),
(672,1252,q),
(628,1252,o),
(536,1227,o),
(472,1199,q)
);
},
{
closed = 1;
nodes = (
(797,1045,l),
(749,1052,o),
(692,1057,o),
(665,1057,q),
(584,1057,o),
(486,1001,o),
(486,953,q),
(486,916,o),
(550,863,o),
(593,863,q),
(700,863,o),
(797,973,q)
);
},
{
closed = 1;
nodes = (
(971,613,l),
(410,613,l),
(410,695,l),
(971,695,l)
);
}
);
width = 1381;
}
);
unicode = 170;
},
{
glyphname = guillemotleft;
layers = (
{
layerId = "55B2AD78-00C4-470B-8999-F57615B8BFC4";
shapes = (
{
closed = 1;
nodes = (
(463,1324,l),
(681,1324,l),
(343,804,l),
(617,384,l),
(626,371,o),
(672,329,o),
(692,327,q),
(692,277,l),
(665,277,o),
(593,246,o),
(525,202,o),
(470,156,o),
(461,141,q),
(323,316,l),
(338,343,l),
(359,314,l),
(424,380,l),
(129,810,l)
);
},
{
closed = 1;
nodes = (
(847,1322,l),
(1063,1322,l),
(727,801,l),
(999,382,l),
(1008,369,o),
(1054,327,o),
(1075,325,q),
(1075,274,l),
(1048,274,o),
(976,244,o),
(909,200,o),
(854,154,o),
(845,138,q),
(727,294,l),
(810,378,l),
(511,806,l)
);
}
);
width = 1227;
}
);
unicode = 171;
},
{
glyphname = logicalnot;
layers = (
{
layerId = "55B2AD78-00C4-470B-8999-F57615B8BFC4";
shapes = (
{
closed = 1;
nodes = (
(1195,389,l),
(1080,389,l),
(1080,894,l),
(207,894,l),
(207,1008,l),
(1195,1008,l)
);
}
);
width = 1381;
}
);
unicode = 172;
},
{
glyphname = registered;
layers = (
{
layerId = "55B2AD78-00C4-470B-8999-F57615B8BFC4";
shapes = (
{
closed = 1;
nodes = (
(686,1072,l),
(705,1072,o),
(792,1066,o),
(883,1028,o),
(953,949,o),
(953,877,q),
(953,865,o),
(946,815,o),
(914,753,o),
(843,695,o),
(778,679,q),
(815,654,o),
(865,558,o),
(903,474,q),
(921,433,o),
(946,389,o),
(973,369,o),
(1010,366,o),
(1041,366,q),
(1041,310,l),
(949,310,l),
(881,310,o),
(819,405,o),
(789,486,q),
(767,547,o),
(734,615,o),
(698,650,o),
(650,656,o),
(608,656,q),
(566,656,l),
(566,426,l),
(566,396,o),
(571,380,o),
(582,373,q),
(587,371,o),
(642,366,o),
(661,364,q),
(661,310,l),
(369,310,l),
(369,364,l),
(371,366,o),
(384,366,q),
(398,366,o),
(400,369,q),
(442,373,o),
(463,387,o),
(463,426,q),
(463,962,l),
(463,990,o),
(461,1004,o),
(448,1008,q),
(446,1010,o),
(433,1010,q),
(428,1010,o),
(393,1013,o),
(369,1015,q),
(369,1072,l)
);
},
{
closed = 1;
nodes = (
(619,711,l),
(723,711,o),
(850,780,o),
(850,870,q),
(850,923,o),
(808,982,o),
(749,1010,o),
(683,1017,o),
(661,1017,q),
(596,1017,o),
(566,1004,o),
(566,969,q),
(566,711,l)
);
},
{
closed = 1;
nodes = (
(828,1335,o),
(1070,1232,o),
(1252,1052,o),
(1358,808,o),
(1358,668,q),
(1358,529,o),
(1252,288,o),
(1072,106,o),
(828,0,o),
(690,0,q),
(553,0,o),
(308,106,o),
(129,288,o),
(22,529,o),
(22,668,q),
(22,808,o),
(129,1052,o),
(310,1232,o),
(555,1335,o),
(690,1335,q)
);
},
{
closed = 1;
nodes = (
(571,1248,o),
(362,1158,o),
(202,999,o),
(110,787,o),
(110,668,q),
(110,547,o),
(200,338,o),
(359,180,o),
(569,88,o),
(690,88,q),
(810,88,o),
(1022,180,o),
(1181,338,o),
(1270,547,o),
(1270,668,q),
(1270,789,o),
(1179,1001,o),
(1019,1158,o),
(808,1248,o),
(690,1248,q)
);
}
);
width = 1381;
}
);
unicode = 174;
},
{
glyphname = overscore;
layers = (
{
layerId = "55B2AD78-00C4-470B-8999-F57615B8BFC4";
shapes = (
{
closed = 1;
nodes = (
(1082,1248,l),
(299,1248,l),
(299,1362,l),
(1082,1362,l)
);
}
);
width = 1381;
}
);
unicode = 175;
},
{
glyphname = degree;
layers = (
{
layerId = "55B2AD78-00C4-470B-8999-F57615B8BFC4";
shapes = (
{
closed = 1;
nodes = (
(338,1149,o),
(393,1278,o),
(488,1375,o),
(617,1430,o),
(690,1430,q),
(767,1430,o),
(896,1372,o),
(990,1276,o),
(1043,1146,o),
(1043,1075,q),
(1043,1004,o),
(988,877,o),
(894,780,o),
(764,725,o),
(690,725,q),
(617,725,o),
(488,780,o),
(393,874,o),
(338,1001,o),
(338,1075,q)
);
},
{
closed = 1;
nodes = (
(465,980,o),
(593,852,o),
(690,852,q),
(738,852,o),
(822,886,o),
(881,949,o),
(916,1028,o),
(916,1077,q),
(916,1173,o),
(787,1303,o),
(690,1303,q),
(642,1303,o),
(562,1268,o),
(499,1208,o),
(465,1125,o),
(465,1077,q)
);
}
);
width = 1381;
}
);
unicode = 176;
},
{
glyphname = plusminus;
layers = (
{
layerId = "55B2AD78-00C4-470B-8999-F57615B8BFC4";
shapes = (
{
closed = 1;
nodes = (
(749,874,l),
(1230,874,l),
(1230,760,l),
(749,760,l),
(749,308,l),
(633,308,l),
(633,760,l),
(152,760,l),
(152,874,l),
(633,874,l),
(633,1326,l),
(749,1326,l)
);
},
{
closed = 1;
nodes = (
(1230,71,l),
(152,71,l),
(152,187,l),
(1230,187,l)
);
}
);
width = 1381;
}
);
unicode = 177;
},
{
glyphname = twosuperior;
layers = (
{
layerId = "55B2AD78-00C4-470B-8999-F57615B8BFC4";
shapes = (
{
closed = 1;
nodes = (
(934,571,l),
(384,571,l),
(384,661,l),
(405,679,l),
(428,700,o),
(497,762,o),
(571,828,o),
(640,891,o),
(663,912,q),
(720,964,o),
(792,1036,o),
(826,1091,o),
(837,1140,o),
(837,1171,q),
(837,1241,o),
(736,1338,o),
(665,1338,q),
(601,1338,o),
(509,1268,o),
(507,1222,q),
(509,1195,l),
(413,1195,l),
(413,1303,l),
(511,1430,o),
(668,1430,q),
(723,1430,o),
(822,1388,o),
(896,1320,o),
(937,1225,o),
(937,1169,q),
(937,1125,o),
(914,1054,o),
(859,973,o),
(760,877,o),
(683,808,q),
(525,663,l),
(845,663,l),
(845,795,l),
(934,795,l)
);
}
);
width = 1381;
}
);
unicode = 178;
},
{
glyphname = threesuperior;
layers = (
{
layerId = "55B2AD78-00C4-470B-8999-F57615B8BFC4";
shapes = (
{
closed = 1;
nodes = (
(398,1333,l),
(483,1388,o),
(587,1430,o),
(644,1430,q),
(749,1430,o),
(886,1305,o),
(886,1208,q),
(886,1103,o),
(799,1028,q),
(927,949,o),
(927,813,q),
(927,695,o),
(769,550,o),
(644,550,q),
(593,550,o),
(505,573,o),
(426,606,q),
(382,624,l),
(419,709,l),
(492,674,o),
(601,642,o),
(650,642,q),
(729,642,o),
(831,738,o),
(831,813,q),
(831,889,o),
(734,969,o),
(644,969,q),
(589,969,l),
(589,1061,l),
(652,1063,o),
(707,1075,o),
(732,1094,q),
(789,1137,o),
(789,1206,q),
(789,1263,o),
(707,1338,o),
(644,1338,q),
(606,1338,o),
(534,1314,o),
(481,1278,q),
(446,1254,l)
);
}
);
width = 1381;
}
);
unicode = 179;
},
{
glyphname = acute;
layers = (
{
layerId = "55B2AD78-00C4-470B-8999-F57615B8BFC4";
shapes = (
{
closed = 1;
nodes = (
(495,1158,l),
(700,1423,l),
(946,1423,l),
(617,1158,l)
);
}
);
width = 1381;
}
);
unicode = 180;
},
{
glyphname = mu;
layers = (
{
layerId = "55B2AD78-00C4-470B-8999-F57615B8BFC4";
shapes = (
{
closed = 1;
nodes = (
(387,448,l),
(387,393,o),
(391,316,o),
(402,257,o),
(424,217,o),
(439,196,q),
(483,138,o),
(613,83,o),
(677,83,q),
(741,83,o),
(883,138,o),
(923,189,q),
(944,217,o),
(969,270,o),
(982,329,o),
(988,402,o),
(988,448,q),
(988,894,l),
(799,894,l),
(799,990,l),
(1103,990,l),
(1103,94,l),
(1294,94,l),
(1294,0,l),
(990,0,l),
(990,123,l),
(986,123,l),
(967,94,l),
(923,35,o),
(762,-33,o),
(681,-33,q),
(640,-33,o),
(562,-11,o),
(495,16,o),
(448,46,o),
(439,57,q),
(419,79,o),
(405,92,o),
(384,108,q),
(384,-343,l),
(272,-343,l),
(272,894,l),
(83,894,l),
(83,990,l),
(387,990,l)
);
}
);
width = 1381;
}
);
unicode = 181;
},
{
glyphname = paragraph;
layers = (
{
layerId = "55B2AD78-00C4-470B-8999-F57615B8BFC4";
shapes = (
{
closed = 1;
nodes = (
(1142,-108,l),
(1142,-178,l),
(874,-178,l),
(874,-108,l),
(918,-108,l),
(918,1227,l),
(729,1227,l),
(729,-108,l),
(773,-108,l),
(773,-178,l),
(483,-178,l),
(483,-108,l),
(626,-108,l),
(626,601,l),
(560,596,o),
(422,624,o),
(306,703,o),
(233,843,o),
(233,953,q),
(233,1080,o),
(310,1220,o),
(433,1285,o),
(582,1296,o),
(656,1296,q),
(1133,1296,l),
(1133,1227,l),
(1022,1227,l),
(1022,-108,l)
);
},
{
closed = 1;
nodes = (
(626,1227,l),
(587,1227,o),
(514,1217,o),
(456,1179,o),
(419,1096,o),
(419,1019,q),
(419,881,l),
(419,868,o),
(428,795,o),
(470,718,o),
(553,663,o),
(626,670,q)
);
}
);
width = 1381;
}
);
unicode = 182;
},
{
glyphname = middot;
layers = (
{
layerId = "55B2AD78-00C4-470B-8999-F57615B8BFC4";
shapes = (
{
closed = 1;
nodes = (
(725,854,o),
(787,831,o),
(837,789,o),
(868,732,o),
(868,698,q),
(868,661,o),
(835,604,o),
(785,562,o),
(720,541,o),
(690,541,q),
(661,541,o),
(598,562,o),
(545,601,o),
(514,659,o),
(514,698,q),
(514,734,o),
(545,792,o),
(596,833,o),
(659,854,o),
(690,854,q)
);
}
);
width = 1381;
}
);
unicode = 183;
},
{
glyphname = cedilla;
layers = (
{
layerId = "55B2AD78-00C4-470B-8999-F57615B8BFC4";
shapes = (
{
closed = 1;
nodes = (
(741,-57,l),
(799,-66,o),
(863,-108,o),
(896,-154,o),
(903,-193,o),
(903,-200,q),
(903,-211,o),
(894,-255,o),
(859,-299,o),
(782,-334,o),
(718,-334,q),
(633,-334,o),
(497,-306,o),
(465,-299,q),
(481,-198,l),
(518,-207,o),
(642,-230,o),
(716,-230,q),
(736,-230,l),
(755,-230,o),
(795,-217,o),
(795,-200,q),
(795,-169,o),
(695,-147,o),
(628,-143,q),
(644,-4,l),
(749,-4,l)
);
}
);
width = 1381;
}
);
unicode = 184;
},
{
glyphname = onesuperior;
layers = (
{
layerId = "55B2AD78-00C4-470B-8999-F57615B8BFC4";
shapes = (
{
closed = 1;
nodes = (
(751,1430,l),
(751,663,l),
(980,663,l),
(980,571,l),
(422,571,l),
(422,663,l),
(656,663,l),
(656,1314,l),
(446,1222,l),
(410,1305,l),
(690,1430,l)
);
}
);
width = 1381;
}
);
unicode = 185;
},
{
glyphname = ordmasculine;
layers = (
{
layerId = "55B2AD78-00C4-470B-8999-F57615B8BFC4";
shapes = (
{
closed = 1;
nodes = (
(396,1181,o),
(560,1335,o),
(690,1335,q),
(822,1335,o),
(986,1181,o),
(986,1057,q),
(986,932,o),
(822,780,o),
(690,780,q),
(560,780,o),
(396,932,o),
(396,1057,q)
);
},
{
closed = 1;
nodes = (
(488,971,o),
(601,863,o),
(690,863,q),
(780,863,o),
(894,971,o),
(894,1059,q),
(894,1144,o),
(780,1252,o),
(690,1252,q),
(601,1252,o),
(488,1144,o),
(488,1059,q)
);
},
{
closed = 1;
nodes = (
(971,613,l),
(410,613,l),
(410,695,l),
(971,695,l)
);
}
);
width = 1381;
}
);
unicode = 186;
},
{
glyphname = guillemotright;
layers = (
{
layerId = "55B2AD78-00C4-470B-8999-F57615B8BFC4";
shapes = (
{
closed = 1;
nodes = (
(773,1324,l),
(555,1324,l),
(894,804,l),
(619,384,l),
(610,371,o),
(564,329,o),
(543,327,q),
(543,277,l),
(571,277,o),
(642,246,o),
(711,202,o),
(764,156,o),
(776,141,q),
(914,316,l),
(898,343,l),
(877,314,l),
(813,380,l),
(1107,810,l)
);
},
{
closed = 1;
nodes = (
(389,1322,l),
(173,1322,l),
(509,801,l),
(237,382,l),
(228,369,o),
(182,327,o),
(161,325,q),
(161,274,l),
(189,274,o),
(260,244,o),
(327,200,o),
(380,154,o),
(391,138,q),
(509,294,l),
(426,378,l),
(725,806,l)
);
}
);
width = 1227;
}
);
unicode = 187;
},
{
glyphname = onequarter;
layers = (
{
layerId = "55B2AD78-00C4-470B-8999-F57615B8BFC4";
shapes = (
{
closed = 1;
nodes = (
(1353,106,l),
(1353,20,l),
(1232,20,l),
(1232,-94,l),
(1353,-94,l),
(1353,-178,l),
(990,-178,l),
(990,-94,l),
(1144,-94,l),
(1144,20,l),
(778,20,l),
(778,112,l),
(1121,681,l),
(1232,681,l),
(1232,106,l)
);
},
{
closed = 1;
nodes = (
(1140,555,l),
(874,106,l),
(1144,106,l),
(1144,555,l)
);
},
{
closed = 1;
nodes = (
(352,1432,l),
(352,661,l),
(527,661,l),
(527,573,l),
(88,573,l),
(88,661,l),
(265,661,l),
(265,1324,l),
(97,1254,l),
(60,1333,l),
(297,1432,l)
);
},
{
closed = 1;
nodes = (
(202,-207,l),
(138,-156,l),
(1312,1457,l),
(1377,1411,l)
);
}
);
width = 1381;
}
);
unicode = 188;
},
{
glyphname = onehalf;
layers = (
{
layerId = "55B2AD78-00C4-470B-8999-F57615B8BFC4";
shapes = (
{
closed = 1;
nodes = (
(336,1432,l),
(336,661,l),
(511,661,l),
(511,573,l),
(71,573,l),
(71,661,l),
(248,661,l),
(248,1324,l),
(81,1254,l),
(44,1333,l),
(283,1432,l)
);
},
{
closed = 1;
nodes = (
(173,-207,l),
(108,-156,l),
(1280,1457,l),
(1347,1411,l)
);
},
{
closed = 1;
nodes = (
(1358,-178,l),
(831,-178,l),
(831,-88,l),
(837,-81,o),
(841,-79,o),
(859,-64,o),
(907,-20,o),
(962,30,q),
(1019,85,o),
(1103,163,o),
(1160,219,o),
(1199,257,o),
(1217,279,q),
(1250,318,o),
(1270,382,o),
(1270,422,q),
(1270,495,o),
(1171,591,o),
(1096,591,q),
(1036,591,o),
(942,525,o),
(942,479,q),
(942,474,o),
(944,463,o),
(944,451,q),
(856,451,l),
(856,555,l),
(955,679,o),
(1100,679,q),
(1155,679,o),
(1252,640,o),
(1322,571,o),
(1360,477,o),
(1360,422,q),
(1360,341,o),
(1266,189,o),
(1142,79,q),
(999,-48,l),
(955,-90,l),
(1280,-90,l),
(1280,42,l),
(1358,42,l)
);
}
);
width = 1381;
}
);
unicode = 189;
},
{
glyphname = threequarters;
layers = (
{
layerId = "55B2AD78-00C4-470B-8999-F57615B8BFC4";
shapes = (
{
closed = 1;
nodes = (
(1155,555,l),
(891,106,l),
(1160,106,l),
(1160,555,l)
);
},
{
closed = 1;
nodes = (
(1370,106,l),
(1370,20,l),
(1248,20,l),
(1248,-94,l),
(1370,-94,l),
(1370,-178,l),
(1006,-178,l),
(1006,-94,l),
(1160,-94,l),
(1160,20,l),
(795,20,l),
(795,112,l),
(1137,681,l),
(1248,681,l),
(1248,106,l)
);
},
{
closed = 1;
nodes = (
(66,1338,l),
(149,1390,o),
(255,1432,o),
(314,1432,q),
(364,1432,o),
(453,1397,o),
(520,1340,o),
(558,1259,o),
(558,1213,q),
(558,1155,o),
(514,1070,o),
(465,1032,q),
(598,955,o),
(598,815,q),
(598,698,o),
(437,555,o),
(314,555,q),
(288,555,o),
(244,560,o),
(193,573,o),
(134,593,o),
(92,610,q),
(51,626,l),
(85,707,l),
(163,670,o),
(268,642,o),
(318,642,q),
(400,642,o),
(507,736,o),
(507,815,q),
(507,894,o),
(410,982,o),
(314,978,q),
(262,976,l),
(262,1061,l),
(323,1063,o),
(380,1075,o),
(405,1094,q),
(465,1135,o),
(465,1211,q),
(465,1270,o),
(380,1344,o),
(314,1344,q),
(274,1344,o),
(200,1316,o),
(145,1285,q),
(110,1263,l)
);
},
{
closed = 1;
nodes = (
(219,-207,l),
(154,-156,l),
(1329,1457,l),
(1393,1411,l)
);
}
);
width = 1381;
}
);
unicode = 190;
},
{
glyphname = questiondown;
layers = (
{
layerId = "55B2AD78-00C4-470B-8999-F57615B8BFC4";
shapes = (
{
closed = 1;
nodes = (
(1091,-242,l),
(1032,-262,o),
(937,-292,o),
(852,-314,o),
(767,-323,o),
(718,-323,q),
(608,-323,o),
(442,-257,o),
(332,-154,o),
(277,-18,o),
(277,55,q),
(277,156,o),
(364,292,o),
(490,380,o),
(635,430,o),
(692,446,q),
(692,584,l),
(806,584,l),
(806,362,l),
(801,359,o),
(771,352,o),
(760,350,q),
(703,336,o),
(573,297,o),
(468,230,o),
(396,127,o),
(396,48,q),
(396,13,o),
(424,-76,o),
(495,-156,o),
(619,-209,o),
(716,-209,q),
(801,-209,o),
(918,-178,o),
(976,-154,q),
(976,-7,l),
(1091,-7,l)
);
},
{
closed = 1;
nodes = (
(690,753,o),
(598,833,o),
(598,894,q),
(598,955,o),
(692,1036,o),
(758,1036,q),
(822,1036,o),
(916,955,o),
(916,894,q),
(916,833,o),
(824,753,o),
(758,753,q)
);
}
);
width = 1381;
}
);
unicode = 191;
},
{
glyphname = Aring;
layers = (
{
layerId = "55B2AD78-00C4-470B-8999-F57615B8BFC4";
shapes = (
{
closed = 1;
nodes = (
(1241,108,l),
(1358,108,l),
(1358,0,l),
(886,0,l),
(886,108,l),
(1121,108,l),
(990,428,l),
(389,428,l),
(260,108,l),
(495,108,l),
(495,0,l),
(22,0,l),
(22,108,l),
(145,108,l),
(589,1188,l),
(260,1188,l),
(260,1296,l),
(755,1296,l)
);
},
{
closed = 1;
nodes = (
(430,529,l),
(951,529,l),
(690,1160,l)
);
},
{
closed = 1;
nodes = (
(764,1784,o),
(865,1683,o),
(865,1610,q),
(865,1535,o),
(764,1434,o),
(690,1434,q),
(617,1434,o),
(516,1535,o),
(516,1610,q),
(516,1683,o),
(617,1784,o),
(690,1784,q)
);
},
{
closed = 1;
nodes = (
(656,1696,o),
(604,1650,o),
(604,1610,q),
(604,1572,o),
(656,1522,o),
(692,1522,q),
(729,1522,o),
(778,1572,o),
(778,1610,q),
(778,1646,o),
(729,1696,o),
(692,1696,q)
);
}
);
width = 1381;
}
);
unicode = 197;
},
{
glyphname = AE;
layers = (
{
layerId = "55B2AD78-00C4-470B-8999-F57615B8BFC4";
shapes = (
{
closed = 1;
nodes = (
(1263,881,l),
(1160,881,l),
(1140,1188,l),
(810,1188,l),
(810,741,l),
(960,741,l),
(960,909,l),
(1066,909,l),
(1066,465,l),
(960,465,l),
(960,633,l),
(810,633,l),
(810,108,l),
(1160,108,l),
(1173,428,l),
(1280,428,l),
(1280,0,l),
(695,0,l),
(695,424,l),
(413,424,l),
(281,108,l),
(486,108,l),
(486,0,l),
(44,0,l),
(44,108,l),
(165,108,l),
(601,1188,l),
(364,1188,l),
(364,1296,l),
(1263,1296,l)
);
},
{
closed = 1;
nodes = (
(690,1160,l),
(451,532,l),
(695,532,l),
(695,1160,l)
);
}
);
width = 1381;
}
);
unicode = 198;
},
{
glyphname = Ccedilla;
layers = (
{
layerId = "55B2AD78-00C4-470B-8999-F57615B8BFC4";
shapes = (
{
closed = 1;
nodes = (
(815,-57,l),
(837,-57,o),
(894,-76,o),
(942,-112,o),
(976,-165,o),
(976,-200,q),
(976,-209,o),
(967,-253,o),
(932,-299,o),
(856,-334,o),
(792,-334,q),
(707,-334,o),
(571,-306,o),
(538,-299,q),
(555,-198,l),
(601,-209,o),
(716,-230,o),
(795,-230,q),
(810,-230,l),
(828,-230,o),
(868,-217,o),
(868,-200,q),
(868,-169,o),
(769,-147,o),
(703,-143,q),
(716,-39,l),
(553,-22,o),
(334,125,o),
(202,329,o),
(147,562,o),
(147,663,q),
(147,813,o),
(242,1061,o),
(407,1239,o),
(633,1335,o),
(764,1335,q),
(801,1335,o),
(944,1314,o),
(1017,1268,q),
(1022,1263,o),
(1045,1245,o),
(1070,1225,o),
(1094,1211,o),
(1098,1211,q),
(1105,1211,o),
(1116,1234,o),
(1123,1268,o),
(1131,1305,o),
(1133,1322,q),
(1217,1322,l),
(1213,1177,o),
(1230,973,o),
(1241,881,q),
(1133,863,l),
(1125,903,o),
(1096,1024,o),
(1019,1137,o),
(879,1220,o),
(760,1220,q),
(672,1220,o),
(499,1153,o),
(359,1017,o),
(272,808,o),
(272,665,q),
(272,555,o),
(327,343,o),
(448,178,o),
(637,76,o),
(769,76,q),
(865,76,o),
(1032,129,o),
(1162,205,o),
(1259,285,o),
(1291,310,q),
(1368,228,l),
(1250,117,o),
(973,-26,o),
(815,-39,q)
);
}
);
width = 1381;
}
);
unicode = 199;
},
{
glyphname = Eth;
layers = (
{
layerId = "55B2AD78-00C4-470B-8999-F57615B8BFC4";
shapes = (
{
closed = 1;
nodes = (
(79,738,l),
(260,738,l),
(260,1188,l),
(79,1188,l),
(79,1296,l),
(654,1296,l),
(729,1296,o),
(861,1285,o),
(973,1250,o),
(1077,1181,o),
(1125,1123,q),
(1177,1061,o),
(1234,927,o),
(1261,804,o),
(1268,703,o),
(1268,672,q),
(1268,569,o),
(1236,400,o),
(1184,270,o),
(1114,169,o),
(1077,134,q),
(1024,83,o),
(900,30,o),
(780,4,o),
(677,0,o),
(644,0,q),
(79,0,l),
(79,108,l),
(260,108,l),
(260,631,l),
(79,631,l)
);
},
{
closed = 1;
nodes = (
(375,108,l),
(644,108,l),
(674,108,o),
(758,110,o),
(852,132,o),
(949,175,o),
(990,217,q),
(1052,279,o),
(1144,507,o),
(1144,665,q),
(1142,773,o),
(1103,925,o),
(1048,1032,o),
(986,1096,o),
(960,1116,q),
(900,1162,o),
(755,1188,o),
(656,1188,q),
(375,1188,l),
(375,738,l),
(758,738,l),
(758,631,l),
(375,631,l)
);
}
);
width = 1381;
}
);
unicode = 208;
},
{
glyphname = multiply;
layers = (
{
layerId = "55B2AD78-00C4-470B-8999-F57615B8BFC4";
shapes = (
{
closed = 1;
nodes = (
(354,1123,l),
(690,787,l),
(1026,1123,l),
(1109,1043,l),
(771,705,l),
(1109,369,l),
(1026,285,l),
(690,624,l),
(354,285,l),
(272,369,l),
(610,705,l),
(272,1043,l)
);
}
);
width = 1381;
}
);
unicode = 215;
},
{
glyphname = Oslash;
layers = (
{
layerId = "55B2AD78-00C4-470B-8999-F57615B8BFC4";
shapes = (
{
closed = 1;
nodes = (
(147,9,l),
(262,158,l),
(233,198,o),
(173,292,o),
(127,410,o),
(99,555,o),
(99,644,q),
(99,787,o),
(182,1039,o),
(336,1227,o),
(555,1335,o),
(692,1335,q),
(771,1335,o),
(889,1305,o),
(976,1261,o),
(1041,1211,o),
(1066,1193,q),
(1155,1305,l),
(1236,1245,l),
(1135,1116,l),
(1190,1050,o),
(1250,898,o),
(1278,760,o),
(1282,659,o),
(1282,642,q),
(1282,507,o),
(1202,257,o),
(1050,71,o),
(833,-39,o),
(700,-39,q),
(631,-39,o),
(444,2,o),
(341,85,q),
(226,-53,l)
);
},
{
closed = 1;
nodes = (
(407,180,l),
(424,165,o),
(472,132,o),
(541,99,o),
(631,76,o),
(690,76,q),
(797,76,o),
(969,165,o),
(1091,320,o),
(1158,527,o),
(1158,644,q),
(1158,845,o),
(1057,1015,q)
);
},
{
closed = 1;
nodes = (
(992,1098,l),
(958,1137,o),
(877,1186,o),
(797,1211,o),
(718,1220,o),
(688,1220,q),
(578,1220,o),
(405,1123,o),
(285,964,o),
(224,760,o),
(224,652,q),
(224,619,o),
(233,520,o),
(260,410,o),
(306,299,o),
(341,257,q)
);
}
);
width = 1381;
}
);
unicode = 216;
},
{
glyphname = Thorn;
layers = (
{
layerId = "55B2AD78-00C4-470B-8999-F57615B8BFC4";
shapes = (
{
closed = 1;
nodes = (
(725,0,l),
(163,0,l),
(163,108,l),
(350,108,l),
(350,1188,l),
(163,1188,l),
(163,1296,l),
(725,1296,l),
(725,1188,l),
(465,1188,l),
(465,1070,l),
(591,1070,l),
(698,1070,o),
(843,1066,o),
(946,1050,o),
(1022,1022,o),
(1059,999,q),
(1133,953,o),
(1230,785,o),
(1230,679,q),
(1230,575,o),
(1133,393,o),
(1059,352,q),
(1017,327,o),
(940,299,o),
(835,285,o),
(695,283,o),
(591,283,q),
(465,283,l),
(465,108,l),
(725,108,l)
);
},
{
closed = 1;
nodes = (
(465,391,l),
(596,391,l),
(736,391,o),
(949,405,o),
(1008,453,q),
(1041,479,o),
(1105,589,o),
(1105,672,q),
(1105,767,o),
(1013,894,o),
(967,916,q),
(946,927,o),
(900,944,o),
(837,955,o),
(753,962,o),
(690,962,q),
(465,962,l)
);
}
);
width = 1381;
}
);
unicode = 222;
},
{
glyphname = germandbls;
layers = (
{
layerId = "55B2AD78-00C4-470B-8999-F57615B8BFC4";
shapes = (
{
closed = 1;
nodes = (
(325,1039,l),
(325,1131,o),
(387,1280,o),
(490,1384,o),
(624,1439,o),
(698,1439,q),
(773,1439,o),
(896,1386,o),
(978,1296,o),
(1024,1177,o),
(1024,1109,q),
(1024,1006,o),
(914,850,o),
(833,817,q),
(865,806,o),
(982,758,o),
(1096,659,o),
(1181,495,o),
(1181,371,q),
(1181,294,o),
(1133,154,o),
(1036,48,o),
(896,-16,o),
(804,-16,q),
(690,-16,o),
(566,42,o),
(538,60,q),
(538,180,l),
(580,154,o),
(709,99,o),
(801,99,q),
(843,99,o),
(932,129,o),
(1008,196,o),
(1057,303,o),
(1057,382,q),
(1057,734,o),
(591,751,q),
(591,856,l),
(615,859,o),
(718,872,o),
(824,923,o),
(905,1019,o),
(905,1107,q),
(905,1199,o),
(799,1324,o),
(692,1324,q),
(650,1324,o),
(560,1294,o),
(486,1225,o),
(439,1107,o),
(439,1019,q),
(439,0,l),
(149,0,l),
(149,108,l),
(325,108,l)
);
}
);
width = 1381;
}
);
unicode = 223;
},
{
glyphname = aring;
layers = (
{
layerId = "55B2AD78-00C4-470B-8999-F57615B8BFC4";
shapes = (
{
closed = 1;
nodes = (
(1266,108,l),
(1266,0,l),
(946,0,l),
(946,165,l),
(912,134,o),
(817,62,o),
(707,4,o),
(578,-33,o),
(507,-33,q),
(419,-33,o),
(283,26,o),
(187,117,o),
(136,233,o),
(136,292,q),
(136,338,o),
(182,459,o),
(292,566,o),
(481,640,o),
(624,640,q),
(631,640,o),
(695,637,o),
(785,631,o),
(894,619,o),
(946,610,q),
(946,681,l),
(946,709,o),
(937,792,o),
(886,870,o),
(771,925,o),
(668,925,q),
(606,925,o),
(413,889,o),
(274,828,q),
(230,932,l),
(303,964,o),
(532,1036,o),
(670,1036,q),
(817,1036,o),
(976,951,o),
(1050,833,o),
(1061,716,o),
(1061,681,q),
(1061,108,l)
);
},
{
closed = 1;
nodes = (
(946,505,l),
(907,511,o),
(744,529,o),
(646,529,q),
(505,529,o),
(347,463,o),
(274,378,o),
(260,299,o),
(260,290,q),
(260,246,o),
(299,171,o),
(369,112,o),
(456,79,o),
(505,79,q),
(532,79,o),
(622,92,o),
(736,141,o),
(872,237,o),
(946,320,q)
);
},
{
closed = 1;
nodes = (
(764,1478,o),
(865,1377,o),
(865,1303,q),
(865,1230,o),
(764,1128,o),
(690,1128,q),
(617,1128,o),
(516,1230,o),
(516,1303,q),
(516,1377,o),
(617,1478,o),
(690,1478,q)
);
},
{
closed = 1;
nodes = (
(656,1390,o),
(604,1344,o),
(604,1303,q),
(604,1266,o),
(656,1215,o),
(692,1215,q),
(729,1215,o),
(778,1266,o),
(778,1303,q),
(778,1340,o),
(729,1390,o),
(692,1390,q)
);
}
);
width = 1381;
}
);
unicode = 229;
},
{
glyphname = ae;
layers = (
{
layerId = "55B2AD78-00C4-470B-8999-F57615B8BFC4";
shapes = (
{
closed = 1;
nodes = (
(736,468,l),
(741,369,o),
(764,235,o),
(810,175,q),
(863,106,o),
(973,79,o),
(1006,79,q),
(1075,79,o),
(1208,110,o),
(1266,129,q),
(1307,30,l),
(1184,-13,o),
(1032,-33,o),
(1001,-33,q),
(932,-33,o),
(831,9,o),
(760,64,o),
(716,123,o),
(705,138,q),
(652,85,o),
(553,16,o),
(465,-20,o),
(391,-35,o),
(362,-35,q),
(292,-35,o),
(187,16,o),
(112,101,o),
(76,209,o),
(76,268,q),
(76,325,o),
(123,448,o),
(211,547,o),
(350,613,o),
(444,613,q),
(483,613,o),
(558,601,o),
(622,591,q),
(622,672,l),
(622,792,o),
(558,925,o),
(453,925,q),
(393,925,o),
(274,898,o),
(178,863,q),
(145,964,l),
(242,1001,o),
(384,1036,o),
(456,1036,q),
(518,1036,o),
(604,1008,o),
(659,960,o),
(692,898,o),
(705,863,q),
(723,886,o),
(771,949,o),
(837,999,o),
(923,1036,o),
(978,1036,q),
(988,1036,o),
(1045,1028,o),
(1121,997,o),
(1202,927,o),
(1266,801,o),
(1303,608,o),
(1296,468,q)
);
},
{
closed = 1;
nodes = (
(622,481,l),
(562,492,o),
(486,501,o),
(446,501,q),
(369,501,o),
(270,451,o),
(211,380,o),
(191,297,o),
(191,268,q),
(191,233,o),
(211,165,o),
(253,110,o),
(316,76,o),
(359,76,q),
(400,76,o),
(481,103,o),
(547,145,o),
(604,189,o),
(622,205,q)
);
},
{
closed = 1;
nodes = (
(1181,575,l),
(1169,925,o),
(976,925,q),
(916,925,o),
(833,863,o),
(808,833,q),
(758,771,o),
(738,650,o),
(736,575,q)
);
}
);
width = 1381;
}
);
unicode = 230;
},
{
glyphname = ccedilla;
layers = (
{
layerId = "55B2AD78-00C4-470B-8999-F57615B8BFC4";
shapes = (
{
closed = 1;
nodes = (
(760,-60,l),
(808,-71,o),
(854,-147,o),
(854,-187,q),
(854,-205,o),
(841,-255,o),
(810,-301,o),
(758,-332,o),
(716,-332,q),
(670,-332,o),
(610,-299,o),
(582,-281,q),
(633,-196,l),
(670,-221,o),
(690,-230,o),
(707,-230,q),
(734,-230,o),
(751,-200,o),
(751,-189,q),
(751,-158,o),
(711,-149,o),
(703,-149,q),
(683,-149,o),
(661,-152,o),
(650,-154,q),
(659,-30,l),
(569,-28,o),
(391,46,o),
(251,182,o),
(163,375,o),
(163,497,q),
(163,589,o),
(230,776,o),
(364,927,o),
(571,1024,o),
(714,1024,q),
(804,1024,o),
(942,980,o),
(1013,930,q),
(1015,927,o),
(1041,909,o),
(1059,896,o),
(1061,896,q),
(1068,896,o),
(1077,921,o),
(1080,925,q),
(1098,1019,l),
(1204,1008,l),
(1199,973,o),
(1184,856,o),
(1184,797,q),
(1184,734,o),
(1190,644,q),
(1085,628,l),
(1066,707,o),
(1034,797,o),
(990,833,q),
(958,859,o),
(883,889,o),
(813,905,o),
(749,909,o),
(725,909,q),
(615,909,o),
(451,837,o),
(341,720,o),
(288,575,o),
(288,499,q),
(288,426,o),
(338,279,o),
(442,158,o),
(604,83,o),
(716,83,q),
(841,83,o),
(1077,191,o),
(1204,279,q),
(1263,191,l),
(1137,94,o),
(905,-16,o),
(760,-30,q)
);
}
);
width = 1381;
}
);
unicode = 231;
},
{
glyphname = igrave;
layers = (
{
layerId = "55B2AD78-00C4-470B-8999-F57615B8BFC4";
shapes = (
{
closed = 1;
nodes = (
(861,1158,l),
(741,1158,l),
(437,1423,l),
(683,1423,l)
);
},
{
closed = 1;
nodes = (
(753,108,l),
(1151,108,l),
(1151,0,l),
(233,0,l),
(233,108,l),
(637,108,l),
(637,881,l),
(299,881,l),
(299,990,l),
(753,990,l)
);
}
);
width = 1381;
}
);
unicode = 236;
},
{
glyphname = iacute;
layers = (
{
layerId = "55B2AD78-00C4-470B-8999-F57615B8BFC4";
shapes = (
{
closed = 1;
nodes = (
(495,1158,l),
(700,1423,l),
(946,1423,l),
(617,1158,l)
);
},
{
closed = 1;
nodes = (
(753,108,l),
(1151,108,l),
(1151,0,l),
(233,0,l),
(233,108,l),
(637,108,l),
(637,881,l),
(299,881,l),
(299,990,l),
(753,990,l)
);
}
);
width = 1381;
}
);
unicode = 237;
},
{
glyphname = icircumflex;
layers = (
{
layerId = "55B2AD78-00C4-470B-8999-F57615B8BFC4";
shapes = (
{
closed = 1;
nodes = (
(986,1213,l),
(912,1155,l),
(679,1307,l),
(470,1155,l),
(393,1211,l),
(596,1430,l),
(773,1430,l)
);
},
{
closed = 1;
nodes = (
(753,108,l),
(1151,108,l),
(1151,0,l),
(233,0,l),
(233,108,l),
(637,108,l),
(637,881,l),
(299,881,l),
(299,990,l),
(753,990,l)
);
}
);
width = 1381;
}
);
unicode = 238;
},
{
glyphname = idieresis;
layers = (
{
layerId = "55B2AD78-00C4-470B-8999-F57615B8BFC4";
shapes = (
{
closed = 1;
nodes = (
(624,1430,l),
(624,1181,l),
(459,1181,l),
(459,1430,l)
);
},
{
closed = 1;
nodes = (
(923,1430,l),
(923,1181,l),
(758,1181,l),
(758,1430,l)
);
},
{
closed = 1;
nodes = (
(753,108,l),
(1151,108,l),
(1151,0,l),
(233,0,l),
(233,108,l),
(637,108,l),
(637,881,l),
(299,881,l),
(299,990,l),
(753,990,l)
);
}
);
width = 1381;
}
);
unicode = 239;
},
{
glyphname = eth;
layers = (
{
layerId = "55B2AD78-00C4-470B-8999-F57615B8BFC4";
shapes = (
{
closed = 1;
nodes = (
(391,1188,l),
(507,1362,l),
(463,1384,o),
(398,1413,o),
(341,1436,o),
(285,1454,o),
(251,1467,q),
(290,1579,l),
(334,1566,o),
(400,1542,o),
(463,1517,o),
(529,1487,o),
(571,1467,q),
(665,1621,l),
(764,1556,l),
(674,1413,l),
(709,1393,o),
(824,1316,o),
(955,1208,o),
(1087,1063,o),
(1195,879,o),
(1261,656,o),
(1261,523,q),
(1261,389,o),
(1173,182,o),
(1019,42,o),
(810,-33,o),
(690,-33,q),
(547,-33,o),
(334,60,o),
(191,209,o),
(119,400,o),
(119,501,q),
(119,628,o),
(211,826,o),
(366,964,o),
(564,1036,o),
(670,1036,q),
(760,1036,o),
(934,999,o),
(986,973,q),
(990,978,l),
(958,1019,o),
(894,1096,o),
(808,1177,o),
(692,1259,o),
(610,1307,q),
(490,1118,l)
);
},
{
closed = 1;
nodes = (
(244,419,o),
(301,268,o),
(417,147,o),
(582,76,o),
(690,76,q),
(801,76,o),
(969,149,o),
(1080,270,o),
(1137,422,o),
(1137,501,q),
(1137,580,o),
(1080,734,o),
(967,854,o),
(801,927,o),
(690,927,q),
(582,927,o),
(417,856,o),
(303,738,o),
(244,584,o),
(244,501,q)
);
}
);
width = 1381;
}
);
unicode = 240;
},
{
glyphname = divide;
layers = (
{
layerId = "55B2AD78-00C4-470B-8999-F57615B8BFC4";
shapes = (
{
closed = 1;
nodes = (
(732,1215,o),
(795,1158,o),
(795,1112,q),
(795,1070,o),
(736,1008,o),
(690,1008,q),
(646,1008,o),
(587,1070,o),
(587,1112,q),
(587,1158,o),
(652,1215,o),
(690,1215,q)
);
},
{
closed = 1;
nodes = (
(1230,640,l),
(152,640,l),
(152,755,l),
(1230,755,l)
);
},
{
closed = 1;
nodes = (
(729,387,o),
(795,329,o),
(795,283,q),
(795,237,o),
(729,180,o),
(690,180,q),
(650,180,o),
(587,239,o),
(587,283,q),
(587,329,o),
(650,387,o),
(690,387,q)
);
}
);
width = 1381;
}
);
unicode = 247;
},
{
glyphname = oslash;
layers = (
{
layerId = "55B2AD78-00C4-470B-8999-F57615B8BFC4";
shapes = (
{
closed = 1;
nodes = (
(138,53,l),
(244,158,l),
(205,207,o),
(156,306,o),
(129,398,o),
(119,477,o),
(119,505,q),
(119,604,o),
(191,797,o),
(336,944,o),
(547,1036,o),
(690,1036,q),
(771,1036,o),
(967,992,o),
(1041,932,q),
(1153,1048,l),
(1241,960,l),
(1135,854,l),
(1177,806,o),
(1227,703,o),
(1252,608,o),
(1261,527,o),
(1261,501,q),
(1261,398,o),
(1188,205,o),
(1043,55,o),
(831,-33,o),
(695,-33,q),
(683,-33,o),
(610,-30,o),
(509,-9,o),
(389,35,o),
(334,74,q),
(228,-33,l)
);
},
{
closed = 1;
nodes = (
(424,156,l),
(444,143,o),
(488,117,o),
(547,97,o),
(631,83,o),
(690,83,q),
(801,83,o),
(969,154,o),
(1080,272,o),
(1137,422,o),
(1137,501,q),
(1137,652,o),
(1045,764,q)
);
},
{
closed = 1;
nodes = (
(955,850,l),
(927,863,o),
(877,889,o),
(819,909,o),
(744,921,o),
(690,921,q),
(580,921,o),
(413,847,o),
(299,729,o),
(244,580,o),
(244,501,q),
(244,456,o),
(279,308,o),
(332,242,q)
);
}
);
width = 1381;
}
);
unicode = 248;
},
{
glyphname = thorn;
layers = (
{
layerId = "55B2AD78-00C4-470B-8999-F57615B8BFC4";
shapes = (
{
closed = 1;
nodes = (
(352,826,l),
(366,847,o),
(424,912,o),
(520,973,o),
(656,1019,o),
(749,1019,q),
(865,1019,o),
(1054,932,o),
(1188,789,o),
(1261,604,o),
(1261,505,q),
(1261,387,o),
(1171,196,o),
(1028,60,o),
(845,-16,o),
(753,-16,q),
(738,-16,o),
(656,-9,o),
(541,28,o),
(413,108,o),
(352,182,q),
(347,182,l),
(347,-253,l),
(690,-253,l),
(690,-362,l),
(44,-362,l),
(44,-253,l),
(233,-253,l),
(233,1329,l),
(28,1320,l),
(28,1427,l),
(347,1448,l),
(347,826,l)
);
},
{
closed = 1;
nodes = (
(338,410,o),
(417,255,o),
(536,152,o),
(681,99,o),
(749,99,q),
(826,99,o),
(967,161,o),
(1072,270,o),
(1137,419,o),
(1137,507,q),
(1137,578,o),
(1089,720,o),
(992,833,o),
(847,905,o),
(751,905,q),
(661,905,o),
(509,841,o),
(400,734,o),
(338,589,o),
(338,511,q)
);
}
);
width = 1381;
}
);
unicode = 254;
},
{
glyphname = ydieresis;
layers = (
{
layerId = "55B2AD78-00C4-470B-8999-F57615B8BFC4";
shapes = (
{
closed = 1;
nodes = (
(55,990,l),
(55,881,l),
(196,881,l),
(624,62,l),
(446,-244,l),
(92,-244,l),
(92,-352,l),
(782,-352,l),
(782,-244,l),
(578,-244,l),
(1222,881,l),
(1356,881,l),
(1356,990,l),
(934,990,l),
(934,881,l),
(1091,881,l),
(690,182,l),
(327,881,l),
(486,881,l),
(486,990,l)
);
},
{
closed = 1;
nodes = (
(459,1181,l),
(624,1181,l),
(624,1430,l),
(459,1430,l)
);
},
{
closed = 1;
nodes = (
(758,1181,l),
(923,1181,l),
(923,1430,l),
(758,1430,l)
);
}
);
width = 1381;
}
);
unicode = 255;
},
{
glyphname = OE;
layers = (
{
layerId = "55B2AD78-00C4-470B-8999-F57615B8BFC4";
shapes = (
{
closed = 1;
nodes = (
(1236,881,l),
(1135,881,l),
(1114,1188,l),
(810,1188,l),
(810,741,l),
(960,741,l),
(960,909,l),
(1066,909,l),
(1066,465,l),
(960,465,l),
(960,633,l),
(810,633,l),
(810,108,l),
(1146,108,l),
(1160,426,l),
(1266,426,l),
(1266,0,l),
(558,0,l),
(422,0,o),
(226,125,o),
(99,314,o),
(37,536,o),
(37,637,q),
(37,776,o),
(125,1015,o),
(283,1195,o),
(507,1296,o),
(642,1296,q),
(1236,1296,l)
);
},
{
closed = 1;
nodes = (
(635,1188,l),
(520,1188,o),
(343,1100,o),
(224,951,o),
(161,753,o),
(161,644,q),
(161,560,o),
(209,371,o),
(314,211,o),
(477,108,o),
(593,108,q),
(695,108,l),
(695,1188,l)
);
}
);
width = 1381;
}
);
unicode = 338;
},
{
glyphname = oe;
layers = (
{
layerId = "55B2AD78-00C4-470B-8999-F57615B8BFC4";
shapes = (
{
closed = 1;
nodes = (
(736,472,l),
(734,352,o),
(787,198,o),
(870,110,o),
(962,76,o),
(1001,76,q),
(1075,76,o),
(1220,112,o),
(1266,127,q),
(1307,28,l),
(1184,-13,o),
(1039,-35,o),
(1006,-35,q),
(986,-35,o),
(907,-22,o),
(817,18,o),
(725,103,o),
(690,180,q),
(681,158,o),
(642,88,o),
(569,16,o),
(459,-35,o),
(375,-35,q),
(285,-35,o),
(165,28,o),
(88,123,o),
(46,237,o),
(26,345,o),
(22,433,o),
(22,453,q),
(22,564,o),
(64,773,o),
(154,940,o),
(299,1039,o),
(405,1039,q),
(474,1039,o),
(575,990,o),
(644,927,o),
(683,863,o),
(690,847,q),
(744,944,o),
(900,1036,o),
(976,1036,q),
(1066,1036,o),
(1188,942,o),
(1263,801,o),
(1298,642,o),
(1298,578,q),
(1298,550,o),
(1296,488,o),
(1294,472,q)
);
},
{
closed = 1;
nodes = (
(622,631,o),
(584,806,o),
(523,900,o),
(446,927,o),
(405,927,q),
(334,927,o),
(237,843,o),
(175,707,o),
(147,541,o),
(147,461,q),
(147,396,o),
(169,260,o),
(219,147,o),
(306,76,o),
(373,76,q),
(435,76,o),
(520,125,o),
(575,202,o),
(606,297,o),
(619,389,o),
(622,465,o),
(622,486,q)
);
},
{
closed = 1;
nodes = (
(1184,573,l),
(1184,637,o),
(1160,764,o),
(1109,865,o),
(1032,925,o),
(976,925,q),
(958,925,o),
(881,903,o),
(801,831,o),
(738,690,o),
(736,573,q)
);
}
);
width = 1381;
}
);
unicode = 339;
},
{
glyphname = Scaron;
layers = (
{
layerId = "55B2AD78-00C4-470B-8999-F57615B8BFC4";
shapes = (
{
closed = 1;
nodes = (
(1167,1322,l),
(1155,1268,o),
(1146,1199,o),
(1146,1155,q),
(1146,1116,o),
(1155,980,o),
(1167,881,q),
(1063,863,l),
(1059,900,o),
(1032,1019,o),
(992,1080,q),
(978,1100,o),
(934,1149,o),
(865,1190,o),
(769,1220,o),
(700,1220,q),
(610,1220,o),
(479,1167,o),
(393,1087,o),
(352,992,o),
(352,949,q),
(352,868,o),
(430,776,o),
(541,725,o),
(661,707,o),
(703,703,q),
(831,688,o),
(978,659,o),
(1098,580,o),
(1181,451,o),
(1181,352,q),
(1181,251,o),
(1096,103,o),
(962,7,o),
(795,-39,o),
(709,-39,q),
(640,-39,o),
(536,-16,o),
(461,18,o),
(410,53,o),
(393,66,q),
(391,69,o),
(380,76,o),
(375,76,q),
(369,76,o),
(356,62,o),
(352,57,q),
(347,42,o),
(341,11,o),
(332,-46,q),
(228,-46,l),
(239,9,o),
(248,110,o),
(248,136,q),
(248,158,l),
(248,178,o),
(244,239,o),
(237,310,o),
(230,378,o),
(228,402,q),
(332,402,l),
(341,359,o),
(371,248,o),
(410,198,q),
(442,156,o),
(569,76,o),
(692,76,q),
(799,76,o),
(940,127,o),
(1022,205,o),
(1057,299,o),
(1057,343,q),
(1057,419,o),
(990,509,o),
(894,558,o),
(780,575,o),
(736,580,q),
(670,587,o),
(492,615,o),
(336,688,o),
(228,824,o),
(228,940,q),
(228,1017,o),
(297,1160,o),
(419,1270,o),
(587,1335,o),
(686,1335,q),
(749,1335,o),
(845,1312,o),
(914,1282,o),
(960,1250,o),
(971,1241,q),
(999,1220,o),
(1017,1208,o),
(1024,1208,q),
(1041,1208,o),
(1048,1236,o),
(1059,1291,q),
(1061,1303,o),
(1063,1316,o),
(1063,1322,q)
);
},
{
closed = 1;
nodes = (
(393,1694,l),
(468,1749,l),
(700,1599,l),
(912,1752,l),
(986,1694,l),
(782,1478,l),
(608,1478,l)
);
}
);
width = 1381;
}
);
unicode = 352;
},
{
glyphname = scaron;
layers = (
{
layerId = "55B2AD78-00C4-470B-8999-F57615B8BFC4";
shapes = (
{
closed = 1;
nodes = (
(1109,1019,l),
(1103,982,o),
(1089,889,o),
(1089,822,q),
(1089,773,o),
(1096,707,o),
(1100,677,q),
(999,665,l),
(992,700,o),
(967,782,o),
(896,854,o),
(758,905,o),
(637,905,q),
(499,905,o),
(352,806,o),
(352,734,q),
(352,672,o),
(424,601,o),
(553,562,o),
(725,547,o),
(826,543,q),
(847,543,o),
(955,529,o),
(1070,479,o),
(1160,375,o),
(1160,285,q),
(1160,202,o),
(1080,81,o),
(951,2,o),
(797,-35,o),
(720,-35,q),
(659,-35,o),
(553,-13,o),
(465,18,o),
(402,51,o),
(382,62,q),
(382,62,o),
(378,64,q),
(375,66,o),
(371,66,q),
(354,66,o),
(336,9,o),
(325,-30,q),
(224,-30,l),
(228,0,o),
(237,57,o),
(237,115,q),
(237,189,o),
(228,303,o),
(224,343,q),
(325,354,l),
(329,325,o),
(356,233,o),
(433,145,o),
(575,81,o),
(695,81,q),
(729,81,o),
(845,94,o),
(955,136,o),
(1036,214,o),
(1036,281,q),
(1036,332,o),
(988,391,o),
(900,422,o),
(778,430,o),
(707,433,q),
(661,435,o),
(499,451,o),
(343,509,o),
(228,626,o),
(228,729,q),
(228,792,o),
(288,898,o),
(393,976,o),
(545,1019,o),
(635,1019,q),
(738,1019,o),
(868,971,o),
(900,953,q),
(905,949,o),
(937,932,o),
(951,932,q),
(969,932,o),
(988,976,o),
(992,988,q),
(997,1010,o),
(1001,1024,o),
(1006,1036,q)
);
},
{
closed = 1;
nodes = (
(393,1388,l),
(468,1443,l),
(700,1294,l),
(912,1445,l),
(986,1388,l),
(782,1171,l),
(608,1171,l)
);
}
);
width = 1381;
}
);
unicode = 353;
},
{
glyphname = Zcaron;
layers = (
{
layerId = "55B2AD78-00C4-470B-8999-F57615B8BFC4";
shapes = (
{
closed = 1;
nodes = (
(1135,1202,l),
(332,108,l),
(1080,108,l),
(1080,481,l),
(1188,481,l),
(1188,0,l),
(193,0,l),
(193,108,l),
(988,1188,l),
(318,1188,l),
(318,852,l),
(209,852,l),
(209,1296,l),
(1135,1296,l)
);
},
{
closed = 1;
nodes = (
(393,1694,l),
(468,1749,l),
(700,1599,l),
(912,1752,l),
(986,1694,l),
(782,1478,l),
(608,1478,l)
);
}
);
width = 1381;
}
);
unicode = 381;
},
{
glyphname = zcaron;
layers = (
{
layerId = "55B2AD78-00C4-470B-8999-F57615B8BFC4";
shapes = (
{
closed = 1;
nodes = (
(1142,891,l),
(396,108,l),
(1034,108,l),
(1034,320,l),
(1142,320,l),
(1142,0,l),
(239,0,l),
(239,108,l),
(978,881,l),
(371,881,l),
(371,677,l),
(262,677,l),
(262,990,l),
(1142,990,l)
);
},
{
closed = 1;
nodes = (
(393,1388,l),
(468,1443,l),
(700,1294,l),
(912,1445,l),
(986,1388,l),
(782,1171,l),
(608,1171,l)
);
}
);
width = 1381;
}
);
unicode = 382;
},
{
glyphname = florin;
layers = (
{
layerId = "55B2AD78-00C4-470B-8999-F57615B8BFC4";
shapes = (
{
closed = 1;
nodes = (
(1160,1402,l),
(1131,1408,o),
(1050,1421,o),
(995,1421,q),
(863,1421,o),
(723,1353,o),
(656,1257,o),
(644,1149,o),
(644,1105,q),
(644,978,l),
(1050,978,l),
(1050,881,l),
(644,881,l),
(644,117,l),
(644,37,o),
(608,-81,o),
(543,-129,q),
(468,-187,o),
(270,-228,o),
(171,-228,q),
(141,-228,o),
(81,-224,o),
(55,-219,q),
(64,-103,l),
(99,-108,o),
(182,-117,o),
(221,-117,q),
(297,-117,o),
(459,-76,o),
(495,-33,q),
(520,0,o),
(529,88,o),
(529,134,q),
(529,881,l),
(283,881,l),
(283,978,l),
(529,978,l),
(529,1116,l),
(529,1167,o),
(553,1309,o),
(652,1439,o),
(850,1529,o),
(1024,1529,q),
(1075,1529,o),
(1149,1524,o),
(1171,1520,q)
);
}
);
width = 1381;
}
);
unicode = 402;
},
{
glyphname = circumflex;
layers = (
{
layerId = "55B2AD78-00C4-470B-8999-F57615B8BFC4";
shapes = (
{
closed = 1;
nodes = (
(986,1213,l),
(912,1155,l),
(679,1307,l),
(470,1155,l),
(393,1211,l),
(596,1430,l),
(773,1430,l)
);
}
);
width = 1381;
}
);
unicode = 710;
},
{
glyphname = tilde;
layers = (
{
layerId = "55B2AD78-00C4-470B-8999-F57615B8BFC4";
shapes = (
{
closed = 1;
nodes = (
(1059,1395,l),
(1054,1390,o),
(1054,1379,q),
(1026,1282,o),
(903,1184,o),
(828,1184,q),
(789,1184,o),
(718,1215,o),
(665,1257,q),
(610,1298,o),
(564,1324,o),
(538,1324,q),
(492,1324,o),
(437,1250,o),
(419,1204,q),
(419,1202,o),
(417,1197,q),
(415,1190,l),
(323,1222,l),
(354,1309,o),
(453,1427,o),
(538,1427,q),
(593,1427,o),
(672,1381,o),
(709,1349,q),
(753,1316,o),
(810,1287,o),
(835,1287,q),
(865,1287,o),
(909,1316,o),
(940,1360,o),
(960,1406,o),
(967,1425,q)
);
}
);
width = 1381;
}
);
unicode = 732;
},
{
glyphname = uni1200;
layers = (
{
layerId = "55B2AD78-00C4-470B-8999-F57615B8BFC4";
shapes = (
{
closed = 1;
nodes = (
(727,75,l),
(752,75,o),
(819,51,o),
(881,19,o),
(931,-15,o),
(941,-27,q),
(1076,111,l),
(1061,131,l),
(1027,102,l),
(975,151,l),
(975,1027,l),
(1034,1027,o),
(1118,1107,o),
(1118,1160,q),
(1118,1202,o),
(1076,1238,o),
(1047,1248,q),
(1038,1235,l),
(1059,1231,o),
(1089,1200,o),
(1089,1183,q),
(1089,1160,o),
(1047,1127,o),
(1017,1127,q),
(990,1127,o),
(925,1156,o),
(863,1204,o),
(812,1269,o),
(805,1305,q),
(774,1305,l),
(765,1262,o),
(687,1169,o),
(643,1147,q),
(643,1122,l),
(661,1122,o),
(699,1111,o),
(732,1094,o),
(756,1069,o),
(756,1057,q),
(756,185,l),
(528,76,l),
(420,153,l),
(420,1074,l),
(420,1141,o),
(386,1231,o),
(324,1284,o),
(244,1305,o),
(198,1305,q),
(164,1305,o),
(93,1275,o),
(36,1225,o),
(0,1160,o),
(0,1127,q),
(0,1105,o),
(4,1098,q),
(13,1098,l),
(13,1131,o),
(78,1176,o),
(116,1176,q),
(151,1176,o),
(198,1120,o),
(198,1065,q),
(198,191,l),
(198,153,o),
(170,153,q),
(170,115,l),
(202,115,o),
(267,84,o),
(328,40,o),
(382,-7,o),
(402,-25,q),
(756,153,l),
(756,151,l),
(756,113,o),
(727,113,q)
);
}
);
width = 1138;
}
);
unicode = 4608;
},
{
glyphname = uni1201;
layers = (
{
layerId = "55B2AD78-00C4-470B-8999-F57615B8BFC4";
shapes = (
{
closed = 1;
nodes = (
(727,71,l),
(752,71,o),
(819,48,o),
(881,15,o),
(931,-19,o),
(941,-31,q),
(1076,107,l),
(1061,128,l),
(1027,97,l),
(975,147,l),
(975,664,l),
(1053,717,l),
(1138,648,l),
(1127,635,o),
(1124,579,o),
(1124,568,q),
(1124,540,o),
(1147,490,o),
(1185,450,o),
(1235,428,o),
(1262,428,q),
(1330,428,o),
(1404,466,o),
(1404,515,q),
(1404,536,o),
(1397,553,o),
(1391,559,q),
(1366,559,l),
(1370,553,o),
(1380,528,o),
(1380,521,q),
(1380,500,o),
(1345,483,o),
(1324,483,q),
(1305,483,o),
(1271,542,o),
(1271,579,q),
(1271,599,o),
(1313,670,o),
(1347,697,q),
(1347,721,l),
(1330,721,o),
(1273,746,o),
(1218,779,o),
(1176,812,o),
(1176,825,q),
(1149,825,l),
(975,708,l),
(975,1027,l),
(1034,1027,o),
(1118,1107,o),
(1118,1160,q),
(1118,1202,o),
(1076,1238,o),
(1047,1248,q),
(1038,1235,l),
(1059,1231,o),
(1089,1200,o),
(1089,1183,q),
(1089,1160,o),
(1047,1127,o),
(1017,1127,q),
(990,1127,o),
(925,1156,o),
(863,1204,o),
(812,1269,o),
(805,1305,q),
(774,1305,l),
(765,1262,o),
(687,1169,o),
(643,1147,q),
(643,1124,l),
(661,1124,o),
(699,1112,o),
(732,1096,o),
(756,1071,o),
(756,1059,q),
(756,193,l),
(528,76,l),
(420,153,l),
(420,1074,l),
(420,1141,o),
(386,1231,o),
(324,1284,o),
(244,1305,o),
(198,1305,q),
(164,1305,o),
(93,1275,o),
(36,1225,o),
(0,1160,o),
(0,1127,q),
(0,1105,o),
(4,1098,q),
(13,1098,l),
(13,1131,o),
(78,1176,o),
(116,1176,q),
(151,1176,o),
(198,1120,o),
(198,1065,q),
(198,191,l),
(198,153,o),
(170,153,q),
(170,115,l),
(202,115,o),
(267,84,o),
(328,40,o),
(382,-7,o),
(402,-25,q),
(756,160,l),
(756,147,l),
(756,109,o),
(727,109,q)
);
}
);
width = 1424;
}
);
unicode = 4609;
},
{
glyphname = uni1202;
layers = (
{
layerId = "55B2AD78-00C4-470B-8999-F57615B8BFC4";
shapes = (
{
closed = 1;
nodes = (
(674,115,l),
(689,115,o),
(756,75,o),
(825,25,o),
(876,-21,o),
(876,-27,q),
(905,-27,l),
(956,13,o),
(1056,84,o),
(1141,137,o),
(1204,168,o),
(1220,168,q),
(1220,193,l),
(1202,206,o),
(1169,246,o),
(1147,288,o),
(1131,326,o),
(1131,337,q),
(1131,388,o),
(1162,439,o),
(1181,439,q),
(1202,439,o),
(1233,410,o),
(1233,389,q),
(1233,388,l),
(1262,388,l),
(1262,389,l),
(1262,420,o),
(1235,450,o),
(1207,470,o),
(1162,483,o),
(1107,483,q),
(1080,483,o),
(1034,456,o),
(1000,416,o),
(981,370,o),
(981,353,q),
(981,322,o),
(1000,250,o),
(1029,185,o),
(1063,135,o),
(1080,128,q),
(994,75,l),
(965,75,o),
(925,105,o),
(925,126,q),
(925,1098,l),
(985,1098,o),
(1069,1178,o),
(1069,1231,q),
(1069,1273,o),
(1027,1309,o),
(998,1318,q),
(989,1305,l),
(1009,1302,o),
(1040,1271,o),
(1040,1254,q),
(1040,1231,o),
(998,1198,o),
(967,1198,q),
(941,1198,o),
(876,1227,o),
(812,1275,o),
(763,1340,o),
(756,1376,q),
(725,1376,l),
(716,1332,o),
(637,1240,o),
(593,1218,q),
(593,1193,l),
(610,1193,o),
(648,1181,o),
(683,1164,o),
(706,1139,o),
(706,1127,q),
(706,717,l),
(526,648,l),
(420,734,l),
(420,1145,l),
(420,1211,o),
(386,1302,o),
(324,1355,o),
(244,1376,o),
(198,1376,q),
(164,1376,o),
(93,1345,o),
(36,1296,o),
(0,1231,o),
(0,1198,q),
(0,1176,o),
(4,1167,q),
(13,1167,l),
(13,1202,o),
(78,1246,o),
(116,1246,q),
(151,1246,o),
(198,1191,o),
(198,1136,q),
(198,772,l),
(198,734,o),
(170,734,q),
(170,697,l),
(202,697,o),
(267,666,o),
(328,622,o),
(382,574,o),
(402,557,q),
(706,675,l),
(706,193,l),
(706,166,o),
(689,151,o),
(674,151,q)
);
}
);
width = 1280;
}
);
unicode = 4610;
},
{
glyphname = uni1203;
layers = (
{
layerId = "55B2AD78-00C4-470B-8999-F57615B8BFC4";
shapes = (
{
closed = 1;
nodes = (
(677,76,l),
(703,76,o),
(769,53,o),
(832,21,o),
(881,-13,o),
(891,-25,q),
(1027,113,l),
(1011,133,l),
(977,103,l),
(925,153,l),
(925,1094,l),
(985,1094,o),
(1069,1174,o),
(1069,1227,q),
(1069,1269,o),
(1027,1305,o),
(998,1315,q),
(989,1302,l),
(1009,1298,o),
(1040,1267,o),
(1040,1249,q),
(1040,1227,o),
(998,1194,o),
(967,1194,q),
(941,1194,o),
(876,1223,o),
(812,1271,o),
(763,1336,o),
(756,1372,q),
(725,1372,l),
(716,1328,o),
(637,1236,o),
(593,1214,q),
(593,1189,l),
(610,1189,o),
(648,1178,o),
(683,1160,o),
(706,1136,o),
(706,1124,q),
(706,714,l),
(526,648,l),
(420,730,l),
(420,1141,l),
(420,1207,o),
(386,1298,o),
(324,1351,o),
(244,1372,o),
(198,1372,q),
(164,1372,o),
(93,1342,o),
(36,1291,o),
(0,1227,o),
(0,1194,q),
(0,1171,o),
(4,1164,q),
(13,1164,l),
(13,1198,o),
(78,1242,o),
(116,1242,q),
(151,1242,o),
(198,1187,o),
(198,1131,q),
(198,769,l),
(198,730,o),
(170,730,q),
(170,692,l),
(202,692,o),
(267,662,o),
(328,619,o),
(382,570,o),
(402,553,q),
(706,672,l),
(706,153,l),
(706,115,o),
(677,115,q)
);
}
);
width = 1087;
}
);
unicode = 4611;
},
{
glyphname = uni1204;
layers = (
{
layerId = "55B2AD78-00C4-470B-8999-F57615B8BFC4";
shapes = (
{
closed = 1;
nodes = (
(677,113,l),
(692,113,o),
(757,73,o),
(828,25,o),
(885,-21,o),
(891,-27,q),
(1167,99,l),
(1167,124,l),
(1158,116,o),
(1139,115,q),
(1139,408,l),
(1134,408,o),
(1103,416,o),
(1072,431,o),
(1047,454,o),
(1047,468,q),
(1019,468,l),
(1019,462,o),
(998,443,o),
(967,420,o),
(935,401,o),
(925,397,q),
(925,1096,l),
(985,1096,o),
(1069,1176,o),
(1069,1229,q),
(1069,1271,o),
(1027,1307,o),
(998,1316,q),
(989,1303,l),
(1009,1300,o),
(1040,1269,o),
(1040,1251,q),
(1040,1229,o),
(998,1196,o),
(967,1196,q),
(941,1196,o),
(876,1225,o),
(812,1273,o),
(763,1338,o),
(756,1374,q),
(725,1374,l),
(716,1330,o),
(637,1238,o),
(593,1216,q),
(593,1191,l),
(610,1191,o),
(648,1180,o),
(683,1162,o),
(706,1138,o),
(706,1125,q),
(706,716,l),
(526,648,l),
(420,732,l),
(420,1143,l),
(420,1209,o),
(386,1300,o),
(324,1353,o),
(244,1374,o),
(198,1374,q),
(164,1374,o),
(93,1344,o),
(36,1294,o),
(0,1229,o),
(0,1196,q),
(0,1174,o),
(4,1166,q),
(13,1166,l),
(13,1200,o),
(78,1244,o),
(116,1244,q),
(151,1244,o),
(198,1189,o),
(198,1134,q),
(198,771,l),
(198,732,o),
(170,732,q),
(170,694,l),
(202,694,o),
(267,664,o),
(328,621,o),
(382,572,o),
(402,555,q),
(706,674,l),
(706,191,l),
(706,173,o),
(692,151,o),
(677,151,q)
);
},
{
closed = 1;
nodes = (
(1051,366,l),
(1051,105,l),
(1032,97,l),
(983,97,o),
(925,118,o),
(925,157,q),
(925,366,l),
(952,378,o),
(989,401,o),
(1005,410,q)
);
}
);
width = 1187;
}
);
unicode = 4612;
},
{
glyphname = uni1205;
layers = (
{
layerId = "55B2AD78-00C4-470B-8999-F57615B8BFC4";
shapes = (
{
closed = 1;
nodes = (
(727,71,l),
(752,71,o),
(819,48,o),
(881,15,o),
(931,-19,o),
(941,-31,q),
(1076,107,l),
(1061,128,l),
(1027,97,l),
(975,147,l),
(975,1027,l),
(1034,1027,o),
(1118,1107,o),
(1118,1160,q),
(1118,1202,o),
(1076,1238,o),
(1047,1248,q),
(1038,1235,l),
(1059,1231,o),
(1089,1200,o),
(1089,1183,q),
(1089,1160,o),
(1047,1127,o),
(1017,1127,q),
(990,1127,o),
(925,1156,o),
(863,1204,o),
(812,1269,o),
(805,1305,q),
(774,1305,l),
(765,1262,o),
(687,1169,o),
(643,1147,q),
(643,1122,l),
(661,1122,o),
(699,1111,o),
(732,1094,o),
(756,1069,o),
(756,1057,q),
(756,189,l),
(528,75,l),
(420,153,l),
(420,1074,l),
(420,1141,o),
(386,1231,o),
(324,1284,o),
(244,1305,o),
(198,1305,q),
(164,1305,o),
(93,1275,o),
(36,1225,o),
(0,1160,o),
(0,1127,q),
(0,1105,o),
(4,1098,q),
(13,1098,l),
(13,1131,o),
(78,1176,o),
(116,1176,q),
(151,1176,o),
(198,1120,o),
(198,1065,q),
(198,887,l),
(220,887,o),
(279,851,o),
(334,792,o),
(372,717,o),
(372,679,q),
(357,704,o),
(309,741,o),
(260,765,o),
(211,779,o),
(198,779,q),
(198,191,l),
(198,153,o),
(170,153,q),
(170,115,l),
(202,115,o),
(267,84,o),
(328,40,o),
(382,-7,o),
(402,-25,q),
(756,157,l),
(756,147,l),
(756,109,o),
(727,109,q)
);
}
);
width = 1138;
}
);
unicode = 4613;
},
{
glyphname = uni1206;
layers = (
{
layerId = "55B2AD78-00C4-470B-8999-F57615B8BFC4";
shapes = (
{
closed = 1;
nodes = (
(727,65,l),
(752,65,o),
(819,42,o),
(881,9,o),
(931,-25,o),
(941,-36,q),
(1076,102,l),
(1061,122,l),
(1027,91,l),
(975,142,l),
(975,683,l),
(985,690,o),
(1053,725,o),
(1134,759,o),
(1204,786,o),
(1216,786,q),
(1216,805,l),
(1187,805,o),
(1187,843,q),
(1187,1147,l),
(1153,1147,o),
(1030,1162,o),
(908,1198,o),
(812,1260,o),
(805,1305,q),
(774,1305,l),
(771,1282,o),
(746,1231,o),
(710,1185,o),
(666,1151,o),
(643,1147,q),
(643,1124,l),
(661,1124,o),
(699,1112,o),
(732,1096,o),
(756,1071,o),
(756,1059,q),
(756,189,l),
(528,78,l),
(420,155,l),
(420,1076,l),
(420,1143,o),
(386,1233,o),
(324,1286,o),
(244,1307,o),
(198,1307,q),
(164,1307,o),
(93,1276,o),
(36,1227,o),
(0,1162,o),
(0,1129,q),
(0,1107,o),
(4,1099,q),
(13,1099,l),
(13,1134,o),
(78,1178,o),
(116,1178,q),
(151,1178,o),
(198,1122,o),
(198,1067,q),
(198,193,l),
(198,155,o),
(170,155,q),
(170,116,l),
(202,116,o),
(267,86,o),
(328,42,o),
(382,-6,o),
(402,-23,q),
(756,157,l),
(756,142,l),
(756,103,o),
(727,103,q)
);
},
{
closed = 1;
nodes = (
(1099,772,l),
(975,714,l),
(975,985,l),
(975,1057,o),
(1047,1107,o),
(1099,1107,q)
);
}
);
width = 1235;
}
);
unicode = 4614;
},
{
glyphname = uni1208;
layers = (
{
layerId = "55B2AD78-00C4-470B-8999-F57615B8BFC4";
shapes = (
{
closed = 1;
nodes = (
(197,120,l),
(197,82,o),
(168,82,q),
(168,44,l),
(193,44,o),
(260,21,o),
(322,-11,o),
(374,-46,o),
(384,-57,q),
(519,80,l),
(504,102,l),
(470,71,l),
(418,120,l),
(418,641,l),
(418,654,o),
(454,708,o),
(512,759,o),
(580,798,o),
(612,798,q),
(716,140,l),
(716,120,o),
(701,59,o),
(659,27,q),
(743,42,l),
(774,9,o),
(889,-25,o),
(945,-25,q),
(1005,-25,o),
(1085,63,o),
(1085,143,q),
(1085,164,o),
(1076,195,o),
(1072,202,q),
(1056,198,l),
(1057,189,o),
(1063,158,o),
(1063,155,q),
(1063,126,o),
(1025,95,o),
(1009,95,q),
(979,95,o),
(941,131,o),
(937,158,q),
(920,282,o),
(885,515,o),
(859,701,o),
(839,823,o),
(838,838,q),
(828,883,o),
(767,990,o),
(683,1091,o),
(592,1180,o),
(552,1206,q),
(502,1244,o),
(420,1305,o),
(410,1309,q),
(361,1309,l),
(361,1294,o),
(326,1238,o),
(273,1183,o),
(202,1141,o),
(168,1141,q),
(149,1141,o),
(99,1153,o),
(99,1169,q),
(99,1181,o),
(103,1193,q),
(82,1193,l),
(80,1189,o),
(73,1178,o),
(73,1166,q),
(73,1125,o),
(157,1091,o),
(220,1091,q),
(279,1091,o),
(357,1099,o),
(410,1118,o),
(448,1145,o),
(470,1166,q),
(477,1164,o),
(525,1111,o),
(552,1072,q),
(559,1057,o),
(576,990,o),
(592,918,o),
(603,849,o),
(607,832,q),
(586,832,o),
(525,811,o),
(466,777,o),
(422,734,o),
(418,714,q),
(418,744,o),
(374,805,o),
(307,851,o),
(231,880,o),
(197,880,q),
(162,880,o),
(93,853,o),
(36,807,o),
(0,746,o),
(0,714,q),
(0,703,o),
(9,674,o),
(19,674,q),
(19,677,l),
(13,679,o),
(11,694,o),
(11,697,q),
(11,730,o),
(76,765,o),
(115,765,q),
(149,765,o),
(197,706,o),
(197,664,q)
);
}
);
width = 1105;
}
);
unicode = 4616;
},
{
glyphname = uni1209;
layers = (
{
layerId = "55B2AD78-00C4-470B-8999-F57615B8BFC4";
shapes = (
{
closed = 1;
nodes = (
(197,120,l),
(197,82,o),
(168,82,q),
(168,44,l),
(193,44,o),
(260,21,o),
(322,-13,o),
(374,-48,o),
(384,-59,q),
(519,40,l),
(504,61,l),
(468,33,l),
(418,80,l),
(418,641,l),
(418,654,o),
(454,708,o),
(512,759,o),
(580,798,o),
(612,798,q),
(716,140,l),
(716,120,o),
(701,59,o),
(659,27,q),
(743,42,l),
(774,9,o),
(889,-25,o),
(945,-25,q),
(1005,-25,o),
(1085,63,o),
(1085,143,q),
(1085,164,o),
(1076,195,o),
(1072,202,q),
(1056,198,l),
(1057,189,o),
(1063,158,o),
(1063,155,q),
(1063,126,o),
(1025,95,o),
(1009,95,q),
(979,95,o),
(941,131,o),
(937,158,q),
(910,332,o),
(866,643,o),
(853,737,q),
(905,772,l),
(989,704,l),
(979,690,o),
(975,634,o),
(975,624,q),
(975,595,o),
(998,546,o),
(1036,506,o),
(1085,483,o),
(1112,483,q),
(1181,483,o),
(1256,521,o),
(1256,570,q),
(1256,592,o),
(1248,608,o),
(1242,614,q),
(1218,614,l),
(1221,608,o),
(1231,584,o),
(1231,576,q),
(1231,555,o),
(1196,539,o),
(1176,539,q),
(1156,539,o),
(1122,597,o),
(1122,634,q),
(1122,654,o),
(1164,725,o),
(1198,752,q),
(1198,777,l),
(1181,777,o),
(1124,801,o),
(1069,834,o),
(1027,868,o),
(1027,880,q),
(1000,880,l),
(847,774,l),
(838,838,l),
(836,876,o),
(772,979,o),
(685,1082,o),
(588,1178,o),
(552,1206,q),
(504,1242,o),
(420,1305,o),
(410,1309,q),
(361,1309,l),
(361,1294,o),
(326,1238,o),
(273,1183,o),
(202,1141,o),
(168,1141,q),
(149,1141,o),
(99,1153,o),
(99,1169,q),
(99,1181,o),
(103,1193,q),
(82,1193,l),
(80,1189,o),
(73,1178,o),
(73,1166,q),
(73,1125,o),
(157,1078,o),
(220,1078,q),
(279,1078,o),
(357,1089,o),
(410,1112,o),
(448,1145,o),
(470,1166,q),
(477,1164,o),
(532,1112,o),
(552,1072,q),
(563,1047,o),
(580,981,o),
(593,912,o),
(603,849,o),
(607,832,q),
(586,832,o),
(525,811,o),
(466,777,o),
(422,734,o),
(418,714,q),
(418,744,o),
(374,805,o),
(307,851,o),
(231,880,o),
(197,880,q),
(162,880,o),
(93,853,o),
(36,807,o),
(0,746,o),
(0,714,q),
(0,703,o),
(9,674,o),
(19,674,q),
(19,677,l),
(13,679,o),
(11,694,o),
(11,697,q),
(11,730,o),
(76,765,o),
(115,765,q),
(149,765,o),
(197,706,o),
(197,664,q)
);
}
);
width = 1275;
}
);
unicode = 4617;
},
{
glyphname = uni120A;
layers = (
{
layerId = "55B2AD78-00C4-470B-8999-F57615B8BFC4";
shapes = (
{
closed = 1;
nodes = (
(907,-25,l),
(958,15,o),
(1069,88,o),
(1167,143,o),
(1242,175,o),
(1258,175,q),
(1258,200,l),
(1221,227,o),
(1162,311,o),
(1162,344,q),
(1162,386,o),
(1193,446,o),
(1214,446,q),
(1231,446,o),
(1262,418,o),
(1262,397,q),
(1288,397,l),
(1288,452,o),
(1229,490,o),
(1147,490,q),
(1096,490,o),
(1019,416,o),
(1019,361,q),
(1019,284,o),
(1074,158,o),
(1116,142,q),
(1032,91,l),
(1002,103,o),
(947,170,o),
(943,195,q),
(941,208,o),
(935,239,o),
(925,292,o),
(912,378,o),
(891,512,o),
(859,704,o),
(838,838,q),
(830,885,o),
(767,992,o),
(685,1091,o),
(592,1180,o),
(552,1206,q),
(502,1244,o),
(420,1305,o),
(410,1309,q),
(361,1309,l),
(361,1294,o),
(326,1238,o),
(273,1183,o),
(202,1141,o),
(168,1141,q),
(149,1141,o),
(99,1153,o),
(99,1169,q),
(99,1181,o),
(103,1193,q),
(82,1193,l),
(80,1189,o),
(73,1178,o),
(73,1166,q),
(73,1125,o),
(157,1091,o),
(220,1091,q),
(279,1091,o),
(357,1099,o),
(410,1118,o),
(448,1145,o),
(470,1166,q),
(477,1164,o),
(525,1111,o),
(552,1072,q),
(559,1057,o),
(576,990,o),
(592,918,o),
(603,849,o),
(607,832,q),
(586,832,o),
(525,811,o),
(466,777,o),
(422,734,o),
(418,714,q),
(418,744,o),
(374,805,o),
(307,851,o),
(231,880,o),
(197,880,q),
(162,880,o),
(93,853,o),
(36,807,o),
(0,746,o),
(0,714,q),
(0,703,o),
(9,674,o),
(19,674,q),
(19,677,l),
(13,679,o),
(11,694,o),
(11,697,q),
(11,730,o),
(76,765,o),
(115,765,q),
(149,765,o),
(197,706,o),
(197,664,q),
(197,118,l),
(197,80,o),
(168,80,q),
(168,42,l),
(193,42,o),
(260,19,o),
(322,-11,o),
(374,-46,o),
(384,-57,q),
(519,42,l),
(504,63,l),
(468,34,l),
(418,82,l),
(418,641,l),
(418,654,o),
(454,708,o),
(512,759,o),
(580,798,o),
(612,798,q),
(717,175,l),
(717,147,o),
(685,80,o),
(664,63,q),
(786,36,o),
(878,-17,o),
(878,-25,q)
);
}
);
width = 1307;
}
);
unicode = 4618;
},
{
glyphname = uni120B;
layers = (
{
layerId = "55B2AD78-00C4-470B-8999-F57615B8BFC4";
shapes = (
{
closed = 1;
nodes = (
(197,340,l),
(197,302,o),
(168,302,q),
(168,264,l),
(193,264,o),
(260,237,o),
(322,202,o),
(374,164,o),
(384,153,q),
(519,252,l),
(504,273,l),
(462,244,l),
(418,292,l),
(418,641,l),
(418,654,o),
(454,708,o),
(512,759,o),
(580,798,o),
(612,798,q),
(716,140,l),
(716,120,o),
(701,59,o),
(659,27,q),
(743,42,l),
(774,9,o),
(889,-25,o),
(945,-25,q),
(1005,-25,o),
(1085,63,o),
(1085,143,q),
(1085,164,o),
(1076,195,o),
(1072,202,q),
(1056,198,l),
(1057,189,o),
(1063,158,o),
(1063,155,q),
(1063,126,o),
(1025,95,o),
(1009,95,q),
(979,95,o),
(941,131,o),
(937,158,q),
(920,282,o),
(885,515,o),
(859,701,o),
(839,823,o),
(838,838,q),
(828,883,o),
(767,990,o),
(683,1091,o),
(592,1180,o),
(552,1206,q),
(502,1244,o),
(420,1305,o),
(410,1309,q),
(361,1309,l),
(361,1294,o),
(326,1238,o),
(273,1183,o),
(202,1141,o),
(168,1141,q),
(149,1141,o),
(99,1153,o),
(99,1169,q),
(99,1181,o),
(103,1193,q),
(82,1193,l),
(80,1189,o),
(73,1178,o),
(73,1166,q),
(73,1125,o),
(157,1091,o),
(220,1091,q),
(279,1091,o),
(357,1099,o),
(410,1118,o),
(448,1145,o),
(470,1166,q),
(477,1164,o),
(525,1111,o),
(552,1072,q),
(559,1057,o),
(576,990,o),
(592,918,o),
(603,849,o),
(607,832,q),
(586,832,o),
(525,811,o),
(466,777,o),
(422,734,o),
(418,714,q),
(418,744,o),
(374,805,o),
(307,851,o),
(231,880,o),
(197,880,q),
(162,880,o),
(93,853,o),
(36,807,o),
(0,746,o),
(0,714,q),
(0,703,o),
(9,674,o),
(19,674,q),
(19,677,l),
(13,679,o),
(11,694,o),
(11,697,q),
(11,730,o),
(76,765,o),
(115,765,q),
(149,765,o),
(197,706,o),
(197,664,q)
);
}
);
width = 1105;
}
);
unicode = 4619;
},
{
glyphname = uni120C;
layers = (
{
layerId = "55B2AD78-00C4-470B-8999-F57615B8BFC4";
shapes = (
{
closed = 1;
nodes = (
(929,-25,l),
(963,13,o),
(1047,73,o),
(1124,113,o),
(1183,133,o),
(1193,133,q),
(1193,153,l),
(1180,153,o),
(1153,185,o),
(1153,202,q),
(1122,404,l),
(1122,424,o),
(1160,477,o),
(1160,494,q),
(1160,517,o),
(1156,534,o),
(1153,540,q),
(1139,540,l),
(1139,464,o),
(1047,464,q),
(998,464,o),
(935,481,o),
(899,508,o),
(883,542,o),
(881,559,q),
(838,838,l),
(830,883,o),
(767,990,o),
(685,1091,o),
(592,1180,o),
(552,1206,q),
(502,1244,o),
(420,1305,o),
(410,1309,q),
(361,1309,l),
(361,1294,o),
(326,1238,o),
(273,1183,o),
(202,1141,o),
(168,1141,q),
(149,1141,o),
(99,1153,o),
(99,1169,q),
(99,1181,o),
(103,1193,q),
(82,1193,l),
(80,1189,o),
(73,1178,o),
(73,1166,q),
(73,1125,o),
(157,1091,o),
(220,1091,q),
(279,1091,o),
(357,1099,o),
(410,1118,o),
(448,1145,o),
(470,1166,q),
(477,1164,o),
(525,1111,o),
(552,1072,q),
(559,1057,o),
(576,990,o),
(592,918,o),
(603,849,o),
(607,832,q),
(586,832,o),
(525,811,o),
(466,777,o),
(422,734,o),
(418,714,q),
(418,744,o),
(374,805,o),
(307,851,o),
(231,880,o),
(197,880,q),
(162,880,o),
(93,853,o),
(36,807,o),
(0,746,o),
(0,714,q),
(0,703,o),
(9,674,o),
(19,674,q),
(19,677,l),
(13,679,o),
(11,694,o),
(11,697,q),
(11,730,o),
(76,765,o),
(115,765,q),
(149,765,o),
(197,706,o),
(197,664,q),
(197,120,l),
(197,82,o),
(168,82,q),
(168,44,l),
(193,44,o),
(260,21,o),
(322,-11,o),
(374,-46,o),
(384,-57,q),
(519,42,l),
(504,63,l),
(462,33,l),
(418,82,l),
(418,641,l),
(418,654,o),
(454,708,o),
(512,759,o),
(580,798,o),
(612,798,q),
(719,170,l),
(719,151,o),
(697,88,o),
(654,55,q),
(674,55,o),
(741,42,o),
(809,21,o),
(870,-7,o),
(881,-25,q)
);
},
{
closed = 1;
nodes = (
(910,366,l),
(910,389,o),
(941,414,o),
(981,428,o),
(1025,430,o),
(1038,430,q),
(1080,124,l),
(1047,109,o),
(989,67,o),
(960,46,q)
);
}
);
width = 1211;
}
);
unicode = 4620;
},
{
glyphname = uni120D;
layers = (
{
layerId = "55B2AD78-00C4-470B-8999-F57615B8BFC4";
shapes = (
{
closed = 1;
nodes = (
(197,120,l),
(197,82,o),
(168,82,q),
(168,44,l),
(193,44,o),
(260,21,o),
(322,-13,o),
(374,-48,o),
(384,-59,q),
(630,103,l),
(614,130,l),
(586,111,l),
(586,443,l),
(565,433,o),
(540,424,o),
(510,424,q),
(471,424,o),
(418,481,o),
(418,502,q),
(418,645,l),
(418,659,o),
(464,712,o),
(530,763,o),
(608,801,o),
(641,801,q),
(744,143,l),
(744,124,o),
(729,63,o),
(687,31,q),
(771,46,l),
(803,13,o),
(918,-21,o),
(973,-21,q),
(1034,-21,o),
(1114,67,o),
(1114,147,q),
(1114,168,o),
(1105,198,o),
(1101,206,q),
(1084,202,l),
(1085,193,o),
(1091,162,o),
(1091,158,q),
(1091,130,o),
(1053,99,o),
(1038,99,q),
(1007,99,o),
(969,135,o),
(965,162,q),
(948,286,o),
(914,519,o),
(887,704,o),
(868,826,o),
(866,841,q),
(857,887,o),
(796,994,o),
(712,1096,o),
(621,1183,o),
(580,1209,q),
(530,1248,o),
(448,1309,o),
(439,1313,q),
(389,1313,l),
(389,1298,o),
(355,1242,o),
(302,1187,o),
(231,1145,o),
(197,1145,q),
(177,1145,o),
(128,1156,o),
(128,1174,q),
(128,1185,o),
(131,1196,q),
(111,1196,l),
(109,1193,o),
(102,1181,o),
(102,1169,q),
(102,1129,o),
(185,1096,o),
(248,1096,q),
(307,1096,o),
(386,1103,o),
(439,1122,o),
(477,1149,o),
(498,1169,q),
(506,1167,o),
(553,1114,o),
(580,1076,q),
(588,1061,o),
(605,994,o),
(621,921,o),
(632,853,o),
(635,836,q),
(614,836,o),
(544,814,o),
(475,781,o),
(422,739,o),
(418,717,q),
(418,748,o),
(374,809,o),
(307,855,o),
(231,883,o),
(197,883,q),
(162,883,o),
(93,857,o),
(36,811,o),
(0,750,o),
(0,717,q),
(0,706,o),
(9,677,o),
(19,677,q),
(19,681,l),
(13,683,o),
(11,699,o),
(11,701,q),
(11,734,o),
(76,769,o),
(115,769,q),
(149,769,o),
(197,710,o),
(197,668,q)
);
},
{
closed = 1;
nodes = (
(464,31,l),
(418,80,l),
(418,286,l),
(418,324,o),
(435,366,o),
(464,388,o),
(494,393,o),
(510,393,q),
(510,61,l)
);
}
);
width = 1134;
}
);
unicode = 4621;
},
{
glyphname = uni120E;
layers = (
{
layerId = "55B2AD78-00C4-470B-8999-F57615B8BFC4";
shapes = (
{
closed = 1;
nodes = (
(197,120,l),
(197,82,o),
(168,82,q),
(168,44,l),
(193,44,o),
(260,21,o),
(322,-11,o),
(374,-46,o),
(384,-57,q),
(519,42,l),
(504,63,l),
(462,34,l),
(418,82,l),
(418,641,l),
(418,654,o),
(454,708,o),
(512,759,o),
(580,798,o),
(612,798,q),
(716,140,l),
(716,120,o),
(701,59,o),
(659,27,q),
(743,42,l),
(774,9,o),
(889,-25,o),
(945,-25,q),
(1005,-25,o),
(1085,63,o),
(1085,143,q),
(1085,164,o),
(1076,195,o),
(1072,202,q),
(1056,198,l),
(1057,189,o),
(1063,158,o),
(1063,155,q),
(1063,126,o),
(1025,95,o),
(1009,95,q),
(979,95,o),
(941,131,o),
(937,158,q),
(920,282,o),
(885,515,o),
(859,701,o),
(839,823,o),
(838,838,q),
(834,863,o),
(809,916,o),
(794,945,q),
(866,967,l),
(910,967,o),
(973,925,o),
(973,899,q),
(973,692,l),
(973,666,o),
(958,647,o),
(948,647,q),
(948,608,l),
(962,608,o),
(1009,588,o),
(1051,563,o),
(1084,539,o),
(1084,534,q),
(1120,534,l),
(1315,621,l),
(1315,878,l),
(1289,878,o),
(1242,916,o),
(1236,937,q),
(1211,937,l),
(1211,921,o),
(1171,885,o),
(1131,872,q),
(1131,975,l),
(1114,975,o),
(1059,996,o),
(1005,1027,o),
(967,1057,o),
(967,1067,q),
(941,1067,l),
(941,1051,o),
(847,996,o),
(779,967,q),
(732,1040,o),
(601,1167,o),
(502,1244,o),
(420,1305,o),
(410,1309,q),
(361,1309,l),
(361,1294,o),
(326,1238,o),
(273,1183,o),
(202,1141,o),
(168,1141,q),
(149,1141,o),
(99,1153,o),
(99,1169,q),
(99,1181,o),
(103,1193,q),
(82,1193,l),
(80,1189,o),
(73,1178,o),
(73,1166,q),
(73,1125,o),
(157,1091,o),
(220,1091,q),
(279,1091,o),
(357,1099,o),
(410,1118,o),
(448,1145,o),
(470,1166,q),
(477,1164,o),
(530,1116,o),
(552,1072,q),
(559,1057,o),
(574,992,o),
(590,918,o),
(603,849,o),
(607,832,q),
(586,832,o),
(525,811,o),
(466,777,o),
(422,734,o),
(418,714,q),
(418,744,o),
(374,805,o),
(307,851,o),
(231,880,o),
(197,880,q),
(162,880,o),
(93,853,o),
(36,807,o),
(0,746,o),
(0,714,q),
(0,703,o),
(9,674,o),
(19,674,q),
(19,677,l),
(13,679,o),
(11,694,o),
(11,697,q),
(11,730,o),
(76,765,o),
(115,765,q),
(149,765,o),
(197,706,o),
(197,664,q)
);
},
{
closed = 1;
nodes = (
(1221,851,l),
(1221,612,l),
(1181,593,l),
(1151,593,o),
(1131,650,o),
(1131,677,q),
(1131,839,l),
(1147,839,o),
(1196,868,o),
(1206,876,q)
);
}
);
width = 1334;
}
);
unicode = 4622;
},
{
glyphname = uni120F;
layers = (
{
layerId = "55B2AD78-00C4-470B-8999-F57615B8BFC4";
shapes = (
{
closed = 1;
nodes = (
(1118,-128,l),
(1118,-105,o),
(1147,-31,o),
(1189,40,o),
(1236,91,o),
(1258,91,q),
(1284,91,o),
(1311,63,o),
(1311,51,q),
(1311,40,o),
(1298,11,o),
(1282,-13,o),
(1275,-21,q),
(1269,-27,o),
(1267,-29,q),
(1269,-53,l),
(1275,-53,o),
(1302,-36,o),
(1326,-11,o),
(1347,25,o),
(1347,46,q),
(1347,84,o),
(1313,135,o),
(1263,168,o),
(1206,182,o),
(1185,182,q),
(1162,182,o),
(1099,151,o),
(1044,95,o),
(1005,21,o),
(1005,-23,q),
(960,2,l),
(903,386,o),
(841,809,o),
(838,838,q),
(828,883,o),
(767,990,o),
(683,1091,o),
(592,1180,o),
(552,1206,q),
(502,1244,o),
(420,1305,o),
(410,1309,q),
(361,1309,l),
(361,1294,o),
(326,1238,o),
(273,1183,o),
(202,1141,o),
(168,1141,q),
(149,1141,o),
(99,1153,o),
(99,1169,q),
(99,1181,o),
(103,1193,q),
(82,1193,l),
(80,1189,o),
(73,1178,o),
(73,1166,q),
(73,1125,o),
(157,1091,o),
(220,1091,q),
(279,1091,o),
(357,1099,o),
(410,1118,o),
(448,1145,o),
(470,1166,q),
(477,1164,o),
(525,1111,o),
(552,1072,q),
(559,1057,o),
(576,990,o),
(592,918,o),
(603,849,o),
(607,832,q),
(586,832,o),
(525,811,o),
(466,777,o),
(422,734,o),
(418,714,q),
(418,744,o),
(374,805,o),
(307,851,o),
(231,880,o),
(197,880,q),
(162,880,o),
(93,853,o),
(36,807,o),
(0,746,o),
(0,714,q),
(0,703,o),
(9,674,o),
(19,674,q),
(19,677,l),
(13,679,o),
(11,694,o),
(11,697,q),
(11,730,o),
(76,765,o),
(115,765,q),
(149,765,o),
(197,706,o),
(197,664,q),
(197,334,l),
(197,295,o),
(168,295,q),
(168,257,l),
(193,257,o),
(260,233,o),
(322,200,o),
(374,164,o),
(384,153,q),
(519,252,l),
(504,273,l),
(460,244,l),
(418,292,l),
(418,641,l),
(418,654,o),
(454,708,o),
(512,759,o),
(580,798,o),
(612,798,q),
(727,88,l),
(654,118,o),
(555,166,o),
(555,182,q),
(525,182,l),
(525,157,o),
(504,75,o),
(471,-6,o),
(431,-63,o),
(412,-63,q),
(391,-63,o),
(361,-34,o),
(357,2,q),
(344,0,l),
(344,-7,o),
(344,-13,q),
(344,-21,o),
(346,-31,q),
(355,-97,o),
(431,-147,o),
(477,-147,q),
(500,-147,o),
(563,-109,o),
(622,-48,o),
(664,29,o),
(664,65,q),
(704,44,o),
(849,-13,o),
(992,-71,o),
(1098,-118,o),
(1098,-130,q)
);
}
);
width = 1366;
}
);
unicode = 4623;
},
{
glyphname = uni1210;
layers = (
{
layerId = "55B2AD78-00C4-470B-8999-F57615B8BFC4";
shapes = (
{
closed = 1;
nodes = (
(927,76,l),
(952,76,o),
(1019,53,o),
(1082,21,o),
(1131,-13,o),
(1141,-25,q),
(1276,113,l),
(1262,133,l),
(1227,103,l),
(1176,153,l),
(1176,703,l),
(1176,741,o),
(1216,786,o),
(1240,786,q),
(1240,812,l),
(1209,812,o),
(1124,830,o),
(1045,857,o),
(990,891,o),
(990,907,q),
(963,907,l),
(963,887,o),
(916,847,o),
(851,814,o),
(784,794,o),
(765,794,q),
(765,1085,l),
(765,1111,o),
(807,1149,o),
(832,1149,q),
(832,1193,l),
(805,1193,o),
(725,1225,o),
(650,1271,o),
(595,1316,o),
(595,1330,q),
(565,1330,l),
(565,1316,o),
(532,1275,o),
(488,1235,o),
(444,1206,o),
(433,1206,q),
(433,1181,l),
(444,1181,o),
(483,1169,o),
(519,1153,o),
(546,1127,o),
(546,1116,q),
(546,794,l),
(355,794,l),
(355,821,o),
(324,872,o),
(271,912,o),
(198,937,o),
(158,937,q),
(86,937,o),
(0,883,o),
(0,839,q),
(0,830,o),
(0,821,q),
(0,811,o),
(4,801,q),
(21,801,l),
(23,828,o),
(51,865,o),
(76,865,q),
(99,865,o),
(133,821,o),
(133,763,q),
(133,149,l),
(133,111,o),
(105,111,q),
(105,73,l),
(130,73,o),
(197,49,o),
(260,17,o),
(311,-17,o),
(321,-29,q),
(456,109,l),
(441,130,l),
(406,99,l),
(355,149,l),
(355,767,l),
(546,767,l),
(546,49,l),
(744,-25,l),
(861,133,l),
(839,149,l),
(819,120,l),
(765,153,l),
(765,767,l),
(783,767,o),
(825,774,o),
(865,788,o),
(893,801,o),
(899,807,q),
(956,772,l),
(956,153,l),
(956,115,o),
(927,115,q)
);
}
);
width = 1296;
}
);
unicode = 4624;
},
{
glyphname = uni1211;
layers = (
{
layerId = "55B2AD78-00C4-470B-8999-F57615B8BFC4";
shapes = (
{
closed = 1;
nodes = (
(927,75,l),
(952,75,o),
(1019,51,o),
(1082,19,o),
(1131,-15,o),
(1141,-27,q),
(1276,111,l),
(1262,131,l),
(1227,102,l),
(1176,151,l),
(1176,542,l),
(1227,579,l),
(1311,510,l),
(1302,496,o),
(1298,439,o),
(1298,430,q),
(1298,401,o),
(1320,349,o),
(1358,309,o),
(1408,286,o),
(1435,286,q),
(1504,286,o),
(1578,326,o),
(1578,375,q),
(1578,397,o),
(1571,414,o),
(1564,420,q),
(1540,420,l),
(1544,414,o),
(1553,389,o),
(1553,382,q),
(1553,361,o),
(1519,344,o),
(1498,344,q),
(1479,344,o),
(1444,402,o),
(1444,439,q),
(1444,460,o),
(1486,530,o),
(1521,557,q),
(1521,582,l),
(1504,582,o),
(1446,607,o),
(1391,639,o),
(1349,674,o),
(1349,685,q),
(1322,685,l),
(1176,586,l),
(1176,703,l),
(1176,741,o),
(1216,786,o),
(1240,786,q),
(1240,812,l),
(1209,812,o),
(1124,830,o),
(1045,857,o),
(990,891,o),
(990,907,q),
(963,907,l),
(963,887,o),
(916,847,o),
(851,814,o),
(784,794,o),
(765,794,q),
(765,1085,l),
(765,1111,o),
(807,1149,o),
(832,1149,q),
(832,1193,l),
(805,1193,o),
(725,1225,o),
(650,1271,o),
(595,1316,o),
(595,1330,q),
(565,1330,l),
(565,1316,o),
(532,1275,o),
(488,1235,o),
(444,1206,o),
(433,1206,q),
(433,1181,l),
(444,1181,o),
(483,1169,o),
(519,1153,o),
(546,1127,o),
(546,1116,q),
(546,794,l),
(355,794,l),
(355,821,o),
(324,872,o),
(271,912,o),
(198,937,o),
(158,937,q),
(86,937,o),
(0,883,o),
(0,839,q),
(0,830,o),
(0,821,q),
(0,811,o),
(4,801,q),
(21,801,l),
(23,828,o),
(51,865,o),
(76,865,q),
(99,865,o),
(133,821,o),
(133,763,q),
(133,149,l),
(133,111,o),
(105,111,q),
(105,73,l),
(130,73,o),
(197,49,o),
(260,17,o),
(311,-17,o),
(321,-29,q),
(456,109,l),
(441,130,l),
(406,99,l),
(355,149,l),
(355,767,l),
(546,767,l),
(546,49,l),
(744,-25,l),
(861,133,l),
(839,149,l),
(819,120,l),
(765,153,l),
(765,767,l),
(783,767,o),
(825,774,o),
(865,788,o),
(893,801,o),
(899,807,q),
(956,772,l),
(956,151,l),
(956,113,o),
(927,113,q)
);
}
);
width = 1597;
}
);
unicode = 4625;
},
{
glyphname = uni1212;
layers = (
{
layerId = "55B2AD78-00C4-470B-8999-F57615B8BFC4";
shapes = (
{
closed = 1;
nodes = (
(923,80,l),
(939,80,o),
(1013,51,o),
(1091,15,o),
(1151,-19,o),
(1151,-25,q),
(1276,55,o),
(1439,170,o),
(1469,170,q),
(1469,195,l),
(1453,208,o),
(1420,248,o),
(1397,290,o),
(1382,328,o),
(1382,340,q),
(1382,389,o),
(1412,441,o),
(1431,441,q),
(1453,441,o),
(1482,412,o),
(1482,391,q),
(1482,389,l),
(1511,389,l),
(1511,391,l),
(1511,422,o),
(1484,452,o),
(1458,471,o),
(1412,484,o),
(1357,484,q),
(1330,484,o),
(1284,458,o),
(1249,418,o),
(1231,372,o),
(1231,355,q),
(1231,324,o),
(1249,252,o),
(1278,187,o),
(1313,137,o),
(1330,130,q),
(1244,76,l),
(1216,76,o),
(1176,107,o),
(1176,128,q),
(1176,703,l),
(1176,741,o),
(1216,786,o),
(1240,786,q),
(1240,812,l),
(1209,812,o),
(1124,830,o),
(1045,857,o),
(990,891,o),
(990,907,q),
(963,907,l),
(963,887,o),
(916,847,o),
(851,814,o),
(784,794,o),
(765,794,q),
(765,1085,l),
(765,1111,o),
(807,1149,o),
(832,1149,q),
(832,1193,l),
(805,1193,o),
(725,1225,o),
(650,1271,o),
(595,1316,o),
(595,1330,q),
(565,1330,l),
(565,1316,o),
(532,1275,o),
(488,1235,o),
(444,1206,o),
(433,1206,q),
(433,1181,l),
(444,1181,o),
(483,1169,o),
(519,1153,o),
(546,1127,o),
(546,1116,q),
(546,794,l),
(355,794,l),
(355,821,o),
(324,872,o),
(271,912,o),
(198,937,o),
(158,937,q),
(86,937,o),
(0,883,o),
(0,839,q),
(0,830,o),
(0,821,q),
(0,811,o),
(4,801,q),
(21,801,l),
(23,828,o),
(51,865,o),
(76,865,q),
(99,865,o),
(133,821,o),
(133,763,q),
(133,149,l),
(133,111,o),
(105,111,q),
(105,73,l),
(130,73,o),
(197,49,o),
(260,17,o),
(311,-17,o),
(321,-29,q),
(456,109,l),
(441,130,l),
(406,99,l),
(355,149,l),
(355,767,l),
(546,767,l),
(546,49,l),
(744,-25,l),
(861,133,l),
(839,149,l),
(819,120,l),
(765,153,l),
(765,767,l),
(783,767,o),
(825,774,o),
(865,788,o),
(893,801,o),
(899,807,q),
(956,772,l),
(956,158,l),
(956,131,o),
(939,116,o),
(923,116,q)
);
}
);
width = 1530;
}
);
unicode = 4626;
},
{
glyphname = uni1213;
layers = (
{
layerId = "55B2AD78-00C4-470B-8999-F57615B8BFC4";
shapes = (
{
closed = 1;
nodes = (
(927,75,l),
(952,75,o),
(1019,51,o),
(1082,19,o),
(1131,-15,o),
(1141,-27,q),
(1276,111,l),
(1262,131,l),
(1227,102,l),
(1176,151,l),
(1176,703,l),
(1176,741,o),
(1216,786,o),
(1240,786,q),
(1240,812,l),
(1209,812,o),
(1124,830,o),
(1045,857,o),
(990,891,o),
(990,907,q),
(963,907,l),
(963,887,o),
(916,847,o),
(851,814,o),
(784,794,o),
(765,794,q),
(765,1085,l),
(765,1111,o),
(807,1149,o),
(832,1149,q),
(832,1193,l),
(805,1193,o),
(725,1225,o),
(650,1271,o),
(595,1316,o),
(595,1330,q),
(565,1330,l),
(565,1316,o),
(532,1275,o),
(488,1235,o),
(444,1206,o),
(433,1206,q),
(433,1181,l),
(444,1181,o),
(483,1169,o),
(519,1153,o),
(546,1127,o),
(546,1116,q),
(546,794,l),
(355,794,l),
(355,821,o),
(324,872,o),
(271,912,o),
(198,937,o),
(158,937,q),
(86,937,o),
(0,883,o),
(0,839,q),
(0,830,o),
(0,821,q),
(0,811,o),
(4,801,q),
(21,801,l),
(23,828,o),
(51,865,o),
(76,865,q),
(99,865,o),
(133,821,o),
(133,763,q),
(133,408,l),
(133,370,o),
(105,370,q),
(105,332,l),
(130,332,o),
(197,309,o),
(260,277,o),
(311,242,o),
(321,231,q),
(456,368,l),
(441,389,l),
(406,359,l),
(355,408,l),
(355,767,l),
(546,767,l),
(546,309,l),
(744,235,l),
(861,393,l),
(839,408,l),
(819,380,l),
(765,412,l),
(765,767,l),
(783,767,o),
(825,774,o),
(865,788,o),
(893,801,o),
(899,807,q),
(956,772,l),
(956,151,l),
(956,113,o),
(927,113,q)
);
}
);
width = 1296;
}
);
unicode = 4627;
},
{
glyphname = uni1214;
layers = (
{
layerId = "55B2AD78-00C4-470B-8999-F57615B8BFC4";
shapes = (
{
closed = 1;
nodes = (
(927,82,l),
(943,82,o),
(1007,51,o),
(1078,15,o),
(1136,-21,o),
(1141,-27,q),
(1418,99,l),
(1418,124,l),
(1408,116,o),
(1389,115,q),
(1389,408,l),
(1384,408,o),
(1353,416,o),
(1322,431,o),
(1298,454,o),
(1298,468,q),
(1269,468,l),
(1269,462,o),
(1248,443,o),
(1218,420,o),
(1185,401,o),
(1176,397,q),
(1176,703,l),
(1176,741,o),
(1216,786,o),
(1240,786,q),
(1240,812,l),
(1209,812,o),
(1124,830,o),
(1045,857,o),
(990,891,o),
(990,907,q),
(963,907,l),
(963,887,o),
(916,847,o),
(851,814,o),
(784,794,o),
(765,794,q),
(765,1085,l),
(765,1111,o),
(807,1149,o),
(832,1149,q),
(832,1193,l),
(805,1193,o),
(725,1225,o),
(650,1271,o),
(595,1316,o),
(595,1330,q),
(565,1330,l),
(565,1316,o),
(532,1275,o),
(488,1235,o),
(444,1206,o),
(433,1206,q),
(433,1181,l),
(444,1181,o),
(483,1169,o),
(519,1153,o),
(546,1127,o),
(546,1116,q),
(546,794,l),
(355,794,l),
(355,821,o),
(324,872,o),
(271,912,o),
(198,937,o),
(158,937,q),
(86,937,o),
(0,883,o),
(0,839,q),
(0,830,o),
(0,821,q),
(0,811,o),
(4,801,q),
(21,801,l),
(23,828,o),
(51,865,o),
(76,865,q),
(99,865,o),
(133,821,o),
(133,763,q),
(133,149,l),
(133,111,o),
(105,111,q),
(105,73,l),
(130,73,o),
(197,49,o),
(260,17,o),
(311,-17,o),
(321,-29,q),
(456,109,l),
(441,130,l),
(406,99,l),
(355,149,l),
(355,767,l),
(546,767,l),
(546,49,l),
(744,-25,l),
(861,133,l),
(839,149,l),
(819,120,l),
(765,153,l),
(765,767,l),
(783,767,o),
(825,774,o),
(865,788,o),
(893,801,o),
(899,807,q),
(956,772,l),
(956,160,l),
(956,143,o),
(943,120,o),
(927,120,q)
);
},
{
closed = 1;
nodes = (
(1302,366,l),
(1302,105,l),
(1258,82,l),
(1207,82,o),
(1176,118,o),
(1176,157,q),
(1176,366,l),
(1202,378,o),
(1238,401,o),
(1256,410,q)
);
}
);
width = 1437;
}
);
unicode = 4628;
},
{
glyphname = uni1215;
layers = (
{
layerId = "55B2AD78-00C4-470B-8999-F57615B8BFC4";
shapes = (
{
closed = 1;
nodes = (
(927,75,l),
(952,75,o),
(1019,51,o),
(1082,19,o),
(1131,-15,o),
(1141,-27,q),
(1276,111,l),
(1262,131,l),
(1227,102,l),
(1176,151,l),
(1176,703,l),
(1176,741,o),
(1216,786,o),
(1240,786,q),
(1240,812,l),
(1209,812,o),
(1124,830,o),
(1045,857,o),
(990,891,o),
(990,907,q),
(963,907,l),
(963,887,o),
(916,847,o),
(851,814,o),
(784,794,o),
(765,794,q),
(765,1187,l),
(756,1187,o),
(704,1207,o),
(637,1240,o),
(565,1278,o),
(506,1318,o),
(468,1351,o),
(468,1360,q),
(441,1360,l),
(441,1345,o),
(414,1288,o),
(368,1231,o),
(307,1187,o),
(273,1187,q),
(235,1187,o),
(177,1211,o),
(177,1225,q),
(177,1242,o),
(185,1254,o),
(187,1258,q),
(164,1258,l),
(155,1244,o),
(155,1221,q),
(155,1181,o),
(239,1120,o),
(302,1120,q),
(370,1120,o),
(477,1136,o),
(546,1171,q),
(546,794,l),
(355,794,l),
(355,821,o),
(324,872,o),
(271,912,o),
(198,937,o),
(158,937,q),
(86,937,o),
(0,883,o),
(0,839,q),
(0,830,o),
(0,821,q),
(0,811,o),
(4,801,q),
(21,801,l),
(23,828,o),
(51,865,o),
(76,865,q),
(99,865,o),
(133,821,o),
(133,763,q),
(133,149,l),
(133,111,o),
(105,111,q),
(105,73,l),
(130,73,o),
(197,49,o),
(260,17,o),
(311,-17,o),
(321,-29,q),
(456,109,l),
(441,130,l),
(406,99,l),
(355,149,l),
(355,767,l),
(546,767,l),
(546,49,l),
(744,-25,l),
(861,133,l),
(839,149,l),
(819,120,l),
(765,153,l),
(765,767,l),
(783,767,o),
(825,774,o),
(865,788,o),
(893,801,o),
(899,807,q),
(956,772,l),
(956,151,l),
(956,113,o),
(927,113,q)
);
}
);
width = 1296;
}
);
unicode = 4629;
},
{
glyphname = uni1216;
layers = (
{
layerId = "55B2AD78-00C4-470B-8999-F57615B8BFC4";
shapes = (
{
closed = 1;
nodes = (
(927,330,l),
(952,330,o),
(1019,307,o),
(1082,275,o),
(1131,240,o),
(1141,229,q),
(1276,366,l),
(1262,388,l),
(1227,357,l),
(1176,406,l),
(1176,703,l),
(1176,741,o),
(1216,786,o),
(1240,786,q),
(1240,812,l),
(1209,812,o),
(1124,830,o),
(1045,857,o),
(990,891,o),
(990,907,q),
(963,907,l),
(963,887,o),
(916,847,o),
(851,814,o),
(784,794,o),
(765,794,q),
(765,1085,l),
(765,1111,o),
(807,1149,o),
(832,1149,q),
(832,1193,l),
(805,1193,o),
(725,1225,o),
(650,1271,o),
(595,1316,o),
(595,1330,q),
(565,1330,l),
(565,1316,o),
(532,1275,o),
(488,1235,o),
(444,1206,o),
(433,1206,q),
(433,1181,l),
(444,1181,o),
(483,1169,o),
(519,1153,o),
(546,1127,o),
(546,1116,q),
(546,794,l),
(355,794,l),
(355,821,o),
(324,872,o),
(271,912,o),
(198,937,o),
(158,937,q),
(86,937,o),
(0,883,o),
(0,839,q),
(0,830,o),
(0,821,q),
(0,811,o),
(4,801,q),
(21,801,l),
(23,828,o),
(51,865,o),
(76,865,q),
(99,865,o),
(133,821,o),
(133,763,q),
(133,149,l),
(133,111,o),
(105,111,q),
(105,73,l),
(130,73,o),
(197,49,o),
(260,17,o),
(311,-17,o),
(321,-29,q),
(456,109,l),
(441,130,l),
(406,99,l),
(355,149,l),
(355,767,l),
(546,767,l),
(546,306,l),
(744,231,l),
(861,389,l),
(839,404,l),
(819,375,l),
(765,408,l),
(765,767,l),
(783,767,o),
(825,774,o),
(865,788,o),
(893,801,o),
(899,807,q),
(956,772,l),
(956,406,l),
(956,368,o),
(927,368,q)
);
}
);
width = 1296;
}
);
unicode = 4630;
},
{
glyphname = uni1217;
layers = (
{
layerId = "55B2AD78-00C4-470B-8999-F57615B8BFC4";
shapes = (
{
closed = 1;
nodes = (
(1347,-120,l),
(1347,-97,o),
(1376,-23,o),
(1418,48,o),
(1466,99,o),
(1486,99,q),
(1513,99,o),
(1540,71,o),
(1540,59,q),
(1540,48,o),
(1526,19,o),
(1511,-6,o),
(1504,-13,q),
(1498,-19,o),
(1496,-21,q),
(1498,-46,l),
(1504,-46,o),
(1530,-29,o),
(1555,-4,o),
(1576,33,o),
(1576,53,q),
(1576,91,o),
(1542,143,o),
(1493,175,o),
(1435,189,o),
(1414,189,q),
(1391,189,o),
(1328,158,o),
(1273,103,o),
(1235,29,o),
(1235,-15,q),
(1176,9,l),
(1176,703,l),
(1176,741,o),
(1216,786,o),
(1240,786,q),
(1240,812,l),
(1209,812,o),
(1124,830,o),
(1045,857,o),
(990,891,o),
(990,907,q),
(963,907,l),
(963,887,o),
(916,847,o),
(851,814,o),
(784,794,o),
(765,794,q),
(765,1085,l),
(765,1111,o),
(807,1149,o),
(832,1149,q),
(832,1193,l),
(805,1193,o),
(725,1225,o),
(650,1271,o),
(595,1316,o),
(595,1330,q),
(565,1330,l),
(565,1316,o),
(532,1275,o),
(488,1235,o),
(444,1206,o),
(433,1206,q),
(433,1181,l),
(444,1181,o),
(483,1169,o),
(519,1153,o),
(546,1127,o),
(546,1116,q),
(546,794,l),
(355,794,l),
(355,821,o),
(324,872,o),
(271,912,o),
(198,937,o),
(158,937,q),
(86,937,o),
(0,883,o),
(0,839,q),
(0,830,o),
(0,821,q),
(0,811,o),
(4,801,q),
(21,801,l),
(23,828,o),
(51,865,o),
(76,865,q),
(99,865,o),
(133,821,o),
(133,763,q),
(133,408,l),
(133,370,o),
(105,370,q),
(105,332,l),
(130,332,o),
(197,309,o),
(260,277,o),
(311,242,o),
(321,231,q),
(456,368,l),
(441,389,l),
(406,359,l),
(355,408,l),
(355,767,l),
(546,767,l),
(546,309,l),
(744,235,l),
(861,393,l),
(839,408,l),
(819,380,l),
(765,412,l),
(765,767,l),
(783,767,o),
(825,774,o),
(865,788,o),
(893,801,o),
(899,807,q),
(956,772,l),
(956,95,l),
(883,126,o),
(784,173,o),
(784,189,q),
(754,189,l),
(754,164,o),
(732,82,o),
(701,2,o),
(661,-55,o),
(641,-55,q),
(621,-55,o),
(590,-27,o),
(586,9,q),
(572,7,l),
(572,0,o),
(572,-6,q),
(572,-13,o),
(574,-23,q),
(584,-89,o),
(661,-140,o),
(706,-140,q),
(729,-140,o),
(792,-102,o),
(851,-40,o),
(893,36,o),
(893,73,q),
(933,51,o),
(1078,-6,o),
(1221,-63,o),
(1326,-111,o),
(1326,-122,q)
);
}
);
width = 1595;
}
);
unicode = 4631;
},
{
glyphname = uni1218;
layers = (
{
layerId = "55B2AD78-00C4-470B-8999-F57615B8BFC4";
shapes = (
{
closed = 1;
nodes = (
(86,1167,o),
(0,1114,o),
(0,1071,q),
(0,1061,o),
(0,1051,q),
(0,1042,o),
(4,1032,q),
(21,1032,l),
(23,1059,o),
(51,1096,o),
(76,1096,q),
(99,1096,o),
(133,1051,o),
(133,994,q),
(133,164,l),
(133,126,o),
(105,126,q),
(105,88,l),
(130,88,o),
(197,65,o),
(260,33,o),
(311,-2,o),
(321,-13,q),
(484,118,l),
(484,82,l),
(502,71,o),
(553,44,o),
(605,17,o),
(647,-7,o),
(657,-13,q),
(756,71,l),
(706,105,l),
(706,1009,l),
(712,1009,o),
(730,1019,o),
(754,1032,o),
(772,1045,o),
(777,1049,q),
(857,994,l),
(857,164,l),
(857,143,o),
(845,128,o),
(834,128,q),
(834,89,l),
(845,89,o),
(916,65,o),
(990,31,o),
(1049,-4,o),
(1049,-13,q),
(1207,84,l),
(1262,76,o),
(1353,34,o),
(1372,13,q),
(1482,122,l),
(1467,143,l),
(1450,124,l),
(1427,143,l),
(1427,962,l),
(1427,1000,o),
(1467,1045,o),
(1493,1045,q),
(1493,1072,l),
(1462,1072,o),
(1376,1089,o),
(1298,1116,o),
(1242,1151,o),
(1242,1166,q),
(1216,1166,l),
(1216,1154,o),
(1183,1112,o),
(1138,1071,o),
(1091,1040,o),
(1078,1040,q),
(1069,1040,o),
(1019,1071,o),
(958,1114,o),
(899,1164,o),
(881,1181,q),
(870,1162,o),
(823,1112,o),
(769,1069,o),
(719,1038,o),
(706,1038,q),
(689,1038,o),
(634,1067,o),
(570,1109,o),
(508,1160,o),
(483,1181,q),
(454,1138,o),
(395,1057,o),
(355,1025,q),
(355,1051,o),
(324,1103,o),
(271,1143,o),
(198,1167,o),
(158,1167,q)
);
},
{
closed = 1;
nodes = (
(1078,130,l),
(1078,1011,l),
(1084,1011,o),
(1109,1023,o),
(1134,1036,o),
(1154,1051,o),
(1156,1056,q),
(1207,1032,l),
(1207,131,l),
(1138,86,l)
);
},
{
closed = 1;
nodes = (
(355,164,l),
(355,979,l),
(404,1029,l),
(484,985,l),
(484,157,l),
(420,109,l)
);
}
);
width = 1511;
}
);
unicode = 4632;
},
{
glyphname = uni1219;
layers = (
{
layerId = "55B2AD78-00C4-470B-8999-F57615B8BFC4";
shapes = (
{
closed = 1;
nodes = (
(1221,82,l),
(1275,75,o),
(1366,33,o),
(1385,11,q),
(1496,120,l),
(1480,142,l),
(1464,122,l),
(1440,142,l),
(1440,687,l),
(1494,725,l),
(1578,654,l),
(1568,641,o),
(1564,584,o),
(1564,574,q),
(1564,546,o),
(1588,496,o),
(1626,456,o),
(1675,433,o),
(1702,433,q),
(1771,433,o),
(1845,471,o),
(1845,521,q),
(1845,542,o),
(1837,559,o),
(1832,565,q),
(1807,565,l),
(1811,559,o),
(1821,534,o),
(1821,526,q),
(1821,506,o),
(1786,488,o),
(1765,488,q),
(1746,488,o),
(1712,548,o),
(1712,584,q),
(1712,605,o),
(1753,675,o),
(1788,703,q),
(1788,727,l),
(1771,727,o),
(1713,752,o),
(1658,784,o),
(1616,819,o),
(1616,830,q),
(1589,830,l),
(1440,729,l),
(1440,963,l),
(1440,1002,o),
(1480,1047,o),
(1506,1047,q),
(1506,1074,l),
(1475,1074,o),
(1389,1091,o),
(1311,1118,o),
(1256,1153,o),
(1256,1167,q),
(1229,1167,l),
(1229,1156,o),
(1196,1114,o),
(1151,1072,o),
(1105,1042,o),
(1091,1042,q),
(1082,1042,o),
(1032,1072,o),
(971,1116,o),
(912,1166,o),
(895,1183,q),
(883,1164,o),
(832,1114,o),
(772,1071,o),
(719,1040,o),
(706,1040,q),
(689,1040,o),
(634,1069,o),
(570,1111,o),
(508,1162,o),
(483,1183,q),
(454,1139,o),
(395,1059,o),
(355,1027,q),
(355,1053,o),
(324,1105,o),
(271,1145,o),
(198,1169,o),
(158,1169,q),
(86,1169,o),
(0,1116,o),
(0,1072,q),
(0,1063,o),
(0,1053,q),
(0,1044,o),
(4,1034,q),
(21,1034,l),
(23,1061,o),
(51,1098,o),
(76,1098,q),
(99,1098,o),
(133,1053,o),
(133,996,q),
(133,162,l),
(133,124,o),
(105,124,q),
(105,86,l),
(130,86,o),
(197,63,o),
(260,31,o),
(311,-4,o),
(321,-15,q),
(484,116,l),
(484,80,l),
(502,69,o),
(553,42,o),
(605,15,o),
(647,-9,o),
(657,-15,q),
(756,69,l),
(706,103,l),
(706,1011,l),
(712,1011,o),
(737,1021,o),
(763,1034,o),
(786,1047,o),
(790,1051,q),
(870,996,l),
(870,162,l),
(870,142,o),
(859,126,o),
(847,126,q),
(847,88,l),
(859,88,o),
(929,63,o),
(1003,29,o),
(1063,-6,o),
(1063,-15,q)
);
},
{
closed = 1;
nodes = (
(1221,1034,l),
(1221,130,l),
(1151,84,l),
(1091,128,l),
(1091,1013,l),
(1098,1013,o),
(1122,1025,o),
(1147,1038,o),
(1167,1053,o),
(1169,1057,q)
);
},
{
closed = 1;
nodes = (
(355,162,l),
(355,981,l),
(404,1030,l),
(484,987,l),
(484,155,l),
(420,107,l)
);
}
);
width = 1864;
}
);
unicode = 4633;
},
{
glyphname = uni121A;
layers = (
{
layerId = "55B2AD78-00C4-470B-8999-F57615B8BFC4";
shapes = (
{
closed = 1;
nodes = (
(1180,116,l),
(1194,116,o),
(1262,76,o),
(1330,27,o),
(1382,-19,o),
(1382,-25,q),
(1410,-25,l),
(1462,15,o),
(1561,86,o),
(1646,140,o),
(1710,170,o),
(1725,170,q),
(1725,195,l),
(1708,208,o),
(1675,248,o),
(1653,290,o),
(1637,328,o),
(1637,340,q),
(1637,389,o),
(1668,441,o),
(1686,441,q),
(1708,441,o),
(1739,412,o),
(1739,391,q),
(1739,389,l),
(1767,389,l),
(1767,391,l),
(1767,422,o),
(1740,452,o),
(1713,471,o),
(1668,484,o),
(1613,484,q),
(1586,484,o),
(1540,458,o),
(1506,418,o),
(1486,372,o),
(1486,355,q),
(1486,324,o),
(1506,252,o),
(1535,187,o),
(1568,137,o),
(1586,130,q),
(1500,76,l),
(1471,76,o),
(1431,107,o),
(1431,128,q),
(1431,1099,l),
(1431,1138,o),
(1471,1183,o),
(1496,1183,q),
(1496,1209,l),
(1466,1209,o),
(1380,1227,o),
(1302,1254,o),
(1246,1288,o),
(1246,1303,q),
(1220,1303,l),
(1220,1291,o),
(1187,1249,o),
(1141,1207,o),
(1096,1178,o),
(1082,1178,q),
(1072,1178,o),
(1023,1207,o),
(962,1251,o),
(903,1302,o),
(885,1318,q),
(874,1300,o),
(825,1249,o),
(771,1206,o),
(719,1176,o),
(706,1176,q),
(689,1176,o),
(634,1204,o),
(570,1246,o),
(508,1298,o),
(483,1318,q),
(454,1275,o),
(395,1194,o),
(355,1162,q),
(355,1189,o),
(324,1240,o),
(271,1280,o),
(198,1305,o),
(158,1305,q),
(86,1305,o),
(0,1251,o),
(0,1207,q),
(0,1198,o),
(0,1189,q),
(0,1180,o),
(4,1169,q),
(21,1169,l),
(23,1196,o),
(51,1233,o),
(76,1233,q),
(99,1233,o),
(133,1189,o),
(133,1131,q),
(133,662,l),
(133,624,o),
(105,624,q),
(105,586,l),
(130,586,o),
(197,563,o),
(260,530,o),
(311,496,o),
(321,484,q),
(484,617,l),
(484,580,l),
(502,568,o),
(553,542,o),
(605,515,o),
(647,490,o),
(657,484,q),
(756,568,l),
(706,603,l),
(706,1147,l),
(712,1147,o),
(732,1156,o),
(756,1169,o),
(777,1183,o),
(781,1187,q),
(861,1131,l),
(861,662,l),
(861,641,o),
(849,626,o),
(838,626,q),
(838,588,l),
(849,588,o),
(920,563,o),
(994,528,o),
(1053,494,o),
(1053,484,q),
(1211,590,l),
(1211,195,l),
(1211,168,o),
(1194,153,o),
(1180,153,q)
);
},
{
closed = 1;
nodes = (
(1211,1154,l),
(1211,628,l),
(1141,584,l),
(1082,628,l),
(1082,1149,l),
(1087,1149,o),
(1112,1160,o),
(1138,1174,o),
(1158,1189,o),
(1160,1193,q)
);
},
{
closed = 1;
nodes = (
(355,662,l),
(355,1116,l),
(404,1166,l),
(484,1122,l),
(484,654,l),
(420,607,l)
);
}
);
width = 1786;
}
);
unicode = 4634;
},
{
glyphname = uni121B;
layers = (
{
layerId = "55B2AD78-00C4-470B-8999-F57615B8BFC4";
shapes = (
{
closed = 1;
nodes = (
(1183,78,l),
(1207,78,o),
(1275,55,o),
(1338,23,o),
(1389,-11,o),
(1398,-23,q),
(1535,115,l),
(1519,135,l),
(1484,105,l),
(1431,155,l),
(1431,1101,l),
(1431,1139,o),
(1471,1185,o),
(1496,1185,q),
(1496,1211,l),
(1466,1211,o),
(1380,1229,o),
(1302,1256,o),
(1246,1289,o),
(1246,1305,q),
(1220,1305,l),
(1220,1294,o),
(1187,1251,o),
(1141,1209,o),
(1096,1180,o),
(1082,1180,q),
(1072,1180,o),
(1023,1209,o),
(962,1254,o),
(903,1303,o),
(885,1320,q),
(874,1302,o),
(825,1251,o),
(771,1207,o),
(719,1178,o),
(706,1178,q),
(689,1178,o),
(634,1206,o),
(570,1248,o),
(508,1300,o),
(483,1320,q),
(454,1276,o),
(395,1196,o),
(355,1164,q),
(355,1191,o),
(324,1242,o),
(271,1282,o),
(198,1307,o),
(158,1307,q),
(86,1307,o),
(0,1254,o),
(0,1209,q),
(0,1200,o),
(0,1191,q),
(0,1181,o),
(4,1171,q),
(21,1171,l),
(23,1198,o),
(51,1235,o),
(76,1235,q),
(99,1235,o),
(133,1191,o),
(133,1134,q),
(133,664,l),
(133,626,o),
(105,626,q),
(105,588,l),
(130,588,o),
(197,565,o),
(260,532,o),
(311,498,o),
(321,486,q),
(484,619,l),
(484,582,l),
(502,570,o),
(553,544,o),
(605,517,o),
(647,492,o),
(657,486,q),
(756,570,l),
(706,605,l),
(706,1149,l),
(712,1149,o),
(732,1158,o),
(756,1171,o),
(777,1185,o),
(781,1189,q),
(861,1134,l),
(861,664,l),
(861,643,o),
(849,628,o),
(838,628,q),
(838,590,l),
(849,590,o),
(920,565,o),
(994,530,o),
(1053,496,o),
(1053,486,q),
(1211,592,l),
(1211,155,l),
(1211,116,o),
(1183,116,q)
);
},
{
closed = 1;
nodes = (
(1211,1171,l),
(1211,630,l),
(1141,586,l),
(1082,630,l),
(1082,1151,l),
(1087,1151,o),
(1112,1162,o),
(1138,1176,o),
(1158,1191,o),
(1160,1194,q)
);
},
{
closed = 1;
nodes = (
(355,664,l),
(355,1118,l),
(404,1167,l),
(484,1124,l),
(484,657,l),
(420,608,l)
);
}
);
width = 1553;
}
);
unicode = 4635;
},
{
glyphname = uni121C;
layers = (
{
layerId = "55B2AD78-00C4-470B-8999-F57615B8BFC4";
shapes = (
{
closed = 1;
nodes = (
(1180,113,l),
(1194,113,o),
(1260,73,o),
(1330,25,o),
(1387,-21,o),
(1393,-27,q),
(1670,99,l),
(1670,124,l),
(1660,116,o),
(1641,115,q),
(1641,408,l),
(1635,408,o),
(1604,416,o),
(1575,431,o),
(1549,454,o),
(1549,468,q),
(1521,468,l),
(1521,462,o),
(1500,443,o),
(1469,420,o),
(1437,401,o),
(1427,397,q),
(1427,1099,l),
(1427,1138,o),
(1467,1183,o),
(1493,1183,q),
(1493,1209,l),
(1462,1209,o),
(1376,1227,o),
(1298,1254,o),
(1242,1288,o),
(1242,1303,q),
(1216,1303,l),
(1216,1291,o),
(1183,1249,o),
(1138,1207,o),
(1091,1178,o),
(1078,1178,q),
(1069,1178,o),
(1019,1207,o),
(958,1251,o),
(899,1302,o),
(881,1318,q),
(870,1300,o),
(823,1249,o),
(769,1206,o),
(719,1176,o),
(706,1176,q),
(689,1176,o),
(634,1204,o),
(570,1246,o),
(508,1298,o),
(483,1318,q),
(454,1275,o),
(395,1194,o),
(355,1162,q),
(355,1189,o),
(324,1240,o),
(271,1280,o),
(198,1305,o),
(158,1305,q),
(86,1305,o),
(0,1251,o),
(0,1207,q),
(0,1198,o),
(0,1189,q),
(0,1180,o),
(4,1169,q),
(21,1169,l),
(23,1196,o),
(51,1233,o),
(76,1233,q),
(99,1233,o),
(133,1189,o),
(133,1131,q),
(133,662,l),
(133,624,o),
(105,624,q),
(105,586,l),
(130,586,o),
(197,563,o),
(260,530,o),
(311,496,o),
(321,484,q),
(484,617,l),
(484,580,l),
(502,568,o),
(553,542,o),
(605,515,o),
(647,490,o),
(657,484,q),
(756,568,l),
(706,603,l),
(706,1147,l),
(712,1147,o),
(730,1156,o),
(754,1169,o),
(772,1183,o),
(777,1187,q),
(857,1131,l),
(857,662,l),
(857,641,o),
(845,626,o),
(834,626,q),
(834,588,l),
(845,588,o),
(916,563,o),
(990,528,o),
(1049,494,o),
(1049,484,q),
(1207,590,l),
(1207,191,l),
(1207,173,o),
(1194,151,o),
(1180,151,q)
);
},
{
closed = 1;
nodes = (
(1207,1169,l),
(1207,628,l),
(1138,584,l),
(1078,628,l),
(1078,1149,l),
(1084,1149,o),
(1109,1160,o),
(1134,1174,o),
(1154,1189,o),
(1156,1193,q)
);
},
{
closed = 1;
nodes = (
(355,662,l),
(355,1116,l),
(404,1166,l),
(484,1122,l),
(484,654,l),
(420,607,l)
);
},
{
closed = 1;
nodes = (
(1553,366,l),
(1553,105,l),
(1535,97,l),
(1484,97,o),
(1427,118,o),
(1427,157,q),
(1427,366,l),
(1454,378,o),
(1490,401,o),
(1507,410,q)
);
}
);
width = 1688;
}
);
unicode = 4636;
},
{
glyphname = uni121D;
layers = (
{
layerId = "55B2AD78-00C4-470B-8999-F57615B8BFC4";
shapes = (
{
closed = 1;
nodes = (
(80,84,l),
(105,84,o),
(171,61,o),
(235,29,o),
(286,-6,o),
(295,-17,q),
(431,120,l),
(416,142,l),
(382,111,l),
(330,160,l),
(330,290,l),
(706,548,l),
(706,1151,l),
(712,1151,o),
(732,1160,o),
(757,1174,o),
(779,1187,o),
(783,1191,q),
(863,1136,l),
(863,690,l),
(863,670,o),
(851,654,o),
(839,654,q),
(839,617,l),
(851,617,o),
(921,592,o),
(996,557,o),
(1056,523,o),
(1056,513,q),
(1214,612,l),
(1267,605,o),
(1358,563,o),
(1378,542,q),
(1488,650,l),
(1473,672,l),
(1456,652,l),
(1433,672,l),
(1433,1103,l),
(1433,1141,o),
(1473,1187,o),
(1498,1187,q),
(1498,1214,l),
(1467,1214,o),
(1382,1231,o),
(1303,1258,o),
(1248,1291,o),
(1248,1307,q),
(1221,1307,l),
(1221,1296,o),
(1189,1254,o),
(1143,1211,o),
(1098,1181,o),
(1084,1181,q),
(1074,1181,o),
(1025,1211,o),
(963,1256,o),
(905,1305,o),
(887,1322,q),
(876,1303,o),
(826,1254,o),
(771,1209,o),
(719,1180,o),
(706,1180,q),
(689,1180,o),
(634,1207,o),
(570,1249,o),
(508,1302,o),
(483,1322,q),
(454,1278,o),
(395,1198,o),
(355,1166,q),
(355,1193,o),
(324,1244,o),
(271,1284,o),
(198,1309,o),
(158,1309,q),
(86,1309,o),
(0,1256,o),
(0,1211,q),
(0,1202,o),
(0,1193,q),
(0,1183,o),
(4,1174,q),
(21,1174,l),
(23,1200,o),
(51,1236,o),
(76,1236,q),
(99,1236,o),
(133,1193,o),
(133,1136,q),
(133,721,l),
(133,683,o),
(105,683,q),
(105,645,l),
(130,645,o),
(197,622,o),
(260,590,o),
(311,555,o),
(321,544,q),
(484,675,l),
(484,599,l),
(109,313,l),
(109,160,l),
(109,122,o),
(80,122,q)
);
},
{
closed = 1;
nodes = (
(1214,1174,l),
(1214,650,l),
(1143,612,l),
(1084,657,l),
(1084,1153,l),
(1089,1153,o),
(1114,1164,o),
(1139,1178,o),
(1160,1193,o),
(1162,1196,q)
);
},
{
closed = 1;
nodes = (
(355,721,l),
(355,1120,l),
(404,1169,l),
(484,1125,l),
(484,714,l),
(420,666,l)
);
}
);
width = 1517;
}
);
unicode = 4637;
},
{
glyphname = uni121E;
layers = (
{
layerId = "55B2AD78-00C4-470B-8999-F57615B8BFC4";
shapes = (
{
closed = 1;
nodes = (
(456,73,l),
(481,73,o),
(548,49,o),
(610,17,o),
(662,-17,o),
(672,-29,q),
(807,109,l),
(792,130,l),
(757,99,l),
(706,149,l),
(706,1151,l),
(712,1151,o),
(732,1160,o),
(757,1174,o),
(779,1187,o),
(783,1191,q),
(863,1136,l),
(863,672,l),
(863,650,o),
(851,635,o),
(839,635,q),
(839,597,l),
(851,597,o),
(921,572,o),
(996,539,o),
(1056,504,o),
(1056,494,q),
(1214,593,l),
(1267,586,o),
(1358,544,o),
(1378,523,q),
(1488,632,l),
(1473,652,l),
(1456,634,l),
(1433,652,l),
(1433,1103,l),
(1433,1141,o),
(1473,1187,o),
(1498,1187,q),
(1498,1214,l),
(1467,1214,o),
(1382,1231,o),
(1303,1258,o),
(1248,1291,o),
(1248,1307,q),
(1221,1307,l),
(1221,1296,o),
(1189,1254,o),
(1143,1211,o),
(1098,1181,o),
(1084,1181,q),
(1074,1181,o),
(1025,1211,o),
(963,1256,o),
(905,1305,o),
(887,1322,q),
(874,1303,o),
(825,1254,o),
(769,1209,o),
(719,1180,o),
(706,1180,q),
(689,1180,o),
(634,1207,o),
(570,1249,o),
(508,1302,o),
(483,1322,q),
(454,1278,o),
(395,1198,o),
(355,1166,q),
(355,1193,o),
(324,1244,o),
(271,1284,o),
(198,1309,o),
(158,1309,q),
(86,1309,o),
(0,1256,o),
(0,1211,q),
(0,1202,o),
(0,1193,q),
(0,1183,o),
(4,1174,q),
(21,1174,l),
(23,1200,o),
(51,1236,o),
(76,1236,q),
(99,1236,o),
(133,1193,o),
(133,1136,q),
(133,703,l),
(133,664,o),
(105,664,q),
(105,626,l),
(130,626,o),
(197,603,o),
(260,570,o),
(311,536,o),
(321,525,q),
(484,657,l),
(484,149,l),
(484,111,o),
(456,111,q)
);
},
{
closed = 1;
nodes = (
(1214,1174,l),
(1214,635,l),
(1143,593,l),
(1084,637,l),
(1084,1153,l),
(1089,1153,o),
(1114,1164,o),
(1139,1178,o),
(1160,1193,o),
(1162,1196,q)
);
},
{
closed = 1;
nodes = (
(355,703,l),
(355,1125,l),
(404,1169,l),
(484,1125,l),
(484,694,l),
(420,647,l)
);
}
);
width = 1517;
}
);
unicode = 4638;
},
{
glyphname = uni121F;
layers = (
{
layerId = "55B2AD78-00C4-470B-8999-F57615B8BFC4";
shapes = (
{
closed = 1;
nodes = (
(1603,-93,l),
(1603,-71,o),
(1631,4,o),
(1673,75,o),
(1721,126,o),
(1742,126,q),
(1768,126,o),
(1795,97,o),
(1795,86,q),
(1795,75,o),
(1782,46,o),
(1767,21,o),
(1759,13,q),
(1753,7,o),
(1752,6,q),
(1753,-19,l),
(1759,-19,o),
(1786,-2,o),
(1811,23,o),
(1832,59,o),
(1832,80,q),
(1832,118,o),
(1797,170,o),
(1748,202,o),
(1691,215,o),
(1670,215,q),
(1646,215,o),
(1584,185,o),
(1528,130,o),
(1490,55,o),
(1490,11,q),
(1431,36,l),
(1431,1099,l),
(1431,1138,o),
(1471,1183,o),
(1496,1183,q),
(1496,1209,l),
(1466,1209,o),
(1380,1227,o),
(1302,1254,o),
(1246,1288,o),
(1246,1303,q),
(1220,1303,l),
(1220,1291,o),
(1187,1249,o),
(1141,1207,o),
(1096,1178,o),
(1082,1178,q),
(1072,1178,o),
(1023,1207,o),
(962,1251,o),
(903,1302,o),
(885,1318,q),
(874,1300,o),
(825,1249,o),
(771,1206,o),
(719,1176,o),
(706,1176,q),
(689,1176,o),
(634,1204,o),
(570,1246,o),
(508,1298,o),
(483,1318,q),
(454,1275,o),
(395,1194,o),
(355,1162,q),
(355,1189,o),
(324,1240,o),
(271,1280,o),
(198,1305,o),
(158,1305,q),
(86,1305,o),
(0,1251,o),
(0,1207,q),
(0,1198,o),
(0,1189,q),
(0,1180,o),
(4,1169,q),
(21,1169,l),
(23,1196,o),
(51,1233,o),
(76,1233,q),
(99,1233,o),
(133,1189,o),
(133,1131,q),
(133,662,l),
(133,624,o),
(105,624,q),
(105,586,l),
(130,586,o),
(197,563,o),
(260,530,o),
(311,496,o),
(321,484,q),
(484,617,l),
(484,580,l),
(502,568,o),
(553,542,o),
(605,515,o),
(647,490,o),
(657,484,q),
(756,568,l),
(706,603,l),
(706,1147,l),
(712,1147,o),
(732,1156,o),
(756,1169,o),
(777,1183,o),
(781,1187,q),
(861,1131,l),
(861,662,l),
(861,641,o),
(849,626,o),
(838,626,q),
(838,588,l),
(849,588,o),
(920,563,o),
(994,528,o),
(1053,494,o),
(1053,484,q),
(1211,590,l),
(1211,122,l),
(1139,153,o),
(1040,200,o),
(1040,215,q),
(1009,215,l),
(1009,191,o),
(989,109,o),
(956,29,o),
(916,-29,o),
(897,-29,q),
(876,-29,o),
(845,0,o),
(841,36,q),
(828,34,l),
(828,27,o),
(828,19,q),
(828,13,o),
(830,4,q),
(839,-63,o),
(916,-113,o),
(962,-113,q),
(985,-113,o),
(1047,-75,o),
(1107,-13,o),
(1149,63,o),
(1149,99,q),
(1189,78,o),
(1334,21,o),
(1477,-36,o),
(1582,-84,o),
(1582,-95,q)
);
},
{
closed = 1;
nodes = (
(1211,1169,l),
(1211,628,l),
(1141,584,l),
(1082,628,l),
(1082,1149,l),
(1087,1149,o),
(1112,1160,o),
(1138,1174,o),
(1158,1189,o),
(1160,1193,q)
);
},
{
closed = 1;
nodes = (
(355,662,l),
(355,1116,l),
(404,1166,l),
(484,1122,l),
(484,654,l),
(420,607,l)
);
}
);
width = 1851;
}
);
unicode = 4639;
},
{
glyphname = uni1220;
layers = (
{
layerId = "55B2AD78-00C4-470B-8999-F57615B8BFC4";
shapes = (
{
closed = 1;
nodes = (
(1147,80,l),
(1171,80,o),
(1238,57,o),
(1302,25,o),
(1353,-9,o),
(1362,-21,q),
(1498,116,l),
(1482,137,l),
(1448,107,l),
(1397,157,l),
(1397,1017,l),
(1456,1017,o),
(1538,1098,o),
(1538,1151,q),
(1538,1193,o),
(1496,1229,o),
(1467,1238,q),
(1458,1225,l),
(1479,1221,o),
(1509,1191,o),
(1509,1174,q),
(1509,1151,o),
(1467,1118,o),
(1437,1118,q),
(1410,1118,o),
(1345,1147,o),
(1282,1194,o),
(1233,1260,o),
(1225,1296,q),
(1194,1296,l),
(1185,1251,o),
(1107,1160,o),
(1063,1138,q),
(1063,1112,l),
(1080,1112,o),
(1118,1101,o),
(1153,1084,o),
(1176,1059,o),
(1176,1047,q),
(1176,182,l),
(985,80,l),
(907,153,l),
(907,1111,l),
(907,1131,o),
(931,1162,o),
(947,1164,q),
(947,1183,l),
(931,1183,o),
(865,1204,o),
(796,1235,o),
(744,1275,o),
(744,1294,q),
(714,1294,l),
(714,1275,o),
(689,1235,o),
(654,1200,o),
(621,1180,o),
(610,1180,q),
(610,1149,l),
(637,1149,o),
(687,1127,o),
(687,1085,q),
(687,168,l),
(513,71,l),
(420,153,l),
(420,1044,l),
(420,1111,o),
(386,1200,o),
(324,1254,o),
(244,1275,o),
(198,1275,q),
(164,1275,o),
(93,1244,o),
(36,1194,o),
(0,1129,o),
(0,1098,q),
(0,1074,o),
(4,1067,q),
(13,1067,l),
(13,1101,o),
(78,1145,o),
(116,1145,q),
(151,1145,o),
(198,1089,o),
(198,1034,q),
(198,191,l),
(198,153,o),
(170,153,q),
(170,115,l),
(202,115,o),
(267,84,o),
(328,40,o),
(382,-7,o),
(402,-25,q),
(687,131,l),
(687,89,l),
(704,89,o),
(752,63,o),
(801,25,o),
(845,-13,o),
(857,-25,q),
(1176,151,l),
(1174,118,o),
(1147,118,q)
);
}
);
width = 1557;
}
);
unicode = 4640;
},
{
glyphname = uni1221;
layers = (
{
layerId = "55B2AD78-00C4-470B-8999-F57615B8BFC4";
shapes = (
{
closed = 1;
nodes = (
(1147,75,l),
(1171,75,o),
(1238,51,o),
(1302,19,o),
(1353,-15,o),
(1362,-27,q),
(1498,111,l),
(1482,131,l),
(1448,102,l),
(1395,151,l),
(1395,811,l),
(1448,847,l),
(1533,779,l),
(1522,765,o),
(1519,708,o),
(1519,699,q),
(1519,670,o),
(1542,621,o),
(1580,580,o),
(1630,557,o),
(1657,557,q),
(1725,557,o),
(1799,595,o),
(1799,645,q),
(1799,666,o),
(1792,683,o),
(1786,689,q),
(1761,689,l),
(1765,683,o),
(1775,659,o),
(1775,650,q),
(1775,630,o),
(1740,612,o),
(1719,612,q),
(1700,612,o),
(1666,672,o),
(1666,708,q),
(1666,729,o),
(1708,799,o),
(1742,826,q),
(1742,851,l),
(1725,851,o),
(1668,876,o),
(1613,908,o),
(1571,943,o),
(1571,954,q),
(1544,954,l),
(1395,853,l),
(1395,1025,l),
(1454,1025,o),
(1538,1105,o),
(1538,1158,q),
(1538,1200,o),
(1496,1236,o),
(1467,1246,q),
(1458,1233,l),
(1479,1229,o),
(1509,1198,o),
(1509,1181,q),
(1509,1158,o),
(1467,1125,o),
(1437,1125,q),
(1410,1125,o),
(1345,1154,o),
(1282,1202,o),
(1233,1267,o),
(1225,1303,q),
(1194,1303,l),
(1185,1260,o),
(1107,1167,o),
(1063,1145,q),
(1063,1120,l),
(1080,1120,o),
(1118,1109,o),
(1153,1091,o),
(1176,1067,o),
(1176,1056,q),
(1176,189,l),
(985,80,l),
(907,153,l),
(907,1118,l),
(907,1139,o),
(931,1169,o),
(947,1171,q),
(947,1191,l),
(931,1191,o),
(865,1211,o),
(796,1242,o),
(744,1282,o),
(744,1302,q),
(714,1302,l),
(714,1282,o),
(689,1242,o),
(654,1207,o),
(621,1187,o),
(610,1187,q),
(610,1156,l),
(637,1156,o),
(687,1136,o),
(687,1094,q),
(687,168,l),
(513,71,l),
(420,153,l),
(420,1051,l),
(420,1118,o),
(386,1207,o),
(324,1262,o),
(244,1282,o),
(198,1282,q),
(164,1282,o),
(93,1251,o),
(36,1202,o),
(0,1138,o),
(0,1105,q),
(0,1082,o),
(4,1074,q),
(13,1074,l),
(13,1109,o),
(78,1153,o),
(116,1153,q),
(151,1153,o),
(198,1098,o),
(198,1042,q),
(198,191,l),
(198,153,o),
(170,153,q),
(170,115,l),
(202,115,o),
(267,84,o),
(328,40,o),
(382,-7,o),
(402,-25,q),
(687,131,l),
(687,89,l),
(704,89,o),
(752,63,o),
(801,25,o),
(845,-13,o),
(857,-25,q),
(1176,155,l),
(1176,145,l),
(1176,113,o),
(1147,113,q)
);
}
);
width = 1819;
}
);
unicode = 4641;
},
{
glyphname = uni1222;
layers = (
{
layerId = "55B2AD78-00C4-470B-8999-F57615B8BFC4";
shapes = (
{
closed = 1;
nodes = (
(1099,116,l),
(1114,116,o),
(1181,76,o),
(1249,27,o),
(1302,-19,o),
(1302,-25,q),
(1330,-25,l),
(1382,15,o),
(1480,86,o),
(1566,140,o),
(1630,170,o),
(1644,170,q),
(1644,195,l),
(1628,208,o),
(1595,248,o),
(1573,290,o),
(1557,328,o),
(1557,340,q),
(1557,389,o),
(1588,441,o),
(1606,441,q),
(1628,441,o),
(1658,412,o),
(1658,391,q),
(1658,389,l),
(1686,389,l),
(1686,391,l),
(1686,422,o),
(1660,452,o),
(1633,471,o),
(1588,484,o),
(1533,484,q),
(1506,484,o),
(1460,458,o),
(1426,418,o),
(1406,372,o),
(1406,355,q),
(1406,324,o),
(1426,252,o),
(1454,187,o),
(1488,137,o),
(1506,130,q),
(1420,76,l),
(1391,76,o),
(1351,107,o),
(1351,128,q),
(1351,1061,l),
(1410,1061,o),
(1494,1141,o),
(1494,1194,q),
(1494,1236,o),
(1453,1273,o),
(1424,1282,q),
(1414,1269,l),
(1435,1265,o),
(1466,1235,o),
(1466,1218,q),
(1466,1194,o),
(1424,1162,o),
(1393,1162,q),
(1366,1162,o),
(1302,1191,o),
(1238,1238,o),
(1189,1303,o),
(1181,1340,q),
(1151,1340,l),
(1141,1296,o),
(1063,1204,o),
(1019,1181,q),
(1019,1156,l),
(1036,1156,o),
(1074,1145,o),
(1109,1127,o),
(1131,1103,o),
(1131,1091,q),
(1131,743,l),
(954,635,l),
(881,704,l),
(881,1122,l),
(881,1143,o),
(907,1174,o),
(921,1176,q),
(921,1194,l),
(907,1194,o),
(839,1216,o),
(771,1246,o),
(719,1286,o),
(719,1305,q),
(689,1305,l),
(689,1286,o),
(664,1246,o),
(630,1211,o),
(595,1191,o),
(586,1191,q),
(586,1160,l),
(612,1160,o),
(662,1139,o),
(662,1098,q),
(662,739,l),
(502,634,l),
(420,704,l),
(420,1067,l),
(420,1134,o),
(386,1223,o),
(324,1276,o),
(244,1298,o),
(198,1298,q),
(164,1298,o),
(93,1267,o),
(36,1218,o),
(0,1153,o),
(0,1120,q),
(0,1098,o),
(4,1089,q),
(13,1089,l),
(13,1124,o),
(78,1167,o),
(116,1167,q),
(151,1167,o),
(198,1112,o),
(198,1057,q),
(198,723,l),
(198,685,o),
(170,685,q),
(170,647,l),
(202,647,o),
(267,622,o),
(328,586,o),
(382,544,o),
(402,526,q),
(662,703,l),
(662,641,l),
(679,641,o),
(727,614,o),
(777,576,o),
(821,539,o),
(832,526,q),
(1131,708,l),
(1131,195,l),
(1131,168,o),
(1114,153,o),
(1099,153,q)
);
}
);
width = 1706;
}
);
unicode = 4642;
},
{
glyphname = uni1223;
layers = (
{
layerId = "55B2AD78-00C4-470B-8999-F57615B8BFC4";
shapes = (
{
closed = 1;
nodes = (
(1103,73,l),
(1127,73,o),
(1194,49,o),
(1258,17,o),
(1309,-17,o),
(1318,-29,q),
(1454,109,l),
(1439,130,l),
(1404,99,l),
(1351,149,l),
(1351,1061,l),
(1410,1061,o),
(1494,1141,o),
(1494,1194,q),
(1494,1236,o),
(1453,1273,o),
(1424,1282,q),
(1414,1269,l),
(1435,1265,o),
(1466,1235,o),
(1466,1218,q),
(1466,1194,o),
(1424,1162,o),
(1393,1162,q),
(1366,1162,o),
(1302,1191,o),
(1238,1238,o),
(1189,1303,o),
(1181,1340,q),
(1151,1340,l),
(1141,1296,o),
(1063,1204,o),
(1019,1181,q),
(1019,1156,l),
(1036,1156,o),
(1074,1145,o),
(1109,1127,o),
(1131,1103,o),
(1131,1091,q),
(1131,743,l),
(954,635,l),
(881,704,l),
(881,1122,l),
(881,1143,o),
(907,1174,o),
(921,1176,q),
(921,1194,l),
(907,1194,o),
(839,1216,o),
(771,1246,o),
(719,1286,o),
(719,1305,q),
(689,1305,l),
(689,1286,o),
(664,1246,o),
(630,1211,o),
(595,1191,o),
(586,1191,q),
(586,1160,l),
(612,1160,o),
(662,1139,o),
(662,1098,q),
(662,739,l),
(502,634,l),
(420,704,l),
(420,1067,l),
(420,1134,o),
(386,1223,o),
(324,1276,o),
(244,1298,o),
(198,1298,q),
(164,1298,o),
(93,1267,o),
(36,1218,o),
(0,1153,o),
(0,1120,q),
(0,1098,o),
(4,1089,q),
(13,1089,l),
(13,1124,o),
(78,1167,o),
(116,1167,q),
(151,1167,o),
(198,1112,o),
(198,1057,q),
(198,723,l),
(198,685,o),
(170,685,q),
(170,647,l),
(202,647,o),
(267,622,o),
(328,586,o),
(382,544,o),
(402,526,q),
(662,703,l),
(662,641,l),
(679,641,o),
(727,614,o),
(777,576,o),
(821,539,o),
(832,526,q),
(1131,708,l),
(1131,149,l),
(1131,111,o),
(1103,111,q)
);
}
);
width = 1513;
}
);
unicode = 4643;
},
{
glyphname = uni1224;
layers = (
{
layerId = "55B2AD78-00C4-470B-8999-F57615B8BFC4";
shapes = (
{
closed = 1;
nodes = (
(1103,115,l),
(1118,115,o),
(1183,75,o),
(1254,27,o),
(1311,-19,o),
(1316,-25,q),
(1593,102,l),
(1593,126,l),
(1584,118,o),
(1564,116,q),
(1564,410,l),
(1559,410,o),
(1528,418,o),
(1498,433,o),
(1473,456,o),
(1473,470,q),
(1444,470,l),
(1444,464,o),
(1424,444,o),
(1393,422,o),
(1360,402,o),
(1351,399,q),
(1351,1072,l),
(1410,1072,o),
(1494,1153,o),
(1494,1206,q),
(1494,1248,o),
(1453,1284,o),
(1424,1294,q),
(1414,1280,l),
(1435,1276,o),
(1466,1246,o),
(1466,1229,q),
(1466,1206,o),
(1424,1174,o),
(1393,1174,q),
(1366,1174,o),
(1302,1202,o),
(1238,1249,o),
(1189,1315,o),
(1181,1351,q),
(1151,1351,l),
(1141,1307,o),
(1063,1216,o),
(1019,1193,q),
(1019,1167,l),
(1036,1167,o),
(1074,1156,o),
(1109,1139,o),
(1131,1114,o),
(1131,1103,q),
(1131,754,l),
(954,647,l),
(881,716,l),
(881,1134,l),
(881,1154,o),
(907,1185,o),
(921,1187,q),
(921,1206,l),
(907,1206,o),
(839,1227,o),
(771,1258,o),
(719,1298,o),
(719,1316,q),
(689,1316,l),
(689,1298,o),
(664,1258,o),
(630,1223,o),
(595,1202,o),
(586,1202,q),
(586,1171,l),
(612,1171,o),
(662,1151,o),
(662,1109,q),
(662,757,l),
(496,643,l),
(420,716,l),
(420,1078,l),
(420,1145,o),
(386,1235,o),
(324,1288,o),
(244,1309,o),
(198,1309,q),
(164,1309,o),
(93,1278,o),
(36,1229,o),
(0,1164,o),
(0,1131,q),
(0,1109,o),
(4,1101,q),
(13,1101,l),
(13,1136,o),
(78,1180,o),
(116,1180,q),
(151,1180,o),
(198,1124,o),
(198,1069,q),
(198,734,l),
(198,697,o),
(170,697,q),
(170,659,l),
(202,659,o),
(267,634,o),
(328,597,o),
(382,555,o),
(402,539,q),
(662,721,l),
(662,652,l),
(679,652,o),
(727,626,o),
(777,588,o),
(821,550,o),
(832,539,q),
(1131,719,l),
(1131,193,l),
(1131,175,o),
(1118,153,o),
(1103,153,q)
);
},
{
closed = 1;
nodes = (
(1477,368,l),
(1477,107,l),
(1426,82,l),
(1382,82,o),
(1351,120,o),
(1351,158,q),
(1351,368,l),
(1378,380,o),
(1414,402,o),
(1431,412,q)
);
}
);
width = 1613;
}
);
unicode = 4644;
},
{
glyphname = uni1225;
layers = (
{
layerId = "55B2AD78-00C4-470B-8999-F57615B8BFC4";
shapes = (
{
closed = 1;
nodes = (
(1435,1278,l),
(1456,1275,o),
(1486,1244,o),
(1486,1227,q),
(1486,1204,o),
(1444,1171,o),
(1414,1171,q),
(1387,1171,o),
(1322,1200,o),
(1260,1248,o),
(1209,1313,o),
(1202,1349,q),
(1171,1349,l),
(1162,1305,o),
(1084,1214,o),
(1040,1191,q),
(1040,1166,l),
(1057,1166,o),
(1096,1154,o),
(1129,1138,o),
(1153,1112,o),
(1153,1101,q),
(1153,710,l),
(967,605,l),
(903,672,l),
(903,1131,l),
(903,1153,o),
(927,1183,o),
(943,1185,q),
(943,1204,l),
(927,1204,o),
(861,1225,o),
(792,1256,o),
(741,1296,o),
(741,1315,q),
(710,1315,l),
(710,1296,o),
(685,1256,o),
(650,1221,o),
(617,1200,o),
(607,1200,q),
(607,1169,l),
(634,1169,o),
(683,1149,o),
(683,1107,q),
(683,706,l),
(523,601,l),
(441,672,l),
(441,1076,l),
(441,1143,o),
(406,1233,o),
(346,1286,o),
(266,1307,o),
(220,1307,q),
(185,1307,o),
(115,1276,o),
(57,1227,o),
(21,1162,o),
(21,1129,q),
(21,1107,o),
(25,1099,q),
(34,1099,l),
(34,1134,o),
(99,1178,o),
(137,1178,q),
(171,1178,o),
(220,1122,o),
(220,1067,q),
(220,710,l),
(220,672,o),
(191,672,q),
(191,634,l),
(229,634,o),
(267,612,q),
(231,590,o),
(145,542,o),
(71,486,o),
(19,426,o),
(19,391,q),
(19,153,l),
(19,131,o),
(9,118,o),
(0,118,q),
(0,80,l),
(15,80,o),
(78,51,o),
(143,13,o),
(191,-21,o),
(191,-27,q),
(222,-27,l),
(351,67,l),
(351,91,l),
(340,86,o),
(309,75,o),
(297,75,q),
(269,75,o),
(239,105,o),
(239,126,q),
(239,393,l),
(239,414,o),
(252,468,o),
(273,519,o),
(300,566,o),
(313,584,q),
(346,563,o),
(402,512,o),
(424,494,q),
(683,670,l),
(683,608,l),
(701,608,o),
(748,582,o),
(798,544,o),
(841,506,o),
(853,494,q),
(1153,675,l),
(1153,648,l),
(1153,597,o),
(1233,506,o),
(1322,506,q),
(1364,506,o),
(1439,540,o),
(1494,592,o),
(1526,654,o),
(1526,683,q),
(1526,743,o),
(1509,779,o),
(1498,790,q),
(1482,790,l),
(1493,777,o),
(1504,737,o),
(1504,717,q),
(1504,689,o),
(1458,639,o),
(1435,639,q),
(1404,639,o),
(1372,694,o),
(1372,723,q),
(1372,1071,l),
(1431,1071,o),
(1515,1151,o),
(1515,1204,q),
(1515,1246,o),
(1473,1282,o),
(1444,1291,q)
);
}
);
width = 1546;
}
);
unicode = 4645;
},
{
glyphname = uni1226;
layers = (
{
layerId = "55B2AD78-00C4-470B-8999-F57615B8BFC4";
shapes = (
{
closed = 1;
nodes = (
(468,133,l),
(468,113,o),
(458,99,o),
(448,99,q),
(448,61,l),
(464,61,o),
(526,33,o),
(592,-6,o),
(639,-40,o),
(639,-46,q),
(670,-46,l),
(799,48,l),
(799,73,l),
(788,67,o),
(757,55,o),
(746,55,q),
(717,55,o),
(687,86,o),
(687,107,q),
(687,374,l),
(687,410,o),
(708,464,o),
(734,502,o),
(763,526,o),
(772,536,q),
(792,521,o),
(823,496,o),
(832,486,q),
(1131,668,l),
(1131,641,l),
(1131,590,o),
(1211,498,o),
(1302,498,q),
(1344,498,o),
(1418,532,o),
(1473,584,o),
(1506,647,o),
(1506,675,q),
(1506,734,o),
(1488,771,o),
(1477,783,q),
(1462,783,l),
(1471,769,o),
(1482,729,o),
(1482,710,q),
(1482,681,o),
(1437,632,o),
(1414,632,q),
(1384,632,o),
(1351,687,o),
(1351,716,q),
(1351,1063,l),
(1410,1063,o),
(1494,1143,o),
(1494,1196,q),
(1494,1238,o),
(1453,1275,o),
(1424,1284,q),
(1414,1271,l),
(1435,1267,o),
(1466,1236,o),
(1466,1220,q),
(1466,1196,o),
(1424,1164,o),
(1393,1164,q),
(1366,1164,o),
(1302,1193,o),
(1238,1240,o),
(1189,1305,o),
(1181,1342,q),
(1151,1342,l),
(1141,1298,o),
(1063,1206,o),
(1019,1183,q),
(1019,1158,l),
(1036,1158,o),
(1074,1147,o),
(1109,1129,o),
(1131,1105,o),
(1131,1094,q),
(1131,703,l),
(947,597,l),
(881,664,l),
(881,1124,l),
(881,1145,o),
(907,1176,o),
(921,1178,q),
(921,1196,l),
(907,1196,o),
(839,1218,o),
(771,1248,o),
(719,1288,o),
(719,1307,q),
(689,1307,l),
(689,1288,o),
(664,1248,o),
(630,1214,o),
(595,1193,o),
(586,1193,q),
(586,1162,l),
(612,1162,o),
(662,1141,o),
(662,1099,q),
(662,699,l),
(502,593,l),
(420,664,l),
(420,1069,l),
(420,1136,o),
(386,1225,o),
(324,1278,o),
(244,1300,o),
(198,1300,q),
(164,1300,o),
(93,1269,o),
(36,1220,o),
(0,1154,o),
(0,1122,q),
(0,1099,o),
(4,1091,q),
(13,1091,l),
(13,1125,o),
(78,1169,o),
(116,1169,q),
(151,1169,o),
(198,1114,o),
(198,1059,q),
(198,683,l),
(198,645,o),
(170,645,q),
(170,607,l),
(182,607,o),
(248,576,o),
(324,534,o),
(391,494,o),
(402,486,q),
(662,662,l),
(662,601,l),
(675,601,o),
(710,584,o),
(729,570,q),
(694,552,o),
(603,508,o),
(523,458,o),
(468,402,o),
(468,372,q)
);
}
);
width = 1524;
}
);
unicode = 4646;
},
{
glyphname = uni1227;
layers = (
{
layerId = "55B2AD78-00C4-470B-8999-F57615B8BFC4";
shapes = (
{
closed = 1;
nodes = (
(1522,-78,l),
(1522,-55,o),
(1551,19,o),
(1593,89,o),
(1641,142,o),
(1662,142,q),
(1688,142,o),
(1715,113,o),
(1715,102,q),
(1715,82,o),
(1702,51,o),
(1686,31,o),
(1679,27,q),
(1673,23,o),
(1671,21,q),
(1673,-4,l),
(1679,-4,o),
(1706,11,o),
(1731,38,o),
(1752,75,o),
(1752,95,q),
(1752,135,o),
(1717,187,o),
(1668,217,o),
(1611,231,o),
(1589,231,q),
(1566,231,o),
(1504,200,o),
(1448,145,o),
(1410,71,o),
(1410,27,q),
(1351,51,l),
(1351,1065,l),
(1410,1065,o),
(1494,1145,o),
(1494,1198,q),
(1494,1240,o),
(1453,1276,o),
(1424,1286,q),
(1414,1273,l),
(1435,1269,o),
(1466,1238,o),
(1466,1221,q),
(1466,1198,o),
(1424,1166,o),
(1393,1166,q),
(1366,1166,o),
(1302,1194,o),
(1238,1242,o),
(1189,1307,o),
(1181,1344,q),
(1151,1344,l),
(1141,1300,o),
(1063,1207,o),
(1019,1185,q),
(1019,1160,l),
(1036,1160,o),
(1074,1149,o),
(1109,1131,o),
(1131,1107,o),
(1131,1096,q),
(1131,746,l),
(954,639,l),
(881,708,l),
(881,1125,l),
(881,1147,o),
(907,1178,o),
(921,1180,q),
(921,1198,l),
(907,1198,o),
(839,1220,o),
(771,1249,o),
(719,1289,o),
(719,1309,q),
(689,1309,l),
(689,1289,o),
(664,1249,o),
(630,1216,o),
(595,1194,o),
(586,1194,q),
(586,1164,l),
(612,1164,o),
(662,1143,o),
(662,1101,q),
(662,743,l),
(502,637,l),
(420,708,l),
(420,1071,l),
(420,1138,o),
(386,1227,o),
(324,1280,o),
(244,1302,o),
(198,1302,q),
(164,1302,o),
(93,1271,o),
(36,1221,o),
(0,1156,o),
(0,1124,q),
(0,1101,o),
(4,1094,q),
(13,1094,l),
(13,1127,o),
(78,1171,o),
(116,1171,q),
(151,1171,o),
(198,1116,o),
(198,1061,q),
(198,727,l),
(198,689,o),
(170,689,q),
(170,650,l),
(202,650,o),
(267,626,o),
(328,590,o),
(382,548,o),
(402,530,q),
(662,706,l),
(662,645,l),
(679,645,o),
(729,617,o),
(777,576,o),
(821,536,o),
(832,525,q),
(1131,712,l),
(1131,137,l),
(1059,168,o),
(960,215,o),
(960,231,q),
(929,231,l),
(929,206,o),
(908,124,o),
(876,44,o),
(836,-13,o),
(817,-13,q),
(796,-13,o),
(765,15,o),
(761,51,q),
(748,49,l),
(748,42,o),
(748,34,q),
(748,29,o),
(750,19,q),
(759,-48,o),
(836,-97,o),
(881,-97,q),
(905,-97,o),
(967,-59,o),
(1027,2,o),
(1069,78,o),
(1069,115,q),
(1109,93,o),
(1254,36,o),
(1397,-21,o),
(1502,-69,o),
(1502,-80,q)
);
}
);
width = 1771;
}
);
unicode = 4647;
},
{
glyphname = uni1228;
layers = (
{
layerId = "55B2AD78-00C4-470B-8999-F57615B8BFC4";
shapes = (
{
closed = 1;
nodes = (
(703,67,l),
(727,67,o),
(796,44,o),
(859,11,o),
(910,-23,o),
(920,-34,q),
(1056,103,l),
(1040,124,l),
(1005,93,l),
(952,143,l),
(952,332,l),
(952,361,o),
(975,395,o),
(1002,397,q),
(1002,426,l),
(967,426,o),
(905,450,o),
(857,486,o),
(828,528,o),
(828,548,q),
(796,548,l),
(796,532,o),
(771,490,o),
(732,450,o),
(692,424,o),
(677,424,q),
(677,397,l),
(708,397,o),
(730,391,o),
(730,378,q),
(730,332,l),
(510,143,l),
(418,198,l),
(418,687,l),
(418,703,o),
(450,746,o),
(504,788,o),
(574,819,o),
(612,819,q),
(666,819,o),
(769,814,o),
(851,799,o),
(901,774,o),
(901,756,q),
(901,723,o),
(870,699,o),
(857,699,q),
(857,690,l),
(880,690,o),
(914,716,o),
(937,754,o),
(947,794,o),
(947,809,q),
(947,845,o),
(881,885,o),
(805,914,o),
(741,939,o),
(741,958,q),
(741,1122,l),
(741,1169,o),
(754,1193,o),
(777,1193,q),
(777,1220,l),
(759,1220,o),
(681,1240,o),
(599,1271,o),
(536,1303,o),
(536,1315,q),
(513,1315,l),
(513,1313,l),
(513,1302,o),
(490,1263,o),
(458,1225,o),
(428,1198,o),
(420,1198,q),
(420,1171,l),
(433,1171,o),
(471,1166,o),
(504,1151,o),
(526,1124,o),
(526,1105,q),
(526,908,l),
(512,897,l),
(512,883,l),
(608,845,l),
(548,843,o),
(443,792,o),
(422,756,q),
(418,748,l),
(418,792,o),
(382,851,o),
(319,889,o),
(239,905,o),
(197,905,q),
(162,905,o),
(93,881,o),
(36,841,o),
(0,786,o),
(0,754,q),
(15,754,l),
(40,812,o),
(113,812,q),
(145,812,o),
(197,746,o),
(197,703,q),
(197,166,l),
(197,135,o),
(185,118,o),
(168,118,q),
(168,80,l),
(184,80,o),
(253,53,o),
(328,17,o),
(386,-19,o),
(389,-27,q),
(730,273,l),
(730,143,l),
(730,105,o),
(703,105,q)
);
}
);
width = 1074;
}
);
unicode = 4648;
},
{
glyphname = uni1229;
layers = (
{
layerId = "55B2AD78-00C4-470B-8999-F57615B8BFC4";
shapes = (
{
closed = 1;
nodes = (
(588,69,l),
(612,69,o),
(679,46,o),
(743,13,o),
(794,-21,o),
(803,-33,q),
(939,105,l),
(923,126,l),
(889,95,l),
(838,145,l),
(838,484,l),
(857,484,o),
(929,496,o),
(962,521,q),
(963,475,o),
(983,408,o),
(1025,364,o),
(1098,344,o),
(1153,344,q),
(1181,344,o),
(1235,362,o),
(1278,395,o),
(1307,439,o),
(1309,464,q),
(1294,468,l),
(1289,448,o),
(1263,424,o),
(1248,424,q),
(1202,424,o),
(1149,473,o),
(1120,546,o),
(1112,624,o),
(1112,652,q),
(1080,652,l),
(1074,637,o),
(1027,593,o),
(960,553,o),
(881,523,o),
(845,523,q),
(825,523,o),
(757,534,o),
(694,561,o),
(647,599,o),
(647,628,q),
(647,637,l),
(617,632,l),
(617,462,l),
(517,391,l),
(418,454,l),
(418,823,l),
(418,838,o),
(450,881,o),
(504,923,o),
(574,954,o),
(612,954,q),
(666,954,o),
(769,950,o),
(851,935,o),
(901,910,o),
(901,891,q),
(901,859,o),
(870,834,o),
(857,834,q),
(857,826,l),
(880,826,o),
(914,851,o),
(937,889,o),
(947,929,o),
(947,945,q),
(947,981,o),
(881,1021,o),
(805,1049,o),
(741,1074,o),
(741,1094,q),
(741,1258,l),
(741,1305,o),
(754,1328,o),
(777,1328,q),
(777,1355,l),
(759,1355,o),
(681,1376,o),
(599,1406,o),
(536,1439,o),
(536,1450,q),
(513,1450,l),
(513,1448,l),
(513,1437,o),
(490,1398,o),
(458,1360,o),
(428,1334,o),
(420,1334,q),
(420,1307,l),
(433,1307,o),
(471,1302,o),
(504,1286,o),
(526,1260,o),
(526,1240,q),
(526,1044,l),
(512,1032,l),
(512,1019,l),
(608,981,l),
(548,979,o),
(443,927,o),
(422,891,q),
(418,883,l),
(418,927,o),
(382,987,o),
(319,1025,o),
(239,1040,o),
(197,1040,q),
(162,1040,o),
(93,1017,o),
(36,977,o),
(0,921,o),
(0,889,q),
(15,889,l),
(40,948,o),
(113,948,q),
(145,948,o),
(197,881,o),
(197,838,q),
(197,422,l),
(197,391,o),
(185,374,o),
(168,374,q),
(168,335,l),
(184,335,o),
(253,309,o),
(328,273,o),
(386,237,o),
(389,229,q),
(617,402,l),
(617,145,l),
(617,107,o),
(588,107,q)
);
}
);
width = 1328;
}
);
unicode = 4649;
},
{
glyphname = uni122A;
layers = (
{
layerId = "55B2AD78-00C4-470B-8999-F57615B8BFC4";
shapes = (
{
closed = 1;
nodes = (
(975,428,l),
(975,542,o),
(865,626,o),
(734,626,q),
(670,626,o),
(584,586,o),
(532,523,o),
(510,448,o),
(510,416,q),
(510,402,o),
(512,357,o),
(515,351,q),
(532,351,l),
(532,368,o),
(550,418,o),
(580,464,o),
(624,496,o),
(652,496,q),
(690,496,o),
(730,483,o),
(750,454,o),
(754,412,o),
(754,386,q),
(754,300,l),
(510,149,l),
(418,200,l),
(418,687,l),
(418,703,o),
(450,746,o),
(504,788,o),
(574,819,o),
(612,819,q),
(666,819,o),
(769,814,o),
(851,799,o),
(901,774,o),
(901,756,q),
(901,723,o),
(870,699,o),
(857,699,q),
(857,690,l),
(880,690,o),
(914,716,o),
(937,754,o),
(947,794,o),
(947,809,q),
(947,845,o),
(881,885,o),
(805,914,o),
(741,939,o),
(741,958,q),
(741,1122,l),
(741,1169,o),
(754,1193,o),
(777,1193,q),
(777,1220,l),
(759,1220,o),
(681,1240,o),
(599,1271,o),
(536,1303,o),
(536,1315,q),
(513,1315,l),
(513,1313,l),
(513,1302,o),
(490,1263,o),
(458,1225,o),
(428,1198,o),
(420,1198,q),
(420,1171,l),
(433,1171,o),
(471,1166,o),
(504,1151,o),
(526,1124,o),
(526,1105,q),
(526,908,l),
(512,897,l),
(512,883,l),
(608,845,l),
(548,843,o),
(443,792,o),
(422,756,q),
(418,748,l),
(418,792,o),
(382,851,o),
(319,889,o),
(239,905,o),
(197,905,q),
(162,905,o),
(93,881,o),
(36,841,o),
(0,786,o),
(0,754,q),
(15,754,l),
(40,812,o),
(113,812,q),
(145,812,o),
(197,746,o),
(197,703,q),
(197,168,l),
(197,137,o),
(185,120,o),
(168,120,q),
(168,82,l),
(184,82,o),
(253,55,o),
(328,19,o),
(386,-17,o),
(389,-25,q),
(754,240,l),
(754,51,l),
(954,-23,l),
(1040,102,l),
(975,131,l)
);
}
);
width = 1059;
}
);
unicode = 4650;
},
{
glyphname = uni122B;
layers = (
{
layerId = "55B2AD78-00C4-470B-8999-F57615B8BFC4";
shapes = (
{
closed = 1;
nodes = (
(952,515,l),
(960,426,o),
(1009,322,o),
(1074,271,o),
(1143,257,o),
(1171,257,q),
(1231,257,o),
(1300,279,o),
(1334,311,o),
(1344,351,o),
(1344,370,q),
(1344,378,l),
(1311,378,l),
(1309,348,o),
(1269,324,o),
(1251,324,q),
(1225,324,o),
(1187,370,o),
(1158,441,o),
(1139,523,o),
(1134,561,q),
(1013,561,o),
(843,566,o),
(737,579,o),
(687,597,o),
(687,612,q),
(657,612,l),
(657,599,o),
(626,559,o),
(586,521,o),
(546,494,o),
(534,494,q),
(534,470,l),
(546,470,o),
(580,456,o),
(614,437,o),
(637,410,o),
(637,399,q),
(637,255,l),
(510,133,l),
(418,200,l),
(418,687,l),
(418,703,o),
(450,746,o),
(504,788,o),
(574,819,o),
(612,819,q),
(666,819,o),
(769,814,o),
(851,799,o),
(901,774,o),
(901,756,q),
(901,723,o),
(870,699,o),
(857,699,q),
(826,647,l),
(849,647,o),
(893,687,o),
(927,741,o),
(947,794,o),
(947,809,q),
(947,845,o),
(881,885,o),
(805,914,o),
(741,939,o),
(741,958,q),
(741,1122,l),
(741,1169,o),
(754,1193,o),
(777,1193,q),
(777,1220,l),
(759,1220,o),
(681,1240,o),
(599,1271,o),
(536,1303,o),
(536,1315,q),
(513,1315,l),
(513,1313,l),
(513,1302,o),
(490,1263,o),
(458,1225,o),
(428,1198,o),
(420,1198,q),
(420,1171,l),
(433,1171,o),
(471,1166,o),
(504,1151,o),
(526,1124,o),
(526,1105,q),
(526,908,l),
(512,897,l),
(512,883,l),
(608,845,l),
(548,843,o),
(443,792,o),
(422,756,q),
(418,748,l),
(418,792,o),
(382,851,o),
(319,889,o),
(239,905,o),
(197,905,q),
(162,905,o),
(93,881,o),
(36,841,o),
(0,786,o),
(0,754,q),
(15,754,l),
(40,812,o),
(113,812,q),
(145,812,o),
(197,746,o),
(197,703,q),
(197,168,l),
(197,137,o),
(185,120,o),
(168,120,q),
(168,82,l),
(184,82,o),
(253,55,o),
(328,19,o),
(386,-17,o),
(389,-25,q),
(637,197,l),
(637,55,l),
(836,-19,l),
(921,73,l),
(857,103,l),
(857,368,l),
(857,430,o),
(872,515,o),
(897,515,q)
);
}
);
width = 1362;
}
);
unicode = 4651;
},
{
glyphname = uni122C;
layers = (
{
layerId = "55B2AD78-00C4-470B-8999-F57615B8BFC4";
shapes = (
{
closed = 1;
nodes = (
(734,107,l),
(750,107,o),
(814,67,o),
(885,19,o),
(943,-27,o),
(948,-33,q),
(1225,93,l),
(1225,118,l),
(1216,111,o),
(1196,109,q),
(1196,340,l),
(1191,340,o),
(1160,348,o),
(1129,362,o),
(1105,386,o),
(1105,399,q),
(1076,399,l),
(1076,393,o),
(1056,374,o),
(1025,351,o),
(992,332,o),
(983,328,q),
(983,406,l),
(983,430,o),
(996,450,o),
(1023,452,q),
(1023,481,l),
(989,481,o),
(923,504,o),
(872,536,o),
(841,572,o),
(841,586,q),
(809,586,l),
(809,559,o),
(757,510,o),
(727,510,q),
(727,484,l),
(748,484,o),
(763,470,o),
(763,448,q),
(763,364,l),
(510,149,l),
(418,200,l),
(418,687,l),
(418,703,o),
(450,746,o),
(504,788,o),
(574,819,o),
(612,819,q),
(666,819,o),
(769,814,o),
(851,799,o),
(901,774,o),
(901,756,q),
(901,723,o),
(870,699,o),
(857,699,q),
(857,690,l),
(880,690,o),
(914,716,o),
(937,754,o),
(947,794,o),
(947,809,q),
(947,845,o),
(881,885,o),
(805,914,o),
(741,939,o),
(741,958,q),
(741,1122,l),
(741,1169,o),
(754,1193,o),
(777,1193,q),
(777,1220,l),
(759,1220,o),
(681,1240,o),
(599,1271,o),
(536,1303,o),
(536,1315,q),
(513,1315,l),
(513,1313,l),
(513,1302,o),
(490,1263,o),
(458,1225,o),
(428,1198,o),
(420,1198,q),
(420,1171,l),
(433,1171,o),
(471,1166,o),
(504,1151,o),
(526,1124,o),
(526,1105,q),
(526,908,l),
(512,897,l),
(512,883,l),
(608,845,l),
(548,843,o),
(443,792,o),
(422,756,q),
(418,748,l),
(418,792,o),
(382,851,o),
(319,889,o),
(239,905,o),
(197,905,q),
(162,905,o),
(93,881,o),
(36,841,o),
(0,786,o),
(0,754,q),
(15,754,l),
(40,812,o),
(113,812,q),
(145,812,o),
(197,746,o),
(197,703,q),
(197,168,l),
(197,137,o),
(185,120,o),
(168,120,q),
(168,82,l),
(184,82,o),
(253,55,o),
(328,19,o),
(386,-17,o),
(389,-25,q),
(763,309,l),
(763,185,l),
(763,168,o),
(750,145,o),
(734,145,q)
);
},
{
closed = 1;
nodes = (
(1109,297,l),
(1109,99,l),
(1072,80,l),
(1023,80,o),
(983,113,o),
(983,151,q),
(983,297,l),
(1009,309,o),
(1045,332,o),
(1063,342,q)
);
}
);
width = 1244;
}
);
unicode = 4652;
},
{
glyphname = uni122D;
layers = (
{
layerId = "55B2AD78-00C4-470B-8999-F57615B8BFC4";
shapes = (
{
closed = 1;
nodes = (
(703,71,l),
(727,71,o),
(794,48,o),
(857,15,o),
(908,-19,o),
(918,-31,q),
(1053,107,l),
(1038,128,l),
(1003,97,l),
(952,147,l),
(952,334,l),
(952,362,o),
(975,397,o),
(1002,399,q),
(1002,428,l),
(967,428,o),
(905,452,o),
(857,488,o),
(828,530,o),
(828,550,q),
(796,550,l),
(796,534,o),
(771,492,o),
(732,452,o),
(692,426,o),
(677,426,q),
(677,399,l),
(708,399,o),
(730,393,o),
(730,380,q),
(730,334,l),
(510,145,l),
(418,200,l),
(418,1042,l),
(418,1059,o),
(446,1105,o),
(492,1147,o),
(552,1176,o),
(584,1176,q),
(622,1176,o),
(685,1194,o),
(706,1204,q),
(706,1204,o),
(714,1194,q),
(723,1185,o),
(750,1160,o),
(781,1136,o),
(796,1127,q),
(786,1114,o),
(777,1057,o),
(777,1047,q),
(777,1030,o),
(799,983,o),
(836,937,o),
(885,907,o),
(912,907,q),
(1000,907,o),
(1061,960,o),
(1061,1009,q),
(1038,1009,l),
(1038,989,o),
(1003,962,o),
(983,962,q),
(962,962,o),
(933,1021,o),
(933,1063,q),
(933,1084,o),
(971,1149,o),
(1005,1176,q),
(1005,1200,l),
(989,1200,o),
(931,1225,o),
(876,1258,o),
(834,1291,o),
(834,1303,q),
(807,1303,l),
(807,1291,o),
(761,1258,o),
(699,1229,o),
(634,1207,o),
(614,1207,q),
(550,1207,o),
(450,1158,o),
(418,1103,q),
(418,1147,o),
(382,1206,o),
(319,1244,o),
(239,1260,o),
(197,1260,q),
(162,1260,o),
(93,1236,o),
(36,1196,o),
(0,1141,o),
(0,1109,q),
(15,1109,l),
(40,1167,o),
(113,1167,q),
(145,1167,o),
(197,1101,o),
(197,1057,q),
(197,168,l),
(197,137,o),
(185,120,o),
(168,120,q),
(168,82,l),
(184,82,o),
(253,55,o),
(328,19,o),
(386,-17,o),
(389,-25,q),
(730,275,l),
(730,147,l),
(730,109,o),
(703,109,q)
);
}
);
width = 1080;
}
);
unicode = 4653;
},
{
glyphname = uni122E;
layers = (
{
layerId = "55B2AD78-00C4-470B-8999-F57615B8BFC4";
shapes = (
{
closed = 1;
nodes = (
(703,73,l),
(727,73,o),
(794,49,o),
(857,17,o),
(908,-17,o),
(918,-29,q),
(1053,109,l),
(1038,130,l),
(1003,99,l),
(952,149,l),
(952,334,l),
(952,362,o),
(975,397,o),
(1002,399,q),
(1002,428,l),
(967,428,o),
(905,452,o),
(857,488,o),
(828,530,o),
(828,550,q),
(796,550,l),
(796,534,o),
(771,492,o),
(732,452,o),
(692,426,o),
(677,426,q),
(677,399,l),
(708,399,o),
(730,393,o),
(730,380,q),
(730,334,l),
(510,145,l),
(418,200,l),
(418,1056,l),
(418,1074,o),
(460,1124,o),
(526,1167,o),
(612,1198,o),
(659,1198,q),
(690,1198,o),
(754,1154,o),
(754,1129,q),
(754,923,l),
(754,897,o),
(739,878,o),
(729,878,q),
(729,839,l),
(743,839,o),
(790,819,o),
(832,794,o),
(865,769,o),
(865,765,q),
(901,765,l),
(1096,851,l),
(1096,1109,l),
(1071,1109,o),
(1023,1147,o),
(1017,1167,q),
(992,1167,l),
(992,1153,o),
(952,1116,o),
(912,1103,q),
(912,1206,l),
(895,1206,o),
(839,1227,o),
(786,1258,o),
(748,1288,o),
(748,1298,q),
(721,1298,l),
(721,1284,o),
(662,1235,o),
(612,1221,q),
(553,1206,o),
(450,1171,o),
(418,1116,q),
(418,1160,o),
(382,1220,o),
(319,1258,o),
(239,1273,o),
(197,1273,q),
(162,1273,o),
(93,1249,o),
(36,1209,o),
(0,1154,o),
(0,1122,q),
(15,1122,l),
(40,1181,o),
(113,1181,q),
(145,1181,o),
(197,1114,o),
(197,1071,q),
(197,168,l),
(197,137,o),
(185,120,o),
(168,120,q),
(168,82,l),
(184,82,o),
(253,55,o),
(328,19,o),
(386,-17,o),
(389,-25,q),
(730,275,l),
(730,149,l),
(730,111,o),
(703,111,q)
);
},
{
closed = 1;
nodes = (
(1002,1082,l),
(1002,843,l),
(962,825,l),
(931,825,o),
(912,881,o),
(912,908,q),
(912,1071,l),
(927,1071,o),
(977,1099,o),
(987,1107,q)
);
}
);
width = 1114;
}
);
unicode = 4654;
},
{
glyphname = uni122F;
layers = (
{
layerId = "55B2AD78-00C4-470B-8999-F57615B8BFC4";
shapes = (
{
closed = 1;
nodes = (
(907,1076,l),
(907,1085,l),
(907,1103,o),
(929,1162,o),
(965,1220,o),
(1009,1262,o),
(1030,1262,q),
(1056,1262,o),
(1080,1233,o),
(1080,1223,q),
(1080,1196,o),
(1059,1156,o),
(1030,1156,q),
(1030,1143,l),
(1065,1143,o),
(1114,1193,o),
(1114,1227,q),
(1114,1276,o),
(1027,1345,o),
(965,1345,q),
(943,1345,o),
(883,1324,o),
(828,1282,o),
(786,1221,o),
(779,1181,q),
(601,1278,l),
(599,1280,o),
(590,1280,q),
(579,1280,o),
(579,1269,q),
(579,1254,o),
(582,1249,q),
(597,1227,o),
(614,1200,o),
(626,1178,q),
(588,1194,o),
(500,1246,o),
(422,1296,o),
(366,1336,o),
(361,1342,q),
(321,1342,l),
(321,1324,o),
(297,1260,o),
(264,1193,o),
(220,1145,o),
(200,1145,q),
(184,1145,o),
(157,1180,o),
(157,1211,q),
(145,1211,l),
(143,1204,o),
(143,1185,q),
(143,1167,l),
(143,1124,o),
(204,1065,o),
(250,1065,q),
(253,1065,l),
(293,1067,o),
(368,1085,o),
(428,1124,o),
(464,1183,o),
(464,1225,q),
(519,1193,l),
(519,903,l),
(504,891,l),
(504,878,l),
(608,839,l),
(548,838,o),
(443,786,o),
(422,750,q),
(418,743,l),
(418,786,o),
(382,845,o),
(319,883,o),
(239,899,o),
(197,899,q),
(162,899,o),
(93,876,o),
(36,836,o),
(0,781,o),
(0,748,q),
(15,748,l),
(40,807,o),
(113,807,q),
(145,807,o),
(197,741,o),
(197,697,q),
(197,162,l),
(197,131,o),
(185,115,o),
(168,115,q),
(168,76,l),
(184,76,o),
(253,49,o),
(328,13,o),
(386,-23,o),
(389,-31,q),
(637,191,l),
(637,49,l),
(836,-25,l),
(921,67,l),
(857,97,l),
(857,362,l),
(857,424,o),
(872,510,o),
(897,510,q),
(952,510,l),
(960,420,o),
(1009,317,o),
(1074,266,o),
(1143,252,o),
(1171,252,q),
(1231,252,o),
(1300,273,o),
(1334,306,o),
(1344,346,o),
(1344,364,q),
(1344,372,l),
(1311,372,l),
(1309,342,o),
(1269,319,o),
(1251,319,q),
(1225,319,o),
(1187,364,o),
(1158,435,o),
(1139,517,o),
(1134,555,q),
(1013,555,o),
(843,561,o),
(737,572,o),
(687,592,o),
(687,607,q),
(657,607,l),
(657,593,o),
(626,553,o),
(586,515,o),
(546,488,o),
(534,488,q),
(534,464,l),
(546,464,o),
(580,450,o),
(614,431,o),
(637,404,o),
(637,393,q),
(637,250,l),
(510,128,l),
(418,195,l),
(418,681,l),
(418,697,o),
(450,741,o),
(504,783,o),
(574,812,o),
(612,812,q),
(666,812,o),
(769,809,o),
(851,794,o),
(901,769,o),
(901,750,q),
(901,717,o),
(870,692,o),
(857,692,q),
(826,641,l),
(849,641,o),
(893,681,o),
(927,734,o),
(947,788,o),
(947,803,q),
(947,839,o),
(881,880,o),
(805,908,o),
(741,933,o),
(741,952,q),
(741,1158,l),
(757,1153,o),
(803,1127,o),
(847,1103,o),
(881,1082,o),
(887,1076,q)
);
}
);
width = 1362;
}
);
unicode = 4655;
},
{
glyphname = uni1230;
layers = (
{
layerId = "55B2AD78-00C4-470B-8999-F57615B8BFC4";
shapes = (
{
closed = 1;
nodes = (
(632,73,l),
(657,73,o),
(723,49,o),
(786,17,o),
(838,-17,o),
(847,-29,q),
(983,109,l),
(967,130,l),
(933,99,l),
(880,149,l),
(880,912,l),
(880,947,o),
(897,973,o),
(923,973,q),
(923,996,l),
(907,996,o),
(836,1016,o),
(765,1047,o),
(710,1085,o),
(710,1105,q),
(679,1105,l),
(679,1085,o),
(647,1045,o),
(603,1016,o),
(557,994,o),
(546,994,q),
(540,994,o),
(500,996,o),
(494,998,q),
(494,1078,l),
(494,1111,o),
(519,1171,o),
(548,1181,q),
(601,1200,o),
(675,1256,o),
(675,1280,q),
(675,1289,o),
(672,1309,o),
(668,1318,q),
(645,1318,l),
(648,1315,o),
(650,1309,o),
(650,1300,q),
(650,1282,o),
(614,1271,o),
(593,1271,q),
(563,1271,o),
(484,1309,o),
(414,1357,o),
(366,1406,o),
(366,1418,q),
(335,1418,l),
(335,1391,o),
(309,1334,o),
(266,1288,o),
(208,1258,o),
(177,1258,q),
(177,1227,l),
(206,1227,o),
(295,1209,o),
(382,1174,o),
(443,1116,o),
(443,1076,q),
(443,990,l),
(355,958,l),
(355,1013,o),
(240,1096,o),
(158,1096,q),
(86,1096,o),
(0,1042,o),
(0,998,q),
(0,989,o),
(0,979,q),
(0,969,o),
(4,960,q),
(21,960,l),
(23,987,o),
(51,1023,o),
(76,1023,q),
(99,1023,o),
(133,979,o),
(133,921,q),
(133,155,l),
(133,116,o),
(105,116,q),
(105,78,l),
(130,78,o),
(197,55,o),
(260,23,o),
(311,-11,o),
(321,-23,q),
(456,115,l),
(441,135,l),
(406,105,l),
(355,155,l),
(355,910,l),
(386,931,o),
(468,958,o),
(504,958,q),
(568,958,o),
(661,920,o),
(661,870,q),
(661,149,l),
(661,111,o),
(632,111,q)
);
}
);
width = 1002;
}
);
unicode = 4656;
},
{
glyphname = uni1231;
layers = (
{
layerId = "55B2AD78-00C4-470B-8999-F57615B8BFC4";
shapes = (
{
closed = 1;
nodes = (
(632,73,l),
(657,73,o),
(723,49,o),
(786,17,o),
(838,-17,o),
(847,-29,q),
(983,109,l),
(967,130,l),
(933,99,l),
(880,149,l),
(880,674,l),
(937,714,l),
(1021,645,l),
(1011,632,o),
(1007,574,o),
(1007,565,q),
(1007,536,o),
(1030,486,o),
(1069,446,o),
(1118,424,o),
(1145,424,q),
(1214,424,o),
(1288,462,o),
(1288,512,q),
(1288,532,o),
(1280,550,o),
(1275,555,q),
(1249,555,l),
(1254,550,o),
(1263,525,o),
(1263,517,q),
(1263,496,o),
(1229,479,o),
(1207,479,q),
(1189,479,o),
(1154,539,o),
(1154,574,q),
(1154,595,o),
(1196,666,o),
(1231,692,q),
(1231,717,l),
(1214,717,o),
(1156,743,o),
(1101,774,o),
(1059,809,o),
(1059,821,q),
(1032,821,l),
(880,717,l),
(880,910,l),
(880,945,o),
(897,971,o),
(923,971,q),
(923,994,l),
(907,994,o),
(836,1013,o),
(765,1045,o),
(710,1084,o),
(710,1103,q),
(679,1103,l),
(679,1084,o),
(647,1044,o),
(603,1013,o),
(557,992,o),
(546,992,q),
(540,992,o),
(500,994,o),
(494,996,q),
(494,1076,l),
(494,1109,o),
(519,1169,o),
(548,1180,q),
(601,1198,o),
(675,1254,o),
(675,1278,q),
(675,1288,o),
(672,1307,o),
(668,1316,q),
(645,1316,l),
(648,1313,o),
(650,1307,o),
(650,1298,q),
(650,1280,o),
(614,1269,o),
(593,1269,q),
(563,1269,o),
(484,1307,o),
(414,1355,o),
(366,1404,o),
(366,1416,q),
(335,1416,l),
(335,1389,o),
(309,1332,o),
(266,1286,o),
(208,1256,o),
(177,1256,q),
(177,1225,l),
(206,1225,o),
(295,1207,o),
(382,1171,o),
(443,1114,o),
(443,1074,q),
(443,989,l),
(355,956,l),
(355,1011,o),
(240,1094,o),
(158,1094,q),
(86,1094,o),
(0,1040,o),
(0,996,q),
(0,987,o),
(0,977,q),
(0,967,o),
(4,958,q),
(21,958,l),
(23,985,o),
(51,1021,o),
(76,1021,q),
(99,1021,o),
(133,977,o),
(133,920,q),
(133,153,l),
(133,115,o),
(105,115,q),
(105,76,l),
(130,76,o),
(197,53,o),
(260,21,o),
(311,-13,o),
(321,-25,q),
(456,113,l),
(441,133,l),
(406,103,l),
(355,153,l),
(355,908,l),
(386,929,o),
(468,956,o),
(504,956,q),
(568,956,o),
(661,918,o),
(661,868,q),
(661,149,l),
(661,111,o),
(632,111,q)
);
}
);
width = 1307;
}
);
unicode = 4657;
},
